<svg width="40" height="40" viewBox="0 0 40 40" fill="none" xmlns="http://www.w3.org/2000/svg">
<rect width="40" height="40" rx="8" fill="url(#paint0_linear_151_338)"/>
<path d="M25.4802 8.76062C24.8945 8.17483 23.9447 8.17483 23.3589 8.76061L19.2994 12.8201C18.7136 13.4059 18.7136 14.3556 19.2994 14.9414L20.6416 16.2836C21.2274 16.8694 22.1771 16.8694 22.7629 16.2836L26.8224 12.2241C27.4082 11.6383 27.4082 10.6886 26.8224 10.1028L25.4802 8.76062Z" fill="#101820"/>
<path d="M19.6859 17.2387C20.2717 17.8245 20.2716 18.7744 19.6857 19.3601L17.7381 21.307C17.1523 21.8926 16.2027 21.8925 15.617 21.3068L14.2191 19.9089C13.6333 19.3231 12.6836 19.3231 12.0978 19.9089L8.70501 23.3016C8.11923 23.8874 7.16948 23.8874 6.5837 23.3016L4.34201 21.06C3.75619 20.4741 3.75623 19.5243 4.34211 18.9385L11.8042 11.4778C12.39 10.8921 13.3397 10.8922 13.9254 11.478L19.6859 17.2387Z" fill="#101820"/>
<path d="M21.0615 4.34191C20.4757 3.75612 19.526 3.75612 18.9402 4.34191L14.8807 8.40139C14.2949 8.98718 14.2949 9.93693 14.8807 10.5227L16.2229 11.8649C16.8087 12.4507 17.7584 12.4507 18.3442 11.8649L22.4037 7.80539C22.9895 7.2196 22.9895 6.26985 22.4037 5.68407L21.0615 4.34191Z" fill="#101820"/>
<path d="M28.5232 26.0745C29.1091 26.6603 29.1092 27.6101 28.5234 28.1959L21.0615 35.6581C20.4757 36.2439 19.526 36.2439 18.9402 35.6581L9.66008 26.378C9.07438 25.7923 9.07428 24.8427 9.65988 24.2569L12.0975 21.8183C12.6834 21.2322 13.6335 21.2323 14.2193 21.8184L15.6167 23.2165C16.2025 23.8026 17.1526 23.8026 17.7384 23.2166L20.64 20.3142C21.2257 19.7283 22.1755 19.7282 22.7614 20.3139L28.5232 26.0745Z" fill="#101820"/>
<path d="M29.8971 13.1779C29.3113 12.5921 28.3616 12.5921 27.7758 13.1779L23.7163 17.2373C23.1305 17.8231 23.1305 18.7729 23.7163 19.3587L25.0599 20.7023C25.6457 21.2881 26.5955 21.2881 27.1813 20.7023L31.2407 16.6428C31.8265 16.0571 31.8265 15.1073 31.2408 14.5215L29.8971 13.1779Z" fill="#101820"/>
<path d="M34.3159 17.5963C33.7301 17.0105 32.7804 17.0105 32.1946 17.5963L28.1351 21.6557C27.5493 22.2415 27.5493 23.1913 28.1351 23.7771L29.4773 25.1192C30.0631 25.705 31.0128 25.705 31.5986 25.1192L35.6581 21.0597C36.2439 20.474 36.2439 19.5242 35.6581 18.9384L34.3159 17.5963Z" fill="#101820"/>
<defs>
<linearGradient id="paint0_linear_151_338" x1="20" y1="0" x2="20" y2="40" gradientUnits="userSpaceOnUse">
<stop stop-color="white"/>
<stop offset="1" stop-color="#C5C5C5"/>
</linearGradient>
</defs>
</svg>
