<svg width="232" height="155" viewBox="0 0 232 155" fill="none" xmlns="http://www.w3.org/2000/svg">
<path fill-rule="evenodd" clip-rule="evenodd" d="M27.7742 72C22.9283 72 19 75.9283 19 80.7742V99.8756L1 110.268C-0.333332 111.038 -0.333334 112.962 0.999999 113.732L19 124.124V127.226C19 132.072 22.9283 136 27.7742 136H208.226C213.072 136 217 132.072 217 127.226V80.7742C217 75.9283 213.072 72 208.226 72H27.7742Z" fill="#2F3032"/>
<g clip-path="url(#clip0_145_1575)">
<path d="M35.272 98.644C34.1627 98.644 33.2133 98.4093 32.424 97.94C31.6347 97.4707 31.0267 96.804 30.6 95.94C30.184 95.076 29.976 94.0467 29.976 92.852C29.976 91.6573 30.184 90.6333 30.6 89.78C31.0267 88.916 31.6347 88.2493 32.424 87.78C33.2133 87.3107 34.1627 87.076 35.272 87.076C36.0507 87.076 36.7707 87.1987 37.432 87.444C38.0933 87.6893 38.648 88.0467 39.096 88.516L38.584 89.588C38.0933 89.1293 37.5813 88.7987 37.048 88.596C36.5253 88.3827 35.944 88.276 35.304 88.276C34.0347 88.276 33.064 88.676 32.392 89.476C31.72 90.276 31.384 91.4013 31.384 92.852C31.384 94.3027 31.72 95.4333 32.392 96.244C33.064 97.044 34.0347 97.444 35.304 97.444C35.944 97.444 36.5253 97.3427 37.048 97.14C37.5813 96.9267 38.0933 96.5907 38.584 96.132L39.096 97.204C38.648 97.6627 38.0933 98.02 37.432 98.276C36.7707 98.5213 36.0507 98.644 35.272 98.644ZM41.4816 98.5V87.22H42.7776V92.452H42.5696C42.7936 91.8333 43.1563 91.3693 43.6576 91.06C44.1696 90.74 44.7563 90.58 45.4176 90.58C46.0363 90.58 46.5483 90.692 46.9536 90.916C47.3696 91.14 47.679 91.4813 47.8816 91.94C48.0843 92.388 48.1856 92.9587 48.1856 93.652V98.5H46.8896V93.732C46.8896 93.252 46.8256 92.8573 46.6976 92.548C46.5803 92.2387 46.3883 92.0093 46.1216 91.86C45.8656 91.7107 45.5296 91.636 45.1136 91.636C44.6443 91.636 44.2336 91.7373 43.8816 91.94C43.5296 92.1427 43.2576 92.4253 43.0656 92.788C42.8736 93.1507 42.7776 93.5773 42.7776 94.068V98.5H41.4816ZM54.3074 98.644C53.55 98.644 52.894 98.4787 52.3394 98.148C51.7847 97.8173 51.3527 97.3533 51.0434 96.756C50.7447 96.148 50.5954 95.4333 50.5954 94.612C50.5954 93.7907 50.7447 93.0813 51.0434 92.484C51.3527 91.876 51.7847 91.4067 52.3394 91.076C52.894 90.7453 53.55 90.58 54.3074 90.58C55.0647 90.58 55.7207 90.7453 56.2754 91.076C56.83 91.4067 57.2567 91.876 57.5554 92.484C57.8647 93.0813 58.0194 93.7907 58.0194 94.612C58.0194 95.4333 57.8647 96.148 57.5554 96.756C57.2567 97.3533 56.83 97.8173 56.2754 98.148C55.7207 98.4787 55.0647 98.644 54.3074 98.644ZM54.3074 97.604C55.0434 97.604 55.6247 97.348 56.0514 96.836C56.4887 96.3133 56.7074 95.5667 56.7074 94.596C56.7074 93.636 56.4887 92.9 56.0514 92.388C55.6247 91.876 55.0434 91.62 54.3074 91.62C53.582 91.62 53.0007 91.876 52.5634 92.388C52.126 92.9 51.9074 93.636 51.9074 94.596C51.9074 95.5667 52.126 96.3133 52.5634 96.836C53.0007 97.348 53.582 97.604 54.3074 97.604ZM63.698 98.644C62.9407 98.644 62.2847 98.4787 61.73 98.148C61.1753 97.8173 60.7433 97.3533 60.434 96.756C60.1353 96.148 59.986 95.4333 59.986 94.612C59.986 93.7907 60.1353 93.0813 60.434 92.484C60.7433 91.876 61.1753 91.4067 61.73 91.076C62.2847 90.7453 62.9407 90.58 63.698 90.58C64.4553 90.58 65.1113 90.7453 65.666 91.076C66.2207 91.4067 66.6473 91.876 66.946 92.484C67.2553 93.0813 67.41 93.7907 67.41 94.612C67.41 95.4333 67.2553 96.148 66.946 96.756C66.6473 97.3533 66.2207 97.8173 65.666 98.148C65.1113 98.4787 64.4553 98.644 63.698 98.644ZM63.698 97.604C64.434 97.604 65.0153 97.348 65.442 96.836C65.8793 96.3133 66.098 95.5667 66.098 94.596C66.098 93.636 65.8793 92.9 65.442 92.388C65.0153 91.876 64.434 91.62 63.698 91.62C62.9727 91.62 62.3913 91.876 61.954 92.388C61.5167 92.9 61.298 93.636 61.298 94.596C61.298 95.5667 61.5167 96.3133 61.954 96.836C62.3913 97.348 62.9727 97.604 63.698 97.604ZM72.4806 98.644C72.0753 98.644 71.6806 98.6013 71.2966 98.516C70.9233 98.4413 70.5713 98.3347 70.2406 98.196C69.9206 98.0467 69.6433 97.8707 69.4086 97.668L69.8246 96.756C70.0806 96.9587 70.358 97.1293 70.6566 97.268C70.9553 97.396 71.2593 97.492 71.5686 97.556C71.878 97.62 72.1926 97.652 72.5126 97.652C73.1206 97.652 73.5793 97.54 73.8886 97.316C74.198 97.092 74.3526 96.788 74.3526 96.404C74.3526 96.1053 74.2513 95.8707 74.0486 95.7C73.846 95.5187 73.526 95.38 73.0886 95.284L71.6326 94.964C70.9606 94.8253 70.4593 94.5853 70.1286 94.244C69.8086 93.9027 69.6486 93.46 69.6486 92.916C69.6486 92.436 69.7713 92.0253 70.0166 91.684C70.2726 91.332 70.63 91.06 71.0886 90.868C71.5473 90.676 72.0806 90.58 72.6886 90.58C73.0513 90.58 73.398 90.6173 73.7286 90.692C74.0593 90.7667 74.3686 90.8787 74.6566 91.028C74.9553 91.1667 75.2113 91.3427 75.4246 91.556L74.9926 92.468C74.79 92.276 74.5606 92.116 74.3046 91.988C74.0486 91.8493 73.782 91.748 73.5046 91.684C73.238 91.6093 72.966 91.572 72.6886 91.572C72.0913 91.572 71.638 91.6893 71.3286 91.924C71.0193 92.1587 70.8646 92.468 70.8646 92.852C70.8646 93.1507 70.9606 93.396 71.1526 93.588C71.3446 93.78 71.6433 93.9187 72.0486 94.004L73.5046 94.308C74.198 94.4573 74.7153 94.6973 75.0566 95.028C75.4086 95.348 75.5846 95.7853 75.5846 96.34C75.5846 96.8093 75.4566 97.22 75.2006 97.572C74.9446 97.9133 74.582 98.18 74.1126 98.372C73.654 98.5533 73.11 98.644 72.4806 98.644ZM81.5638 98.644C80.7424 98.644 80.0331 98.484 79.4358 98.164C78.8491 97.8333 78.3904 97.3693 78.0598 96.772C77.7398 96.1747 77.5798 95.46 77.5798 94.628C77.5798 93.8173 77.7398 93.1133 78.0598 92.516C78.3798 91.908 78.8171 91.4333 79.3718 91.092C79.9371 90.7507 80.5878 90.58 81.3238 90.58C82.0278 90.58 82.6304 90.7347 83.1318 91.044C83.6331 91.3533 84.0171 91.7907 84.2838 92.356C84.5611 92.9213 84.6998 93.5987 84.6998 94.388V94.884H78.5718V94.036H83.8358L83.5798 94.244C83.5798 93.3907 83.3878 92.7293 83.0038 92.26C82.6304 91.78 82.0811 91.54 81.3558 91.54C80.8118 91.54 80.3478 91.668 79.9638 91.924C79.5904 92.1693 79.3078 92.516 79.1158 92.964C78.9238 93.4013 78.8278 93.9133 78.8278 94.5V94.596C78.8278 95.2467 78.9291 95.796 79.1318 96.244C79.3451 96.692 79.6598 97.0333 80.0758 97.268C80.4918 97.492 80.9878 97.604 81.5638 97.604C82.0224 97.604 82.4651 97.5347 82.8918 97.396C83.3291 97.2467 83.7398 97.0067 84.1238 96.676L84.5718 97.588C84.2198 97.908 83.7718 98.164 83.2278 98.356C82.6838 98.548 82.1291 98.644 81.5638 98.644ZM94.1328 98.644C93.5994 98.644 93.1194 98.5427 92.6928 98.34C92.2768 98.1267 91.9461 97.8387 91.7008 97.476C91.4554 97.1133 91.3328 96.708 91.3328 96.26C91.3328 95.684 91.4768 95.2307 91.7648 94.9C92.0634 94.5693 92.5488 94.3347 93.2208 94.196C93.9034 94.0573 94.8314 93.988 96.0048 93.988H96.7248V94.836H96.0208C95.3701 94.836 94.8261 94.8573 94.3888 94.9C93.9514 94.9427 93.6048 95.0173 93.3488 95.124C93.0928 95.2307 92.9114 95.3693 92.8048 95.54C92.6981 95.7107 92.6448 95.924 92.6448 96.18C92.6448 96.6173 92.7941 96.9747 93.0928 97.252C93.4021 97.5293 93.8181 97.668 94.3408 97.668C94.7674 97.668 95.1408 97.5667 95.4608 97.364C95.7914 97.1613 96.0474 96.884 96.2288 96.532C96.4208 96.18 96.5168 95.7747 96.5168 95.316V93.492C96.5168 92.8307 96.3834 92.356 96.1168 92.068C95.8501 91.7693 95.4128 91.62 94.8048 91.62C94.3354 91.62 93.8821 91.6893 93.4448 91.828C93.0074 91.956 92.5594 92.1693 92.1008 92.468L91.6528 91.524C91.9301 91.332 92.2448 91.1667 92.5968 91.028C92.9488 90.8787 93.3168 90.7667 93.7008 90.692C94.0848 90.6173 94.4528 90.58 94.8048 90.58C95.4768 90.58 96.0314 90.692 96.4688 90.916C96.9061 91.1293 97.2314 91.46 97.4448 91.908C97.6581 92.3453 97.7648 92.9107 97.7648 93.604V98.5H96.5488V96.692H96.6928C96.6074 97.0973 96.4421 97.444 96.1968 97.732C95.9621 98.02 95.6688 98.244 95.3168 98.404C94.9648 98.564 94.5701 98.644 94.1328 98.644ZM108.223 98.5V88.356H104.127V87.22H113.647V88.356H109.551V98.5H108.223ZM117.417 98.644C116.659 98.644 116.003 98.4787 115.449 98.148C114.894 97.8173 114.462 97.3533 114.153 96.756C113.854 96.148 113.705 95.4333 113.705 94.612C113.705 93.7907 113.854 93.0813 114.153 92.484C114.462 91.876 114.894 91.4067 115.449 91.076C116.003 90.7453 116.659 90.58 117.417 90.58C118.174 90.58 118.83 90.7453 119.385 91.076C119.939 91.4067 120.366 91.876 120.665 92.484C120.974 93.0813 121.129 93.7907 121.129 94.612C121.129 95.4333 120.974 96.148 120.665 96.756C120.366 97.3533 119.939 97.8173 119.385 98.148C118.83 98.4787 118.174 98.644 117.417 98.644ZM117.417 97.604C118.153 97.604 118.734 97.348 119.161 96.836C119.598 96.3133 119.817 95.5667 119.817 94.596C119.817 93.636 119.598 92.9 119.161 92.388C118.734 91.876 118.153 91.62 117.417 91.62C116.691 91.62 116.11 91.876 115.673 92.388C115.235 92.9 115.017 93.636 115.017 94.596C115.017 95.5667 115.235 96.3133 115.673 96.836C116.11 97.348 116.691 97.604 117.417 97.604ZM123.575 101.38V90.724H124.839V92.564H124.679C124.85 91.956 125.186 91.476 125.687 91.124C126.199 90.7613 126.807 90.58 127.511 90.58C128.205 90.58 128.807 90.7453 129.319 91.076C129.842 91.396 130.242 91.86 130.519 92.468C130.807 93.0653 130.951 93.78 130.951 94.612C130.951 95.4333 130.807 96.148 130.519 96.756C130.242 97.3533 129.847 97.8173 129.335 98.148C128.823 98.4787 128.215 98.644 127.511 98.644C126.807 98.644 126.205 98.468 125.703 98.116C125.202 97.7533 124.861 97.2733 124.679 96.676H124.871V101.38H123.575ZM127.239 97.604C127.975 97.604 128.557 97.348 128.983 96.836C129.421 96.3133 129.639 95.572 129.639 94.612C129.639 93.6413 129.421 92.9 128.983 92.388C128.557 91.876 127.975 91.62 127.239 91.62C126.514 91.62 125.933 91.876 125.495 92.388C125.058 92.9 124.839 93.6413 124.839 94.612C124.839 95.572 125.058 96.3133 125.495 96.836C125.933 97.348 126.514 97.604 127.239 97.604ZM133.243 88.788V87.332H134.844V88.788H133.243ZM133.404 98.5V90.724H134.7V98.5H133.404ZM140.918 98.644C140.14 98.644 139.468 98.4733 138.902 98.132C138.337 97.7907 137.9 97.316 137.59 96.708C137.292 96.0893 137.142 95.3747 137.142 94.564C137.142 93.7427 137.292 93.0333 137.59 92.436C137.9 91.8387 138.337 91.38 138.902 91.06C139.468 90.74 140.14 90.58 140.918 90.58C141.398 90.58 141.873 90.6653 142.342 90.836C142.812 91.0067 143.201 91.2467 143.51 91.556L143.062 92.5C142.753 92.2013 142.412 91.9827 142.038 91.844C141.676 91.7053 141.329 91.636 140.998 91.636C140.188 91.636 139.564 91.892 139.126 92.404C138.689 92.9053 138.47 93.6307 138.47 94.58C138.47 95.508 138.689 96.244 139.126 96.788C139.564 97.3213 140.188 97.588 140.998 97.588C141.329 97.588 141.676 97.5187 142.038 97.38C142.412 97.2413 142.753 97.0173 143.062 96.708L143.51 97.652C143.201 97.9613 142.806 98.2067 142.326 98.388C141.857 98.5587 141.388 98.644 140.918 98.644ZM153.258 98.644C152.341 98.644 151.653 98.3987 151.194 97.908C150.735 97.4173 150.506 96.7187 150.506 95.812V91.732H148.986V90.724H150.506V88.34H151.802V90.724H154.266V91.732H151.802V95.684C151.802 96.292 151.93 96.756 152.186 97.076C152.442 97.3853 152.858 97.54 153.434 97.54C153.605 97.54 153.775 97.5187 153.946 97.476C154.117 97.4333 154.271 97.3907 154.41 97.348L154.634 98.34C154.495 98.4147 154.293 98.484 154.026 98.548C153.759 98.612 153.503 98.644 153.258 98.644ZM159.386 98.644C158.628 98.644 157.972 98.4787 157.418 98.148C156.863 97.8173 156.431 97.3533 156.122 96.756C155.823 96.148 155.674 95.4333 155.674 94.612C155.674 93.7907 155.823 93.0813 156.122 92.484C156.431 91.876 156.863 91.4067 157.418 91.076C157.972 90.7453 158.628 90.58 159.386 90.58C160.143 90.58 160.799 90.7453 161.354 91.076C161.908 91.4067 162.335 91.876 162.634 92.484C162.943 93.0813 163.098 93.7907 163.098 94.612C163.098 95.4333 162.943 96.148 162.634 96.756C162.335 97.3533 161.908 97.8173 161.354 98.148C160.799 98.4787 160.143 98.644 159.386 98.644ZM159.386 97.604C160.122 97.604 160.703 97.348 161.13 96.836C161.567 96.3133 161.786 95.5667 161.786 94.596C161.786 93.636 161.567 92.9 161.13 92.388C160.703 91.876 160.122 91.62 159.386 91.62C158.66 91.62 158.079 91.876 157.642 92.388C157.204 92.9 156.986 93.636 156.986 94.596C156.986 95.5667 157.204 96.3133 157.642 96.836C158.079 97.348 158.66 97.604 159.386 97.604ZM173.978 98.644C173.391 98.644 172.836 98.5907 172.314 98.484C171.802 98.3773 171.327 98.228 170.89 98.036C170.463 97.8333 170.074 97.588 169.722 97.3L170.186 96.244C170.548 96.5107 170.916 96.74 171.289 96.932C171.674 97.1133 172.084 97.252 172.522 97.348C172.97 97.4333 173.455 97.476 173.978 97.476C174.938 97.476 175.647 97.3 176.106 96.948C176.575 96.5853 176.81 96.1107 176.81 95.524C176.81 95.2147 176.735 94.948 176.586 94.724C176.447 94.5 176.212 94.308 175.882 94.148C175.562 93.988 175.14 93.8547 174.618 93.748L172.954 93.412C171.951 93.1987 171.199 92.852 170.698 92.372C170.207 91.8813 169.962 91.2307 169.962 90.42C169.962 89.748 170.132 89.1613 170.474 88.66C170.826 88.1587 171.311 87.7693 171.93 87.492C172.559 87.2147 173.274 87.076 174.074 87.076C174.586 87.076 175.071 87.1293 175.53 87.236C175.988 87.3427 176.41 87.5027 176.794 87.716C177.188 87.9187 177.535 88.1693 177.834 88.468L177.37 89.492C176.89 89.0547 176.383 88.74 175.85 88.548C175.316 88.3453 174.719 88.244 174.058 88.244C173.492 88.244 173.002 88.3293 172.586 88.5C172.18 88.6707 171.86 88.9213 171.626 89.252C171.402 89.572 171.289 89.9453 171.289 90.372C171.289 90.884 171.444 91.2893 171.754 91.588C172.074 91.8867 172.591 92.1053 173.306 92.244L174.97 92.596C176.047 92.82 176.842 93.1613 177.354 93.62C177.876 94.068 178.138 94.6813 178.138 95.46C178.138 96.0787 177.967 96.6333 177.626 97.124C177.295 97.604 176.815 97.9773 176.186 98.244C175.567 98.5107 174.831 98.644 173.978 98.644ZM183.586 98.644C182.669 98.644 181.981 98.3987 181.522 97.908C181.063 97.4173 180.834 96.7187 180.834 95.812V91.732H179.314V90.724H180.834V88.34H182.13V90.724H184.594V91.732H182.13V95.684C182.13 96.292 182.258 96.756 182.514 97.076C182.77 97.3853 183.186 97.54 183.762 97.54C183.933 97.54 184.103 97.5187 184.274 97.476C184.445 97.4333 184.599 97.3907 184.738 97.348L184.962 98.34C184.823 98.4147 184.621 98.484 184.354 98.548C184.087 98.612 183.831 98.644 183.586 98.644ZM189.008 98.644C188.474 98.644 187.994 98.5427 187.568 98.34C187.152 98.1267 186.821 97.8387 186.576 97.476C186.33 97.1133 186.208 96.708 186.208 96.26C186.208 95.684 186.352 95.2307 186.64 94.9C186.938 94.5693 187.424 94.3347 188.096 94.196C188.778 94.0573 189.706 93.988 190.88 93.988H191.6V94.836H190.896C190.245 94.836 189.701 94.8573 189.264 94.9C188.826 94.9427 188.48 95.0173 188.224 95.124C187.968 95.2307 187.786 95.3693 187.68 95.54C187.573 95.7107 187.52 95.924 187.52 96.18C187.52 96.6173 187.669 96.9747 187.968 97.252C188.277 97.5293 188.693 97.668 189.216 97.668C189.642 97.668 190.016 97.5667 190.336 97.364C190.666 97.1613 190.922 96.884 191.104 96.532C191.296 96.18 191.392 95.7747 191.392 95.316V93.492C191.392 92.8307 191.258 92.356 190.992 92.068C190.725 91.7693 190.288 91.62 189.68 91.62C189.21 91.62 188.757 91.6893 188.32 91.828C187.882 91.956 187.434 92.1693 186.976 92.468L186.528 91.524C186.805 91.332 187.12 91.1667 187.472 91.028C187.824 90.8787 188.192 90.7667 188.576 90.692C188.96 90.6173 189.328 90.58 189.68 90.58C190.352 90.58 190.906 90.692 191.344 90.916C191.781 91.1293 192.106 91.46 192.32 91.908C192.533 92.3453 192.64 92.9107 192.64 93.604V98.5H191.424V96.692H191.568C191.482 97.0973 191.317 97.444 191.072 97.732C190.837 98.02 190.544 98.244 190.192 98.404C189.84 98.564 189.445 98.644 189.008 98.644ZM195.544 98.5V90.724H196.808V92.564H196.648C196.829 91.9347 197.144 91.46 197.592 91.14C198.04 90.8093 198.632 90.6173 199.368 90.564L199.832 90.516L199.928 91.636L199.112 91.732C198.387 91.796 197.827 92.0307 197.432 92.436C197.048 92.8307 196.856 93.3747 196.856 94.068V98.5H195.544ZM205.32 98.644C204.403 98.644 203.715 98.3987 203.256 97.908C202.798 97.4173 202.568 96.7187 202.568 95.812V91.732H201.048V90.724H202.568V88.34H203.864V90.724H206.328V91.732H203.864V95.684C203.864 96.292 203.992 96.756 204.248 97.076C204.504 97.3853 204.92 97.54 205.496 97.54C205.667 97.54 205.838 97.5187 206.008 97.476C206.179 97.4333 206.334 97.3907 206.472 97.348L206.696 98.34C206.558 98.4147 206.355 98.484 206.088 98.548C205.822 98.612 205.566 98.644 205.32 98.644ZM33.336 122.644C32.4187 122.644 31.7307 122.399 31.272 121.908C30.8133 121.417 30.584 120.719 30.584 119.812V115.732H29.064V114.724H30.584V112.34H31.88V114.724H34.344V115.732H31.88V119.684C31.88 120.292 32.008 120.756 32.264 121.076C32.52 121.385 32.936 121.54 33.512 121.54C33.6827 121.54 33.8533 121.519 34.024 121.476C34.1947 121.433 34.3493 121.391 34.488 121.348L34.712 122.34C34.5733 122.415 34.3707 122.484 34.104 122.548C33.8373 122.612 33.5813 122.644 33.336 122.644ZM36.3098 122.5V111.22H37.6058V116.452H37.3978C37.6218 115.833 37.9844 115.369 38.4858 115.06C38.9978 114.74 39.5844 114.58 40.2458 114.58C40.8644 114.58 41.3764 114.692 41.7818 114.916C42.1978 115.14 42.5071 115.481 42.7098 115.94C42.9124 116.388 43.0138 116.959 43.0138 117.652V122.5H41.7178V117.732C41.7178 117.252 41.6538 116.857 41.5258 116.548C41.4084 116.239 41.2164 116.009 40.9498 115.86C40.6938 115.711 40.3578 115.636 39.9418 115.636C39.4724 115.636 39.0618 115.737 38.7098 115.94C38.3578 116.143 38.0858 116.425 37.8938 116.788C37.7018 117.151 37.6058 117.577 37.6058 118.068V122.5H36.3098ZM49.4075 122.644C48.5862 122.644 47.8768 122.484 47.2795 122.164C46.6928 121.833 46.2342 121.369 45.9035 120.772C45.5835 120.175 45.4235 119.46 45.4235 118.628C45.4235 117.817 45.5835 117.113 45.9035 116.516C46.2235 115.908 46.6608 115.433 47.2155 115.092C47.7808 114.751 48.4315 114.58 49.1675 114.58C49.8715 114.58 50.4742 114.735 50.9755 115.044C51.4768 115.353 51.8608 115.791 52.1275 116.356C52.4048 116.921 52.5435 117.599 52.5435 118.388V118.884H46.4155V118.036H51.6795L51.4235 118.244C51.4235 117.391 51.2315 116.729 50.8475 116.26C50.4742 115.78 49.9248 115.54 49.1995 115.54C48.6555 115.54 48.1915 115.668 47.8075 115.924C47.4342 116.169 47.1515 116.516 46.9595 116.964C46.7675 117.401 46.6715 117.913 46.6715 118.5V118.596C46.6715 119.247 46.7728 119.796 46.9755 120.244C47.1888 120.692 47.5035 121.033 47.9195 121.268C48.3355 121.492 48.8315 121.604 49.4075 121.604C49.8662 121.604 50.3088 121.535 50.7355 121.396C51.1728 121.247 51.5835 121.007 51.9675 120.676L52.4155 121.588C52.0635 121.908 51.6155 122.164 51.0715 122.356C50.5275 122.548 49.9728 122.644 49.4075 122.644ZM67.5605 125.716L66.2165 123.556C66.0458 123.257 65.8112 123.028 65.5125 122.868C65.2138 122.719 64.8565 122.644 64.4405 122.644L65.5285 122.18C65.8592 122.18 66.1418 122.217 66.3765 122.292C66.6218 122.367 66.8405 122.489 67.0325 122.66C67.2245 122.841 67.4112 123.092 67.5925 123.412L68.6645 125.14L67.5605 125.716ZM64.4405 122.644C63.6618 122.644 62.9525 122.511 62.3125 122.244C61.6725 121.967 61.1285 121.577 60.6805 121.076C60.2325 120.575 59.8858 119.967 59.6405 119.252C59.4058 118.537 59.2885 117.737 59.2885 116.852C59.2885 115.956 59.4058 115.156 59.6405 114.452C59.8858 113.737 60.2325 113.135 60.6805 112.644C61.1285 112.143 61.6672 111.759 62.2965 111.492C62.9365 111.215 63.6512 111.076 64.4405 111.076C65.2405 111.076 65.9552 111.209 66.5845 111.476C67.2245 111.743 67.7685 112.127 68.2165 112.628C68.6752 113.129 69.0218 113.737 69.2565 114.452C69.5018 115.156 69.6245 115.951 69.6245 116.836C69.6245 117.732 69.5018 118.537 69.2565 119.252C69.0112 119.967 68.6645 120.575 68.2165 121.076C67.7685 121.577 67.2245 121.967 66.5845 122.244C65.9552 122.511 65.2405 122.644 64.4405 122.644ZM64.4405 121.476C65.2512 121.476 65.9338 121.295 66.4885 120.932C67.0538 120.569 67.4858 120.041 67.7845 119.348C68.0832 118.655 68.2325 117.823 68.2325 116.852C68.2325 115.871 68.0832 115.039 67.7845 114.356C67.4858 113.673 67.0538 113.151 66.4885 112.788C65.9338 112.425 65.2512 112.244 64.4405 112.244C63.6512 112.244 62.9738 112.425 62.4085 112.788C61.8538 113.151 61.4272 113.679 61.1285 114.372C60.8298 115.055 60.6805 115.881 60.6805 116.852C60.6805 117.823 60.8298 118.655 61.1285 119.348C61.4272 120.031 61.8538 120.559 62.4085 120.932C62.9738 121.295 63.6512 121.476 64.4405 121.476ZM75.0461 122.644C74.4168 122.644 73.8941 122.532 73.4781 122.308C73.0728 122.073 72.7635 121.727 72.5501 121.268C72.3475 120.809 72.2461 120.239 72.2461 119.556V114.724H73.5421V119.54C73.5421 119.999 73.6008 120.383 73.7181 120.692C73.8461 120.991 74.0435 121.215 74.3101 121.364C74.5768 121.503 74.9075 121.572 75.3021 121.572C75.7501 121.572 76.1395 121.471 76.4701 121.268C76.8008 121.065 77.0621 120.783 77.2541 120.42C77.4461 120.057 77.5421 119.631 77.5421 119.14V114.724H78.8381V122.5H77.5741V120.708H77.7821C77.5688 121.337 77.2168 121.817 76.7261 122.148C76.2461 122.479 75.6861 122.644 75.0461 122.644ZM81.6029 112.788V111.332H83.2029V112.788H81.6029ZM81.7629 122.5V114.724H83.0589V122.5H81.7629ZM85.6456 122.5V121.636L90.3336 115.396V115.732H85.6456V114.724H91.5336V115.588L86.7976 121.86V121.492H91.7096V122.5H85.6456Z" fill="white"/>
</g>
<defs>
<clipPath id="clip0_145_1575">
<rect width="178" height="44" fill="white" transform="translate(29 82)"/>
</clipPath>
</defs>
</svg>
