<svg width="203" height="67" viewBox="0 0 203 67" fill="none" xmlns="http://www.w3.org/2000/svg">
<path d="M0 9C0 4.58172 3.58172 1 8 1H194C198.418 1 202 4.58172 202 9V57C202 61.4183 198.418 65 194 65H8C3.58172 65 0 61.4183 0 57V9Z" fill="#21B6F8"/>
<path d="M-0.5 9C-0.5 4.30558 3.30558 0.5 8 0.5H194C198.694 0.5 202.5 4.30558 202.5 9H201.5C201.5 4.85786 198.142 1.5 194 1.5H8C3.85786 1.5 0.5 4.85786 0.5 9H-0.5ZM202.5 58.5C202.5 63.1944 198.694 67 194 67H8C3.30558 67 -0.5 63.1944 -0.5 58.5L0.5 57C0.5 60.3137 3.85786 63 8 63H194C198.142 63 201.5 60.3137 201.5 57L202.5 58.5ZM8 67C3.30558 67 -0.5 63.1944 -0.5 58.5V9C-0.5 4.30558 3.30558 0.5 8 0.5V1.5C3.85786 1.5 0.5 4.85786 0.5 9V57C0.5 60.3137 3.85786 63 8 63V67ZM194 0.5C198.694 0.5 202.5 4.30558 202.5 9V58.5C202.5 63.1944 198.694 67 194 67V63C198.142 63 201.5 60.3137 201.5 57V9C201.5 4.85786 198.142 1.5 194 1.5V0.5Z" fill="#009BD5"/>
<path d="M33.104 41.168C32.656 41.184 32.304 41.064 32.048 40.808C31.792 40.552 31.664 40.224 31.664 39.824C31.664 39.52 31.76 39.256 31.952 39.032C32.128 38.792 32.392 38.664 32.744 38.648L33.464 38.6C34.168 38.552 34.696 38.336 35.048 37.952C35.416 37.552 35.6 36.984 35.6 36.248V25.448C35.6 24.936 35.728 24.552 35.984 24.296C36.256 24.024 36.64 23.888 37.136 23.888C37.632 23.888 38.008 24.024 38.264 24.296C38.536 24.552 38.672 24.936 38.672 25.448V36.224C38.672 37.232 38.488 38.088 38.12 38.792C37.768 39.496 37.24 40.048 36.536 40.448C35.832 40.832 34.96 41.056 33.92 41.12L33.104 41.168ZM47.3964 41.24C46.1804 41.24 45.1244 40.992 44.2284 40.496C43.3324 40 42.6364 39.296 42.1404 38.384C41.6444 37.456 41.3964 36.368 41.3964 35.12C41.3964 34.176 41.5324 33.336 41.8044 32.6C42.0924 31.848 42.5004 31.208 43.0284 30.68C43.5564 30.136 44.1884 29.728 44.9244 29.456C45.6604 29.168 46.4844 29.024 47.3964 29.024C48.6124 29.024 49.6684 29.272 50.5644 29.768C51.4604 30.264 52.1564 30.968 52.6524 31.88C53.1484 32.792 53.3964 33.872 53.3964 35.12C53.3964 36.064 53.2524 36.912 52.9644 37.664C52.6924 38.416 52.2924 39.064 51.7644 39.608C51.2364 40.136 50.6044 40.544 49.8684 40.832C49.1324 41.104 48.3084 41.24 47.3964 41.24ZM47.3964 38.96C47.9884 38.96 48.5084 38.816 48.9564 38.528C49.4044 38.24 49.7484 37.816 49.9884 37.256C50.2444 36.68 50.3724 35.968 50.3724 35.12C50.3724 33.84 50.1004 32.888 49.5564 32.264C49.0124 31.624 48.2924 31.304 47.3964 31.304C46.8044 31.304 46.2844 31.448 45.8364 31.736C45.3884 32.008 45.0364 32.432 44.7804 33.008C44.5404 33.568 44.4204 34.272 44.4204 35.12C44.4204 36.384 44.6924 37.344 45.2364 38C45.7804 38.64 46.5004 38.96 47.3964 38.96ZM57.3605 41.168C56.8805 41.168 56.5125 41.024 56.2565 40.736C56.0005 40.448 55.8725 40.048 55.8725 39.536V30.728C55.8725 30.2 56.0005 29.8 56.2565 29.528C56.5125 29.24 56.8805 29.096 57.3605 29.096C57.8405 29.096 58.2085 29.24 58.4645 29.528C58.7365 29.8 58.8725 30.2 58.8725 30.728V39.536C58.8725 40.048 58.7445 40.448 58.4885 40.736C58.2325 41.024 57.8565 41.168 57.3605 41.168ZM57.3605 26.864C56.8005 26.864 56.3605 26.728 56.0405 26.456C55.7365 26.168 55.5845 25.776 55.5845 25.28C55.5845 24.768 55.7365 24.376 56.0405 24.104C56.3605 23.832 56.8005 23.696 57.3605 23.696C57.9365 23.696 58.3765 23.832 58.6805 24.104C58.9845 24.376 59.1365 24.768 59.1365 25.28C59.1365 25.776 58.9845 26.168 58.6805 26.456C58.3765 26.728 57.9365 26.864 57.3605 26.864ZM63.4777 41.192C62.9977 41.192 62.6297 41.064 62.3737 40.808C62.1177 40.536 61.9897 40.152 61.9897 39.656V30.584C61.9897 30.088 62.1177 29.712 62.3737 29.456C62.6297 29.2 62.9897 29.072 63.4537 29.072C63.9177 29.072 64.2777 29.2 64.5337 29.456C64.7897 29.712 64.9177 30.088 64.9177 30.584V32.216L64.6537 31.616C65.0057 30.768 65.5497 30.128 66.2857 29.696C67.0377 29.248 67.8857 29.024 68.8297 29.024C69.7737 29.024 70.5497 29.2 71.1577 29.552C71.7657 29.904 72.2217 30.44 72.5257 31.16C72.8297 31.864 72.9817 32.76 72.9817 33.848V39.656C72.9817 40.152 72.8537 40.536 72.5977 40.808C72.3417 41.064 71.9737 41.192 71.4937 41.192C71.0137 41.192 70.6377 41.064 70.3657 40.808C70.1097 40.536 69.9817 40.152 69.9817 39.656V33.992C69.9817 33.08 69.8057 32.416 69.4537 32C69.1177 31.584 68.5897 31.376 67.8697 31.376C66.9897 31.376 66.2857 31.656 65.7577 32.216C65.2457 32.76 64.9897 33.488 64.9897 34.4V39.656C64.9897 40.68 64.4857 41.192 63.4777 41.192ZM88.7844 41.192C88.3524 41.192 88.0004 41.088 87.7284 40.88C87.4724 40.672 87.2644 40.344 87.1044 39.896L82.0884 25.712C81.9124 25.2 81.9444 24.768 82.1844 24.416C82.4404 24.064 82.8644 23.888 83.4564 23.888C83.8884 23.888 84.2244 23.992 84.4644 24.2C84.7044 24.392 84.8964 24.704 85.0404 25.136L89.3604 37.952H88.4004L92.9124 25.16C93.0724 24.728 93.2724 24.408 93.5124 24.2C93.7524 23.992 94.0644 23.888 94.4484 23.888C94.8324 23.888 95.1364 23.992 95.3604 24.2C95.5844 24.408 95.7764 24.736 95.9364 25.184L100.304 37.952H99.4644L103.856 25.136C104 24.72 104.192 24.408 104.432 24.2C104.672 23.992 105 23.888 105.416 23.888C105.928 23.888 106.304 24.064 106.544 24.416C106.784 24.768 106.816 25.2 106.64 25.712L101.576 39.92C101.416 40.352 101.208 40.672 100.952 40.88C100.696 41.088 100.352 41.192 99.9204 41.192C99.4884 41.192 99.1444 41.088 98.8884 40.88C98.6324 40.672 98.4244 40.344 98.2644 39.896L94.0884 27.992H94.6404L90.4164 39.92C90.2564 40.352 90.0484 40.672 89.7924 40.88C89.5524 41.088 89.2164 41.192 88.7844 41.192ZM111.697 41.24C110.849 41.24 110.089 41.08 109.417 40.76C108.761 40.424 108.241 39.976 107.857 39.416C107.489 38.856 107.305 38.224 107.305 37.52C107.305 36.656 107.529 35.976 107.977 35.48C108.425 34.968 109.153 34.6 110.161 34.376C111.169 34.152 112.521 34.04 114.217 34.04H115.417V35.768H114.241C113.249 35.768 112.457 35.816 111.865 35.912C111.273 36.008 110.849 36.176 110.593 36.416C110.353 36.64 110.233 36.96 110.233 37.376C110.233 37.904 110.417 38.336 110.785 38.672C111.153 39.008 111.665 39.176 112.321 39.176C112.849 39.176 113.313 39.056 113.713 38.816C114.129 38.56 114.457 38.216 114.697 37.784C114.937 37.352 115.057 36.856 115.057 36.296V33.536C115.057 32.736 114.881 32.16 114.529 31.808C114.177 31.456 113.585 31.28 112.753 31.28C112.289 31.28 111.785 31.336 111.241 31.448C110.713 31.56 110.153 31.752 109.561 32.024C109.257 32.168 108.985 32.208 108.745 32.144C108.521 32.08 108.345 31.952 108.217 31.76C108.089 31.552 108.025 31.328 108.025 31.088C108.025 30.848 108.089 30.616 108.217 30.392C108.345 30.152 108.561 29.976 108.865 29.864C109.601 29.56 110.305 29.344 110.977 29.216C111.665 29.088 112.289 29.024 112.849 29.024C114.001 29.024 114.945 29.2 115.681 29.552C116.433 29.904 116.993 30.44 117.361 31.16C117.729 31.864 117.913 32.776 117.913 33.896V39.656C117.913 40.152 117.793 40.536 117.553 40.808C117.313 41.064 116.969 41.192 116.521 41.192C116.073 41.192 115.721 41.064 115.465 40.808C115.225 40.536 115.105 40.152 115.105 39.656V38.504H115.297C115.185 39.064 114.961 39.552 114.625 39.968C114.305 40.368 113.897 40.68 113.401 40.904C112.905 41.128 112.337 41.24 111.697 41.24ZM122.446 41.168C121.966 41.168 121.598 41.024 121.342 40.736C121.086 40.448 120.958 40.048 120.958 39.536V30.728C120.958 30.2 121.086 29.8 121.342 29.528C121.598 29.24 121.966 29.096 122.446 29.096C122.926 29.096 123.294 29.24 123.55 29.528C123.822 29.8 123.958 30.2 123.958 30.728V39.536C123.958 40.048 123.83 40.448 123.574 40.736C123.318 41.024 122.942 41.168 122.446 41.168ZM122.446 26.864C121.886 26.864 121.446 26.728 121.126 26.456C120.822 26.168 120.67 25.776 120.67 25.28C120.67 24.768 120.822 24.376 121.126 24.104C121.446 23.832 121.886 23.696 122.446 23.696C123.022 23.696 123.462 23.832 123.766 24.104C124.07 24.376 124.222 24.768 124.222 25.28C124.222 25.776 124.07 26.168 123.766 26.456C123.462 26.728 123.022 26.864 122.446 26.864ZM132.452 41.24C131.412 41.24 130.54 41.064 129.836 40.712C129.148 40.36 128.636 39.848 128.3 39.176C127.964 38.488 127.796 37.64 127.796 36.632V31.52H126.548C126.164 31.52 125.868 31.424 125.66 31.232C125.452 31.024 125.348 30.744 125.348 30.392C125.348 30.024 125.452 29.744 125.66 29.552C125.868 29.36 126.164 29.264 126.548 29.264H127.796V27.08C127.796 26.584 127.924 26.208 128.18 25.952C128.452 25.696 128.828 25.568 129.308 25.568C129.788 25.568 130.156 25.696 130.412 25.952C130.668 26.208 130.796 26.584 130.796 27.08V29.264H133.34C133.724 29.264 134.02 29.36 134.228 29.552C134.436 29.744 134.54 30.024 134.54 30.392C134.54 30.744 134.436 31.024 134.228 31.232C134.02 31.424 133.724 31.52 133.34 31.52H130.796V36.464C130.796 37.232 130.964 37.808 131.3 38.192C131.636 38.576 132.18 38.768 132.932 38.768C133.204 38.768 133.444 38.744 133.652 38.696C133.86 38.648 134.044 38.616 134.204 38.6C134.396 38.584 134.556 38.648 134.684 38.792C134.812 38.92 134.876 39.192 134.876 39.608C134.876 39.928 134.82 40.216 134.708 40.472C134.612 40.712 134.428 40.88 134.156 40.976C133.948 41.04 133.676 41.096 133.34 41.144C133.004 41.208 132.708 41.24 132.452 41.24ZM140.599 41.24C139.271 41.24 138.271 40.864 137.599 40.112C136.927 39.344 136.591 38.224 136.591 36.752V25.4C136.591 24.904 136.719 24.528 136.975 24.272C137.231 24.016 137.599 23.888 138.079 23.888C138.559 23.888 138.927 24.016 139.183 24.272C139.455 24.528 139.591 24.904 139.591 25.4V36.608C139.591 37.344 139.743 37.888 140.047 38.24C140.367 38.592 140.815 38.768 141.391 38.768C141.519 38.768 141.639 38.768 141.751 38.768C141.863 38.752 141.975 38.736 142.087 38.72C142.311 38.688 142.463 38.752 142.543 38.912C142.623 39.056 142.663 39.36 142.663 39.824C142.663 40.224 142.583 40.536 142.423 40.76C142.263 40.984 141.999 41.12 141.631 41.168C141.471 41.184 141.303 41.2 141.127 41.216C140.951 41.232 140.775 41.24 140.599 41.24ZM145.743 41.168C145.263 41.168 144.895 41.024 144.639 40.736C144.383 40.448 144.255 40.048 144.255 39.536V30.728C144.255 30.2 144.383 29.8 144.639 29.528C144.895 29.24 145.263 29.096 145.743 29.096C146.223 29.096 146.591 29.24 146.847 29.528C147.119 29.8 147.255 30.2 147.255 30.728V39.536C147.255 40.048 147.127 40.448 146.871 40.736C146.615 41.024 146.239 41.168 145.743 41.168ZM145.743 26.864C145.183 26.864 144.743 26.728 144.423 26.456C144.119 26.168 143.967 25.776 143.967 25.28C143.967 24.768 144.119 24.376 144.423 24.104C144.743 23.832 145.183 23.696 145.743 23.696C146.319 23.696 146.759 23.832 147.063 24.104C147.367 24.376 147.519 24.768 147.519 25.28C147.519 25.776 147.367 26.168 147.063 26.456C146.759 26.728 146.319 26.864 145.743 26.864ZM154.669 41.24C153.981 41.24 153.253 41.168 152.485 41.024C151.717 40.88 151.029 40.632 150.421 40.28C150.165 40.12 149.981 39.936 149.869 39.728C149.773 39.504 149.733 39.288 149.749 39.08C149.781 38.856 149.861 38.664 149.989 38.504C150.133 38.344 150.309 38.24 150.517 38.192C150.741 38.144 150.981 38.184 151.237 38.312C151.877 38.616 152.477 38.832 153.037 38.96C153.597 39.072 154.149 39.128 154.693 39.128C155.461 39.128 156.029 39 156.397 38.744C156.781 38.472 156.973 38.12 156.973 37.688C156.973 37.32 156.845 37.04 156.589 36.848C156.349 36.64 155.981 36.488 155.485 36.392L153.085 35.936C152.093 35.744 151.333 35.384 150.805 34.856C150.293 34.312 150.037 33.616 150.037 32.768C150.037 32 150.245 31.336 150.661 30.776C151.093 30.216 151.685 29.784 152.437 29.48C153.189 29.176 154.053 29.024 155.029 29.024C155.733 29.024 156.389 29.104 156.997 29.264C157.621 29.408 158.221 29.64 158.797 29.96C159.037 30.088 159.197 30.256 159.277 30.464C159.373 30.672 159.397 30.888 159.349 31.112C159.301 31.32 159.205 31.512 159.061 31.688C158.917 31.848 158.733 31.952 158.509 32C158.301 32.032 158.061 31.984 157.789 31.856C157.293 31.6 156.813 31.416 156.349 31.304C155.901 31.192 155.469 31.136 155.053 31.136C154.269 31.136 153.685 31.272 153.301 31.544C152.933 31.816 152.749 32.176 152.749 32.624C152.749 32.96 152.861 33.24 153.085 33.464C153.309 33.688 153.653 33.84 154.117 33.92L156.517 34.376C157.557 34.568 158.341 34.92 158.869 35.432C159.413 35.944 159.685 36.632 159.685 37.496C159.685 38.664 159.229 39.584 158.317 40.256C157.405 40.912 156.189 41.24 154.669 41.24ZM167.35 41.24C166.31 41.24 165.438 41.064 164.734 40.712C164.046 40.36 163.534 39.848 163.198 39.176C162.862 38.488 162.694 37.64 162.694 36.632V31.52H161.446C161.062 31.52 160.766 31.424 160.558 31.232C160.35 31.024 160.246 30.744 160.246 30.392C160.246 30.024 160.35 29.744 160.558 29.552C160.766 29.36 161.062 29.264 161.446 29.264H162.694V27.08C162.694 26.584 162.822 26.208 163.078 25.952C163.35 25.696 163.726 25.568 164.206 25.568C164.686 25.568 165.054 25.696 165.31 25.952C165.566 26.208 165.694 26.584 165.694 27.08V29.264H168.238C168.622 29.264 168.918 29.36 169.126 29.552C169.334 29.744 169.438 30.024 169.438 30.392C169.438 30.744 169.334 31.024 169.126 31.232C168.918 31.424 168.622 31.52 168.238 31.52H165.694V36.464C165.694 37.232 165.862 37.808 166.198 38.192C166.534 38.576 167.078 38.768 167.83 38.768C168.102 38.768 168.342 38.744 168.55 38.696C168.758 38.648 168.942 38.616 169.102 38.6C169.294 38.584 169.454 38.648 169.582 38.792C169.71 38.92 169.774 39.192 169.774 39.608C169.774 39.928 169.718 40.216 169.606 40.472C169.51 40.712 169.326 40.88 169.054 40.976C168.846 41.04 168.574 41.096 168.238 41.144C167.902 41.208 167.606 41.24 167.35 41.24Z" fill="#181818"/>
</svg>
