<svg width="146" height="53" viewBox="0 0 146 53" fill="none" xmlns="http://www.w3.org/2000/svg">
<mask id="path-1-outside-1_223_2619" maskUnits="userSpaceOnUse" x="0" y="0" width="146" height="53" fill="black">
<rect fill="white" width="146" height="53"/>
<path d="M1 9C1 4.58172 4.58172 1 9 1H137C141.418 1 145 4.58172 145 9V41C145 45.4183 141.418 49 137 49H9C4.58173 49 1 45.4183 1 41V9Z"/>
</mask>
<path d="M1 9C1 4.58172 4.58172 1 9 1H137C141.418 1 145 4.58172 145 9V41C145 45.4183 141.418 49 137 49H9C4.58173 49 1 45.4183 1 41V9Z" fill="#009BD5"/>
<path d="M0 9C0 4.02944 4.02944 0 9 0H137C141.971 0 146 4.02944 146 9H144C144 5.13401 140.866 2 137 2H9C5.13401 2 2 5.13401 2 9H0ZM146 44C146 48.9706 141.971 53 137 53H9C4.02944 53 0 48.9706 0 44L2 41C2 43.2091 5.13401 45 9 45H137C140.866 45 144 43.2091 144 41L146 44ZM9 53C4.02944 53 0 48.9706 0 44V9C0 4.02944 4.02944 0 9 0V2C5.13401 2 2 5.13401 2 9V41C2 43.2091 5.13401 45 9 45V53ZM137 0C141.971 0 146 4.02944 146 9V44C146 48.9706 141.971 53 137 53V45C140.866 45 144 43.2091 144 41V9C144 5.13401 140.866 2 137 2V0Z" fill="#00658D" mask="url(#path-1-outside-1_223_2619)"/>
<path d="M28.9965 16C29.387 16 29.7098 16.2901 29.7609 16.6666L29.768 16.7713L29.7692 24.2289H37.2287C37.6547 24.2289 38 24.5743 38 25.0004C38 25.3909 37.7098 25.7137 37.3333 25.7648L37.2287 25.7718H29.7692L29.7713 33.2284C29.7714 33.6544 29.4262 34 29.0002 34C28.6097 34 28.2869 33.7099 28.2357 33.3334L28.2287 33.2287L28.2266 25.7718H20.7713C20.3453 25.7718 20 25.4264 20 25.0004C20 24.6098 20.2902 24.287 20.6667 24.236L20.7713 24.2289H28.2266L28.2253 16.7716C28.2252 16.3456 28.5705 16 28.9965 16Z" fill="#001E2D"/>
<path d="M57.304 31L62.28 19.72H63.4L68.376 31H67.016L65.624 27.784L66.264 28.12H59.384L60.04 27.784L58.664 31H57.304ZM62.824 21.256L60.248 27.32L59.864 27.016H65.784L65.432 27.32L62.856 21.256H62.824ZM73.2541 31.144C72.5608 31.144 71.9528 30.9787 71.4301 30.648C70.9181 30.3173 70.5181 29.8533 70.2301 29.256C69.9528 28.648 69.8141 27.9333 69.8141 27.112C69.8141 26.28 69.9528 25.5653 70.2301 24.968C70.5181 24.36 70.9181 23.896 71.4301 23.576C71.9528 23.2453 72.5608 23.08 73.2541 23.08C73.9581 23.08 74.5608 23.256 75.0621 23.608C75.5635 23.96 75.8995 24.4347 76.0701 25.032H75.8941V19.72H77.1901V31H75.9261V29.144H76.0861C75.9155 29.752 75.5741 30.2373 75.0621 30.6C74.5608 30.9627 73.9581 31.144 73.2541 31.144ZM73.5261 30.104C74.2621 30.104 74.8435 29.848 75.2701 29.336C75.7075 28.8133 75.9261 28.072 75.9261 27.112C75.9261 26.1413 75.7075 25.4 75.2701 24.888C74.8435 24.376 74.2621 24.12 73.5261 24.12C72.8008 24.12 72.2195 24.376 71.7821 24.888C71.3448 25.4 71.1261 26.1413 71.1261 27.112C71.1261 28.072 71.3448 28.8133 71.7821 29.336C72.2195 29.848 72.8008 30.104 73.5261 30.104ZM83.0823 31.144C82.3889 31.144 81.7809 30.9787 81.2582 30.648C80.7463 30.3173 80.3463 29.8533 80.0583 29.256C79.7809 28.648 79.6423 27.9333 79.6423 27.112C79.6423 26.28 79.7809 25.5653 80.0583 24.968C80.3463 24.36 80.7463 23.896 81.2582 23.576C81.7809 23.2453 82.3889 23.08 83.0823 23.08C83.7863 23.08 84.3889 23.256 84.8903 23.608C85.3916 23.96 85.7276 24.4347 85.8983 25.032H85.7223V19.72H87.0183V31H85.7543V29.144H85.9143C85.7436 29.752 85.4023 30.2373 84.8903 30.6C84.3889 30.9627 83.7863 31.144 83.0823 31.144ZM83.3543 30.104C84.0903 30.104 84.6716 29.848 85.0983 29.336C85.5356 28.8133 85.7543 28.072 85.7543 27.112C85.7543 26.1413 85.5356 25.4 85.0983 24.888C84.6716 24.376 84.0903 24.12 83.3543 24.12C82.6289 24.12 82.0476 24.376 81.6103 24.888C81.1729 25.4 80.9543 26.1413 80.9543 27.112C80.9543 28.072 81.1729 28.8133 81.6103 29.336C82.0476 29.848 82.6289 30.104 83.3543 30.104ZM94.7358 31V19.72H95.7598L102.944 29.304H102.56V19.72H103.776V31H102.784L95.5998 21.416H95.9678V31H94.7358ZM110.408 31.144C109.586 31.144 108.877 30.984 108.28 30.664C107.693 30.3333 107.234 29.8693 106.904 29.272C106.584 28.6747 106.424 27.96 106.424 27.128C106.424 26.3173 106.584 25.6133 106.904 25.016C107.224 24.408 107.661 23.9333 108.216 23.592C108.781 23.2507 109.432 23.08 110.168 23.08C110.872 23.08 111.474 23.2347 111.976 23.544C112.477 23.8533 112.861 24.2907 113.128 24.856C113.405 25.4213 113.544 26.0987 113.544 26.888V27.384H107.416V26.536H112.68L112.424 26.744C112.424 25.8907 112.232 25.2293 111.848 24.76C111.474 24.28 110.925 24.04 110.2 24.04C109.656 24.04 109.192 24.168 108.808 24.424C108.434 24.6693 108.152 25.016 107.96 25.464C107.768 25.9013 107.672 26.4133 107.672 27V27.096C107.672 27.7467 107.773 28.296 107.976 28.744C108.189 29.192 108.504 29.5333 108.92 29.768C109.336 29.992 109.832 30.104 110.408 30.104C110.866 30.104 111.309 30.0347 111.736 29.896C112.173 29.7467 112.584 29.5067 112.968 29.176L113.416 30.088C113.064 30.408 112.616 30.664 112.072 30.856C111.528 31.048 110.973 31.144 110.408 31.144ZM117.889 31L114.993 23.224H116.353L118.737 30.04H118.353L120.817 23.224H121.921L124.337 30.04H123.969L126.385 23.224H127.681L124.769 31H123.537L120.993 24.008H121.681L119.137 31H117.889Z" fill="#00293C"/>
</svg>
