<svg width="33" height="32" viewBox="0 0 33 32" fill="none" xmlns="http://www.w3.org/2000/svg">
<path d="M6.49951 5H8.48951C9.54333 5 10.4076 5.8164 10.484 6.85081L10.4895 7V25C10.4895 26.0538 9.67311 26.9181 8.6387 26.9945L8.48951 27H6.49951C5.44569 27 4.5814 26.1836 4.505 25.1492L4.49951 25V7C4.49951 5.94618 5.31591 5.08188 6.35032 5.00549L6.49951 5H8.48951H6.49951ZM13.4945 5H15.4895C16.5433 5 17.4076 5.8164 17.484 6.85081L17.4895 7V25C17.4895 26.0538 16.6731 26.9181 15.6387 26.9945L15.4895 27H13.4945C12.4397 27 11.5763 26.1836 11.5 25.1492L11.4945 25V7C11.4945 5.94618 12.31 5.08188 13.3452 5.00549L13.4945 5H15.4895H13.4945ZM22.6301 7.0264C23.4734 7.0264 24.2458 7.56409 24.523 8.38602L24.5691 8.5434L28.4291 24.0264C28.6849 25.0487 28.1025 26.0847 27.1166 26.4099L26.9731 26.4514L25.0101 26.9404C24.8481 26.9804 24.6851 27.0004 24.5251 27.0004C23.6809 27.0004 22.9093 26.4618 22.6322 25.6406L22.5861 25.4834L18.7251 10.0004C18.4702 8.97617 19.0527 7.94101 20.0386 7.6168L20.1821 7.5754L22.1451 7.0864C22.3071 7.0464 22.4701 7.0264 22.6301 7.0264ZM8.48951 6.5H6.49951C6.25507 6.5 6.05013 6.67778 6.0076 6.91043L5.99951 7V25C5.99951 25.2444 6.17729 25.4494 6.40994 25.4919L6.49951 25.5H8.48951C8.73484 25.5 8.93909 25.3222 8.98145 25.0896L8.98951 25V7C8.98951 6.75556 8.81252 6.55062 8.57935 6.50809L8.48951 6.5ZM15.4895 6.5H13.4945C13.2492 6.5 13.0449 6.67778 13.0026 6.91043L12.9945 7V25C12.9945 25.2444 13.1715 25.4494 13.4047 25.4919L13.4945 25.5H15.4895C15.7348 25.5 15.9391 25.3222 15.9815 25.0896L15.9895 25V7C15.9895 6.75556 15.8125 6.55062 15.5794 6.50809L15.4895 6.5ZM22.6301 8.5264L22.5686 8.53015L22.5071 8.5414L20.5451 9.0304C20.3069 9.08996 20.1516 9.31149 20.1671 9.5475L20.1811 9.6364L24.0411 25.1204C24.1061 25.3804 24.3381 25.5004 24.5251 25.5004L24.5865 25.4965L24.6471 25.4844L26.6101 24.9954C26.8483 24.9358 27.0036 24.7151 26.9881 24.4786L26.9741 24.3894L23.1131 8.9054C23.0481 8.6444 22.8171 8.5264 22.6301 8.5264Z" fill="white"/>
</svg>
