<svg width="270" height="53" viewBox="0 0 270 53" fill="none" xmlns="http://www.w3.org/2000/svg">
<mask id="path-1-outside-1_168_1548" maskUnits="userSpaceOnUse" x="0" y="0" width="270" height="53" fill="black">
<rect fill="white" width="270" height="53"/>
<path d="M1 9C1 4.58172 4.58172 1 9 1H261C265.418 1 269 4.58172 269 9V41C269 45.4183 265.418 49 261 49H8.99999C4.58172 49 1 45.4183 1 41V9Z"/>
</mask>
<path d="M1 9C1 4.58172 4.58172 1 9 1H261C265.418 1 269 4.58172 269 9V41C269 45.4183 265.418 49 261 49H8.99999C4.58172 49 1 45.4183 1 41V9Z" fill="#101113"/>
<path d="M0 9C0 4.02944 4.02944 0 9 0H261C265.971 0 270 4.02944 270 9H268C268 5.13401 264.866 2 261 2H9C5.13401 2 2 5.13401 2 9H0ZM270 44C270 48.9706 265.971 53 261 53H9C4.02944 53 0 48.9706 0 44L2 41C2 43.2091 5.13401 45 9 45H261C264.866 45 268 43.2091 268 41L270 44ZM9 53C4.02944 53 0 48.9706 0 44V9C0 4.02944 4.02944 0 9 0V2C5.13401 2 2 5.13401 2 9V41C2 43.2091 5.13401 45 9 45V53ZM261 0C265.971 0 270 4.02944 270 9V44C270 48.9706 265.971 53 261 53V45C264.866 45 268 43.2091 268 41V9C268 5.13401 264.866 2 261 2V0Z" fill="#3A3B3D" mask="url(#path-1-outside-1_168_1548)"/>
<path d="M23.272 30.144C22.1627 30.144 21.2133 29.9093 20.424 29.44C19.6347 28.9707 19.0267 28.304 18.6 27.44C18.184 26.576 17.976 25.5467 17.976 24.352C17.976 23.1573 18.184 22.1333 18.6 21.28C19.0267 20.416 19.6347 19.7493 20.424 19.28C21.2133 18.8107 22.1627 18.576 23.272 18.576C24.0507 18.576 24.7707 18.6987 25.432 18.944C26.0933 19.1893 26.648 19.5467 27.096 20.016L26.584 21.088C26.0933 20.6293 25.5813 20.2987 25.048 20.096C24.5253 19.8827 23.944 19.776 23.304 19.776C22.0347 19.776 21.064 20.176 20.392 20.976C19.72 21.776 19.384 22.9013 19.384 24.352C19.384 25.8027 19.72 26.9333 20.392 27.744C21.064 28.544 22.0347 28.944 23.304 28.944C23.944 28.944 24.5253 28.8427 25.048 28.64C25.5813 28.4267 26.0933 28.0907 26.584 27.632L27.096 28.704C26.648 29.1627 26.0933 29.52 25.432 29.776C24.7707 30.0213 24.0507 30.144 23.272 30.144ZM31.8656 30.144C31.0763 30.144 30.479 29.9093 30.0736 29.44C29.679 28.9707 29.4816 28.2987 29.4816 27.424V18.72H30.7776V27.328C30.7776 27.7013 30.8256 28.016 30.9216 28.272C31.0283 28.528 31.183 28.72 31.3856 28.848C31.5883 28.976 31.839 29.04 32.1376 29.04C32.2656 29.04 32.3883 29.0347 32.5056 29.024C32.6336 29.0027 32.751 28.976 32.8576 28.944L32.8256 30.032C32.655 30.064 32.4896 30.0907 32.3296 30.112C32.1803 30.1333 32.0256 30.144 31.8656 30.144ZM37.164 30.144C36.6307 30.144 36.1507 30.0427 35.724 29.84C35.308 29.6267 34.9773 29.3387 34.732 28.976C34.4867 28.6133 34.364 28.208 34.364 27.76C34.364 27.184 34.508 26.7307 34.796 26.4C35.0947 26.0693 35.58 25.8347 36.252 25.696C36.9347 25.5573 37.8627 25.488 39.036 25.488H39.756V26.336H39.052C38.4013 26.336 37.8573 26.3573 37.42 26.4C36.9827 26.4427 36.636 26.5173 36.38 26.624C36.124 26.7307 35.9427 26.8693 35.836 27.04C35.7293 27.2107 35.676 27.424 35.676 27.68C35.676 28.1173 35.8253 28.4747 36.124 28.752C36.4333 29.0293 36.8493 29.168 37.372 29.168C37.7987 29.168 38.172 29.0667 38.492 28.864C38.8227 28.6613 39.0787 28.384 39.26 28.032C39.452 27.68 39.548 27.2747 39.548 26.816V24.992C39.548 24.3307 39.4147 23.856 39.148 23.568C38.8813 23.2693 38.444 23.12 37.836 23.12C37.3667 23.12 36.9133 23.1893 36.476 23.328C36.0387 23.456 35.5907 23.6693 35.132 23.968L34.684 23.024C34.9613 22.832 35.276 22.6667 35.628 22.528C35.98 22.3787 36.348 22.2667 36.732 22.192C37.116 22.1173 37.484 22.08 37.836 22.08C38.508 22.08 39.0627 22.192 39.5 22.416C39.9373 22.6293 40.2627 22.96 40.476 23.408C40.6893 23.8453 40.796 24.4107 40.796 25.104V30H39.58V28.192H39.724C39.6387 28.5973 39.4733 28.944 39.228 29.232C38.9933 29.52 38.7 29.744 38.348 29.904C37.996 30.064 37.6013 30.144 37.164 30.144ZM46.3244 30.144C45.919 30.144 45.5244 30.1013 45.1404 30.016C44.767 29.9413 44.415 29.8347 44.0844 29.696C43.7644 29.5467 43.487 29.3707 43.2524 29.168L43.6684 28.256C43.9244 28.4587 44.2017 28.6293 44.5004 28.768C44.799 28.896 45.103 28.992 45.4124 29.056C45.7217 29.12 46.0364 29.152 46.3564 29.152C46.9644 29.152 47.423 29.04 47.7324 28.816C48.0417 28.592 48.1964 28.288 48.1964 27.904C48.1964 27.6053 48.095 27.3707 47.8924 27.2C47.6897 27.0187 47.3697 26.88 46.9324 26.784L45.4764 26.464C44.8044 26.3253 44.303 26.0853 43.9724 25.744C43.6524 25.4027 43.4924 24.96 43.4924 24.416C43.4924 23.936 43.615 23.5253 43.8604 23.184C44.1164 22.832 44.4737 22.56 44.9324 22.368C45.391 22.176 45.9244 22.08 46.5324 22.08C46.895 22.08 47.2417 22.1173 47.5724 22.192C47.903 22.2667 48.2124 22.3787 48.5004 22.528C48.799 22.6667 49.055 22.8427 49.2684 23.056L48.8364 23.968C48.6337 23.776 48.4044 23.616 48.1484 23.488C47.8924 23.3493 47.6257 23.248 47.3484 23.184C47.0817 23.1093 46.8097 23.072 46.5324 23.072C45.935 23.072 45.4817 23.1893 45.1724 23.424C44.863 23.6587 44.7084 23.968 44.7084 24.352C44.7084 24.6507 44.8044 24.896 44.9964 25.088C45.1884 25.28 45.487 25.4187 45.8924 25.504L47.3484 25.808C48.0417 25.9573 48.559 26.1973 48.9004 26.528C49.2524 26.848 49.4284 27.2853 49.4284 27.84C49.4284 28.3093 49.3004 28.72 49.0444 29.072C48.7884 29.4133 48.4257 29.68 47.9564 29.872C47.4977 30.0533 46.9537 30.144 46.3244 30.144ZM54.5275 30.144C54.1222 30.144 53.7275 30.1013 53.3435 30.016C52.9702 29.9413 52.6182 29.8347 52.2875 29.696C51.9675 29.5467 51.6902 29.3707 51.4555 29.168L51.8715 28.256C52.1275 28.4587 52.4048 28.6293 52.7035 28.768C53.0022 28.896 53.3062 28.992 53.6155 29.056C53.9248 29.12 54.2395 29.152 54.5595 29.152C55.1675 29.152 55.6262 29.04 55.9355 28.816C56.2448 28.592 56.3995 28.288 56.3995 27.904C56.3995 27.6053 56.2982 27.3707 56.0955 27.2C55.8928 27.0187 55.5728 26.88 55.1355 26.784L53.6795 26.464C53.0075 26.3253 52.5062 26.0853 52.1755 25.744C51.8555 25.4027 51.6955 24.96 51.6955 24.416C51.6955 23.936 51.8182 23.5253 52.0635 23.184C52.3195 22.832 52.6768 22.56 53.1355 22.368C53.5942 22.176 54.1275 22.08 54.7355 22.08C55.0982 22.08 55.4448 22.1173 55.7755 22.192C56.1062 22.2667 56.4155 22.3787 56.7035 22.528C57.0022 22.6667 57.2582 22.8427 57.4715 23.056L57.0395 23.968C56.8368 23.776 56.6075 23.616 56.3515 23.488C56.0955 23.3493 55.8288 23.248 55.5515 23.184C55.2848 23.1093 55.0128 23.072 54.7355 23.072C54.1382 23.072 53.6848 23.1893 53.3755 23.424C53.0662 23.6587 52.9115 23.968 52.9115 24.352C52.9115 24.6507 53.0075 24.896 53.1995 25.088C53.3915 25.28 53.6902 25.4187 54.0955 25.504L55.5515 25.808C56.2448 25.9573 56.7622 26.1973 57.1035 26.528C57.4555 26.848 57.6315 27.2853 57.6315 27.84C57.6315 28.3093 57.5035 28.72 57.2475 29.072C56.9915 29.4133 56.6288 29.68 56.1595 29.872C55.7008 30.0533 55.1568 30.144 54.5275 30.144ZM68.7 30.144C67.804 30.144 67.0413 29.9307 66.412 29.504C65.7933 29.0667 65.324 28.4373 65.004 27.616C64.684 26.7947 64.524 25.8027 64.524 24.64C64.524 23.3387 64.7 22.24 65.052 21.344C65.4147 20.4373 65.9373 19.7493 66.62 19.28C67.3133 18.8107 68.1347 18.576 69.084 18.576C69.468 18.576 69.8573 18.6347 70.252 18.752C70.6467 18.8587 71.0147 19.0133 71.356 19.216C71.708 19.4187 72.0067 19.6587 72.252 19.936L71.772 20.96C71.3773 20.544 70.9453 20.24 70.476 20.048C70.0173 19.8453 69.5427 19.744 69.052 19.744C68.5293 19.744 68.0653 19.84 67.66 20.032C67.2653 20.224 66.924 20.5173 66.636 20.912C66.3587 21.296 66.1507 21.7813 66.012 22.368C65.8733 22.944 65.804 23.616 65.804 24.384V25.872H65.66C65.724 25.264 65.9 24.7413 66.188 24.304C66.4867 23.856 66.8653 23.5147 67.324 23.28C67.7827 23.0453 68.3 22.928 68.876 22.928C69.5373 22.928 70.124 23.0773 70.636 23.376C71.148 23.6747 71.548 24.096 71.836 24.64C72.124 25.1733 72.268 25.7867 72.268 26.48C72.268 27.184 72.1187 27.8133 71.82 28.368C71.5213 28.9227 71.1 29.36 70.556 29.68C70.012 29.9893 69.3933 30.144 68.7 30.144ZM68.604 29.024C69.0733 29.024 69.4893 28.9227 69.852 28.72C70.2147 28.5067 70.4973 28.2133 70.7 27.84C70.9027 27.456 71.004 27.0187 71.004 26.528C71.004 26.0373 70.9027 25.6053 70.7 25.232C70.4973 24.8587 70.2147 24.5653 69.852 24.352C69.5 24.1387 69.084 24.032 68.604 24.032C68.1347 24.032 67.7187 24.1387 67.356 24.352C66.9933 24.5653 66.7107 24.8587 66.508 25.232C66.3053 25.6053 66.204 26.0373 66.204 26.528C66.204 27.0187 66.3053 27.456 66.508 27.84C66.7107 28.2133 66.9933 28.5067 67.356 28.72C67.7187 28.9227 68.1347 29.024 68.604 29.024Z" fill="white"/>
<path d="M233.22 21.4697C233.513 21.1768 233.987 21.1768 234.28 21.4697L241 28.1893L247.72 21.4697C248.013 21.1768 248.487 21.1768 248.78 21.4697C249.073 21.7626 249.073 22.2374 248.78 22.5303L241.53 29.7803C241.237 30.0732 240.763 30.0732 240.47 29.7803L233.22 22.5303C232.927 22.2374 232.927 21.7626 233.22 21.4697Z" fill="#454749"/>
</svg>
