<svg width="64" height="64" viewBox="0 0 64 64" fill="none" xmlns="http://www.w3.org/2000/svg">
<rect width="64" height="64" rx="32" fill="#21B6F8"/>
<path d="M21 23.75C21 22.2312 22.2312 21 23.75 21H40.25C41.7688 21 43 22.2312 43 23.75V32.4995C42.5384 32.1527 42.0355 31.858 41.5 31.6241V23.75C41.5 23.0596 40.9404 22.5 40.25 22.5H23.75C23.0596 22.5 22.5 23.0596 22.5 23.75V40.25C22.5 40.9404 23.0596 41.5 23.75 41.5H31.6241C31.858 42.0355 32.1527 42.5384 32.4995 43H23.75C22.2312 43 21 41.7688 21 40.25V23.75ZM24.75 33.9981L32.5009 33.9981C32.154 34.4596 31.8591 34.9625 31.6249 35.4981L24.75 35.4981C24.3358 35.4981 24 35.1623 24 34.7481C24 34.3339 24.3358 33.9981 24.75 33.9981ZM24 38.7511C24 38.3369 24.3358 38.0011 24.75 38.0011L30.2523 38.0011C30.6665 38.0011 31.0023 38.3369 31.0023 38.7511C31.0023 39.1653 30.6665 39.5011 30.2523 39.5011L24.75 39.5011C24.3358 39.5011 24 39.1653 24 38.7511ZM29.5017 23.9997C29.803 23.9997 30.075 24.1801 30.1924 24.4577L32.9408 30.9606C33.1021 31.3421 32.9235 31.7821 32.542 31.9434C32.1605 32.1046 31.7204 31.9261 31.5592 31.5445L31.1184 30.5017H27.8821L27.4407 31.5448C27.2793 31.9263 26.8392 32.1047 26.4578 31.9433C26.0763 31.7819 25.8979 31.3418 26.0593 30.9603L28.8108 24.4574C28.9282 24.1799 29.2003 23.9996 29.5017 23.9997ZM28.5168 29.0017H30.4844L29.5011 26.6752L28.5168 29.0017ZM35.75 23.9999C36.1642 23.9999 36.5 24.3357 36.5 24.7499V26H37.7501C38.1643 26 38.5001 26.3358 38.5001 26.75C38.5001 27.1642 38.1643 27.5 37.7501 27.5H36.5V28.7476C36.5 29.1618 36.1642 29.4976 35.75 29.4976C35.3358 29.4976 35 29.1618 35 28.7476V27.5H33.7524C33.3382 27.5 33.0024 27.1642 33.0024 26.75C33.0024 26.3358 33.3382 26 33.7524 26H35V24.7499C35 24.3357 35.3358 23.9999 35.75 23.9999ZM45 38.5C45 42.0899 42.0899 45 38.5 45C34.9101 45 32 42.0899 32 38.5C32 34.9101 34.9101 32 38.5 32C42.0899 32 45 34.9101 45 38.5ZM39 34.5C39 34.2239 38.7761 34 38.5 34C38.2239 34 38 34.2239 38 34.5V38H34.5C34.2239 38 34 38.2239 34 38.5C34 38.7761 34.2239 39 34.5 39H38V42.5C38 42.7761 38.2239 43 38.5 43C38.7761 43 39 42.7761 39 42.5V39H42.5C42.7761 39 43 38.7761 43 38.5C43 38.2239 42.7761 38 42.5 38H39V34.5Z" fill="#001E2D"/>
</svg>
