<svg width="32" height="32" viewBox="0 0 32 32" fill="none" xmlns="http://www.w3.org/2000/svg">
<rect width="32" height="32" fill="black"/>
<path d="M7.99085 26C7.49205 25.6533 7.16177 25.1133 7 24.38C7.44487 24.1267 7.89648 23.82 8.35483 23.46C8.81318 23.1 9.22435 22.72 9.58833 22.32C9.44004 21.6 9.33894 20.6667 9.28501 19.52C9.23109 18.3733 9.20413 16.86 9.20413 14.98H9.22435L9.20413 14.96C9.20413 13.7733 9.21761 12.7667 9.24457 11.94C9.27153 11.1133 9.32545 10.42 9.40634 9.86C9.48723 9.3 9.58833 8.82667 9.70966 8.44C9.84447 8.04 10.013 7.68 10.2152 7.36C10.5118 6.88 10.8758 6.53333 11.3071 6.32C11.752 6.10667 12.2373 6 12.7631 6C13.8146 6 14.6234 6.46 15.1896 7.38C15.7558 8.3 16.0389 9.56667 16.0389 11.18C16.0389 12.34 15.9109 13.4933 15.6547 14.64C15.4121 15.7733 15.0751 16.8533 14.6437 17.88C14.2258 18.9067 13.7472 19.8467 13.208 20.7C12.6687 21.54 12.1093 22.2533 11.5296 22.84C11.5431 22.88 11.5633 22.9267 11.5902 22.98C11.779 23.42 12.0553 23.7533 12.4193 23.98C12.7833 24.1933 13.2012 24.3 13.673 24.3C13.8618 24.3 14.0101 24.38 14.1179 24.54C14.2392 24.6867 14.2999 24.8933 14.2999 25.16C14.2999 25.72 14.0505 26 13.5517 26C12.7833 26 12.1025 25.8333 11.5094 25.5C10.9297 25.1533 10.4983 24.7267 10.2152 24.22C9.9321 24.5133 9.60855 24.8067 9.24457 25.1C8.89407 25.38 8.47616 25.68 7.99085 26ZM11.0038 15.08C11.0038 16.4533 11.0106 17.5933 11.024 18.5C11.051 19.3933 11.0847 20.1333 11.1252 20.72C11.7048 19.9467 12.2306 19.04 12.7024 18C13.1743 16.9467 13.545 15.8333 13.8146 14.66C14.0977 13.4867 14.2392 12.32 14.2392 11.16C14.2392 10.0533 14.1112 9.20667 13.855 8.62C13.5989 8.02 13.2349 7.72 12.7631 7.72C12.2373 7.72 11.8396 8.02667 11.57 8.64C11.4352 8.96 11.3206 9.36667 11.2263 9.86C11.1454 10.34 11.0847 10.9933 11.0443 11.82C11.0173 12.6467 11.0038 13.7333 11.0038 15.08Z" fill="url(#paint0_linear_397_1554)"/>
<path d="M13.5952 26C13.4064 26 13.2581 25.92 13.1503 25.76C13.0424 25.6 12.9885 25.3933 12.9885 25.14C12.9885 24.8867 13.0559 24.6867 13.1907 24.54C13.3121 24.38 13.4873 24.3 13.7165 24.3C14.6736 24.3 15.5903 24.0667 16.4666 23.6C17.3428 23.1333 18.0776 22.5733 18.6707 21.92C18.4955 21.0933 18.3674 20.1067 18.2865 18.96C18.2056 17.8133 18.1652 16.48 18.1652 14.96C18.1652 13.7733 18.1787 12.7667 18.2056 11.94C18.2326 11.1133 18.2865 10.42 18.3674 9.86C18.4483 9.3 18.5494 8.82667 18.6707 8.44C18.8055 8.04 18.974 7.68 19.1763 7.36C19.4728 6.88 19.8368 6.53333 20.2682 6.32C20.7131 6.10667 21.1984 6 21.7241 6C22.7757 6 23.5845 6.46 24.1507 7.38C24.7169 8.3 25 9.56667 25 11.18C25 13.02 24.6225 14.92 23.8676 16.88C23.1127 18.8267 22.0342 20.6933 20.6322 22.48C20.6861 22.64 20.74 22.7867 20.794 22.92C20.9962 23.4 21.259 23.7533 21.5826 23.98C21.9196 24.1933 22.2971 24.3 22.715 24.3C23.2542 24.3 23.7328 24.16 24.1507 23.88C24.5686 24.2133 24.8113 24.6667 24.8787 25.24C24.2451 25.7467 23.4969 26 22.6341 26C22.0275 26 21.4747 25.8667 20.976 25.6C20.4772 25.3333 20.0592 24.9733 19.7222 24.52C19.547 24.28 19.3919 24.0133 19.2571 23.72C18.4618 24.4267 17.599 24.9867 16.6688 25.4C15.7521 25.8 14.7276 26 13.5952 26ZM19.9649 15.08C19.9649 17.2267 20.0458 18.96 20.2075 20.28C21.1916 18.6933 21.9331 17.14 22.4319 15.62C22.9442 14.0867 23.2003 12.6 23.2003 11.16C23.2003 10.0533 23.0722 9.20667 22.8161 8.62C22.56 8.02 22.196 7.72 21.7241 7.72C21.1984 7.72 20.8007 8.02667 20.5311 8.64C20.3963 8.96 20.2817 9.36667 20.1873 9.86C20.1064 10.34 20.0458 10.9933 20.0053 11.82C19.9784 12.6467 19.9649 13.7333 19.9649 15.08Z" fill="url(#paint1_linear_397_1554)"/>
<defs>
<linearGradient id="paint0_linear_397_1554" x1="6.59563" y1="15.7195" x2="26.8167" y2="15.2548" gradientUnits="userSpaceOnUse">
<stop offset="0.468658" stop-color="#2AACE2"/>
<stop offset="0.565242" stop-color="#6BBF3C"/>
</linearGradient>
<linearGradient id="paint1_linear_397_1554" x1="6.59563" y1="15.7195" x2="26.8167" y2="15.2548" gradientUnits="userSpaceOnUse">
<stop offset="0.468658" stop-color="#2AACE2"/>
<stop offset="0.565242" stop-color="#6BBF3C"/>
</linearGradient>
</defs>
</svg>
