<svg width="118" height="53" viewBox="0 0 118 53" fill="none" xmlns="http://www.w3.org/2000/svg">
<mask id="path-1-outside-1_223_2613" maskUnits="userSpaceOnUse" x="0" y="0" width="118" height="53" fill="black">
<rect fill="white" width="118" height="53"/>
<path d="M1 9C1 4.58172 4.58172 1 9 1H109C113.418 1 117 4.58172 117 9V41C117 45.4183 113.418 49 109 49H9C4.58172 49 1 45.4183 1 41V9Z"/>
</mask>
<path d="M1 9C1 4.58172 4.58172 1 9 1H109C113.418 1 117 4.58172 117 9V41C117 45.4183 113.418 49 109 49H9C4.58172 49 1 45.4183 1 41V9Z" fill="#101113"/>
<path d="M0 9C0 4.02944 4.02944 0 9 0H109C113.971 0 118 4.02944 118 9H116C116 5.13401 112.866 2 109 2H9C5.13401 2 2 5.13401 2 9H0ZM118 44C118 48.9706 113.971 53 109 53H9C4.02944 53 0 48.9706 0 44L2 41C2 43.2091 5.13401 45 9 45H109C112.866 45 116 43.2091 116 41L118 44ZM9 53C4.02944 53 0 48.9706 0 44V9C0 4.02944 4.02944 0 9 0V2C5.13401 2 2 5.13401 2 9V41C2 43.2091 5.13401 45 9 45V53ZM109 0C113.971 0 118 4.02944 118 9V44C118 48.9706 113.971 53 109 53V45C112.866 45 116 43.2091 116 41V9C116 5.13401 112.866 2 109 2V0Z" fill="#3A3B3D" mask="url(#path-1-outside-1_223_2613)"/>
<path d="M34.25 30C34.6642 30 35 30.3358 35 30.75C35 31.1642 34.6642 31.5 34.25 31.5H27.75C27.3358 31.5 27 31.1642 27 30.75C27 30.3358 27.3358 30 27.75 30H34.25ZM38.25 24C38.6642 24 39 24.3358 39 24.75C39 25.1642 38.6642 25.5 38.25 25.5H23.75C23.3358 25.5 23 25.1642 23 24.75C23 24.3358 23.3358 24 23.75 24H38.25ZM41.25 18C41.6642 18 42 18.3358 42 18.75C42 19.1642 41.6642 19.5 41.25 19.5H20.75C20.3358 19.5 20 19.1642 20 18.75C20 18.3358 20.3358 18 20.75 18H41.25Z" fill="#C5C6C9"/>
<path d="M62.392 30V18.72H69.368V19.824H63.704V23.76H69.048V24.864H63.704V30H62.392ZM71.3216 20.288V18.832H72.9216V20.288H71.3216ZM71.4816 30V22.224H72.7776V30H71.4816ZM78.0844 30.144C77.295 30.144 76.6977 29.9093 76.2924 29.44C75.8977 28.9707 75.7004 28.2987 75.7004 27.424V18.72H76.9964V27.328C76.9964 27.7013 77.0444 28.016 77.1404 28.272C77.247 28.528 77.4017 28.72 77.6044 28.848C77.807 28.976 78.0577 29.04 78.3564 29.04C78.4844 29.04 78.607 29.0347 78.7244 29.024C78.8524 29.0027 78.9697 28.976 79.0764 28.944L79.0444 30.032C78.8737 30.064 78.7084 30.0907 78.5484 30.112C78.399 30.1333 78.2444 30.144 78.0844 30.144ZM83.9141 30.144C82.9968 30.144 82.3088 29.8987 81.8501 29.408C81.3915 28.9173 81.1621 28.2187 81.1621 27.312V23.232H79.6421V22.224H81.1621V19.84H82.4581V22.224H84.9221V23.232H82.4581V27.184C82.4581 27.792 82.5861 28.256 82.8421 28.576C83.0981 28.8853 83.5141 29.04 84.0901 29.04C84.2608 29.04 84.4315 29.0187 84.6021 28.976C84.7728 28.9333 84.9275 28.8907 85.0661 28.848L85.2901 29.84C85.1515 29.9147 84.9488 29.984 84.6821 30.048C84.4155 30.112 84.1595 30.144 83.9141 30.144ZM90.3138 30.144C89.4924 30.144 88.7831 29.984 88.1858 29.664C87.5991 29.3333 87.1404 28.8693 86.8098 28.272C86.4898 27.6747 86.3298 26.96 86.3298 26.128C86.3298 25.3173 86.4898 24.6133 86.8098 24.016C87.1298 23.408 87.5671 22.9333 88.1218 22.592C88.6871 22.2507 89.3378 22.08 90.0738 22.08C90.7778 22.08 91.3804 22.2347 91.8818 22.544C92.3831 22.8533 92.7671 23.2907 93.0338 23.856C93.3111 24.4213 93.4498 25.0987 93.4498 25.888V26.384H87.3218V25.536H92.5858L92.3298 25.744C92.3298 24.8907 92.1378 24.2293 91.7538 23.76C91.3804 23.28 90.8311 23.04 90.1058 23.04C89.5618 23.04 89.0978 23.168 88.7138 23.424C88.3404 23.6693 88.0578 24.016 87.8658 24.464C87.6738 24.9013 87.5778 25.4133 87.5778 26V26.096C87.5778 26.7467 87.6791 27.296 87.8818 27.744C88.0951 28.192 88.4098 28.5333 88.8258 28.768C89.2418 28.992 89.7378 29.104 90.3138 29.104C90.7724 29.104 91.2151 29.0347 91.6418 28.896C92.0791 28.7467 92.4898 28.5067 92.8738 28.176L93.3218 29.088C92.9698 29.408 92.5218 29.664 91.9778 29.856C91.4338 30.048 90.8791 30.144 90.3138 30.144ZM95.8254 30V22.224H97.0894V24.064H96.9294C97.1107 23.4347 97.4254 22.96 97.8734 22.64C98.3214 22.3093 98.9134 22.1173 99.6494 22.064L100.113 22.016L100.209 23.136L99.3934 23.232C98.668 23.296 98.108 23.5307 97.7134 23.936C97.3294 24.3307 97.1374 24.8747 97.1374 25.568V30H95.8254Z" fill="white"/>
</svg>
