<svg width="164" height="48" viewBox="0 0 164 48" fill="none" xmlns="http://www.w3.org/2000/svg">
<mask id="path-1-inside-1_168_1837" fill="white">
<path d="M0.5 8C0.5 3.58172 4.08172 0 8.5 0H155.5C159.918 0 163.5 3.58172 163.5 8V40C163.5 44.4183 159.918 48 155.5 48H8.5C4.08173 48 0.5 44.4183 0.5 40V8Z"/>
</mask>
<path d="M0.5 8C0.5 3.58172 4.08172 0 8.5 0H155.5C159.918 0 163.5 3.58172 163.5 8V40C163.5 44.4183 159.918 48 155.5 48H8.5C4.08173 48 0.5 44.4183 0.5 40V8Z" fill="#2AACE2"/>
<path d="M0.5 0H163.5H0.5ZM163.5 40C163.5 46.6274 158.127 52 151.5 52H12.5C5.87258 52 0.5 46.6274 0.5 40C0.5 42.2091 4.08172 44 8.5 44H155.5C159.918 44 163.5 42.2091 163.5 40ZM0.5 48V0V48ZM163.5 0V48V0Z" fill="#008AC4" mask="url(#path-1-inside-1_168_1837)"/>
<path d="M25.41 31.22C23.7967 31.22 22.4107 30.8973 21.252 30.252C20.108 29.592 19.228 28.668 18.612 27.48C17.996 26.2773 17.688 24.862 17.688 23.234C17.688 21.606 17.996 20.198 18.612 19.01C19.228 17.822 20.108 16.9053 21.252 16.26C22.4107 15.6 23.7967 15.27 25.41 15.27C26.4513 15.27 27.434 15.4313 28.358 15.754C29.2967 16.0767 30.0667 16.5387 30.668 17.14L29.744 19.384C29.084 18.8267 28.4093 18.4233 27.72 18.174C27.0307 17.91 26.29 17.778 25.498 17.778C23.9287 17.778 22.7333 18.2547 21.912 19.208C21.0907 20.1467 20.68 21.4887 20.68 23.234C20.68 24.9793 21.0907 26.3287 21.912 27.282C22.7333 28.2353 23.9287 28.712 25.498 28.712C26.29 28.712 27.0307 28.5873 27.72 28.338C28.4093 28.074 29.084 27.6633 29.744 27.106L30.668 29.35C30.0667 29.9367 29.2967 30.3987 28.358 30.736C27.434 31.0587 26.4513 31.22 25.41 31.22ZM36.9942 31.22C35.8795 31.22 34.9115 30.9927 34.0902 30.538C33.2689 30.0833 32.6309 29.438 32.1762 28.602C31.7215 27.7513 31.4942 26.754 31.4942 25.61C31.4942 24.466 31.7215 23.476 32.1762 22.64C32.6309 21.804 33.2689 21.1587 34.0902 20.704C34.9115 20.2493 35.8795 20.022 36.9942 20.022C38.1089 20.022 39.0769 20.2493 39.8982 20.704C40.7195 21.1587 41.3575 21.804 41.8122 22.64C42.2669 23.476 42.4942 24.466 42.4942 25.61C42.4942 26.754 42.2669 27.7513 41.8122 28.602C41.3575 29.438 40.7195 30.0833 39.8982 30.538C39.0769 30.9927 38.1089 31.22 36.9942 31.22ZM36.9942 29.13C37.8155 29.13 38.4755 28.8367 38.9742 28.25C39.4729 27.6487 39.7222 26.7687 39.7222 25.61C39.7222 24.4367 39.4729 23.564 38.9742 22.992C38.4755 22.4053 37.8155 22.112 36.9942 22.112C36.1729 22.112 35.5129 22.4053 35.0142 22.992C34.5155 23.564 34.2662 24.4367 34.2662 25.61C34.2662 26.7687 34.5155 27.6487 35.0142 28.25C35.5129 28.8367 36.1729 29.13 36.9942 29.13ZM44.764 31V20.242H47.448V22.398H47.206C47.5287 21.6207 48.0273 21.034 48.702 20.638C49.3913 20.2273 50.1687 20.022 51.034 20.022C51.8993 20.022 52.6107 20.1833 53.168 20.506C53.7253 20.8287 54.1433 21.32 54.422 21.98C54.7007 22.6253 54.84 23.4467 54.84 24.444V31H52.09V24.576C52.09 24.0187 52.0167 23.564 51.87 23.212C51.738 22.86 51.5253 22.6033 51.232 22.442C50.9533 22.266 50.594 22.178 50.154 22.178C49.626 22.178 49.164 22.2953 48.768 22.53C48.372 22.75 48.064 23.0727 47.844 23.498C47.624 23.9087 47.514 24.3927 47.514 24.95V31H44.764ZM62.5611 31.22C61.1238 31.22 60.0531 30.8607 59.3491 30.142C58.6451 29.4233 58.2931 28.3747 58.2931 26.996V22.31H56.2251V20.242H58.2931V17.03H61.0431V20.242H64.2991V22.31H61.0431V26.842C61.0431 27.546 61.1971 28.074 61.5051 28.426C61.8131 28.778 62.3118 28.954 63.0011 28.954C63.2065 28.954 63.4191 28.932 63.6391 28.888C63.8591 28.8293 64.0865 28.7707 64.3211 28.712L64.7391 30.736C64.4751 30.8827 64.1378 31 63.7271 31.088C63.3311 31.176 62.9425 31.22 62.5611 31.22ZM65.9005 17.932V15.248H68.9805V17.932H65.9005ZM66.0765 31V20.242H68.8265V31H66.0765ZM71.6839 31V20.242H74.3679V22.398H74.1259C74.4486 21.6207 74.9472 21.034 75.6219 20.638C76.3112 20.2273 77.0886 20.022 77.9539 20.022C78.8192 20.022 79.5306 20.1833 80.0879 20.506C80.6452 20.8287 81.0632 21.32 81.3419 21.98C81.6206 22.6253 81.7599 23.4467 81.7599 24.444V31H79.0099V24.576C79.0099 24.0187 78.9366 23.564 78.7899 23.212C78.6579 22.86 78.4452 22.6033 78.1519 22.442C77.8732 22.266 77.5139 22.178 77.0739 22.178C76.5459 22.178 76.0839 22.2953 75.6879 22.53C75.2919 22.75 74.9839 23.0727 74.7639 23.498C74.5439 23.9087 74.4339 24.3927 74.4339 24.95V31H71.6839ZM89.855 31.22C88.6377 31.22 87.589 30.9927 86.709 30.538C85.829 30.0833 85.147 29.438 84.663 28.602C84.1937 27.766 83.959 26.776 83.959 25.632C83.959 24.5173 84.1864 23.542 84.641 22.706C85.1104 21.87 85.7484 21.2173 86.555 20.748C87.3764 20.264 88.3077 20.022 89.349 20.022C90.3757 20.022 91.2557 20.242 91.989 20.682C92.7224 21.122 93.287 21.7453 93.683 22.552C94.0937 23.3587 94.299 24.3193 94.299 25.434V26.248H86.181V24.664H92.363L92.011 24.994C92.011 23.9967 91.791 23.234 91.351 22.706C90.911 22.1633 90.2804 21.892 89.459 21.892C88.843 21.892 88.315 22.0387 87.875 22.332C87.4497 22.6107 87.1197 23.014 86.885 23.542C86.665 24.0553 86.555 24.6713 86.555 25.39V25.544C86.555 26.3507 86.6797 27.018 86.929 27.546C87.1784 28.074 87.5524 28.47 88.051 28.734C88.5497 28.998 89.1657 29.13 89.899 29.13C90.5004 29.13 91.1017 29.042 91.703 28.866C92.3044 28.6753 92.8544 28.382 93.353 27.986L94.123 29.834C93.6097 30.2593 92.9644 30.5967 92.187 30.846C91.4097 31.0953 90.6324 31.22 89.855 31.22Z" fill="#181818"/>
<path d="M137.205 16.2838C136.811 15.8961 136.178 15.9008 135.79 16.2942C135.403 16.6876 135.407 17.3208 135.801 17.7084L141.171 22.9998H127.5C126.948 22.9998 126.5 23.4475 126.5 23.9998C126.5 24.5521 126.948 24.9998 127.5 24.9998H141.165L135.801 30.2847C135.407 30.6723 135.403 31.3055 135.79 31.6989C136.178 32.0923 136.811 32.097 137.205 31.7094L144.129 24.887C144.626 24.3974 144.626 23.5958 144.129 23.1062L137.205 16.2838Z" fill="#0F1113"/>
</svg>
