<svg width="161" height="48" viewBox="0 0 161 48" fill="none" xmlns="http://www.w3.org/2000/svg">
<path d="M0 8C0 3.58172 3.58172 0 8 0H153C157.418 0 161 3.58172 161 8V40C161 44.4183 157.418 48 153 48H8C3.58172 48 0 44.4183 0 40V8Z" fill="#21B6F8"/>
<path d="M27.8834 15.0067L28 15C28.5128 15 28.9355 15.386 28.9933 15.8834L29 16V23H36C36.5128 23 36.9355 23.386 36.9933 23.8834L37 24C37 24.5128 36.614 24.9355 36.1166 24.9933L36 25H29V32C29 32.5128 28.614 32.9355 28.1166 32.9933L28 33C27.4872 33 27.0645 32.614 27.0067 32.1166L27 32V25H20C19.4872 25 19.0645 24.614 19.0067 24.1166L19 24C19 23.4872 19.386 23.0645 19.8834 23.0067L20 23H27V16C27 15.4872 27.386 15.0645 27.8834 15.0067L28 15L27.8834 15.0067Z" fill="#00131E"/>
<path d="M62.272 29.144C61.1627 29.144 60.2133 28.9093 59.424 28.44C58.6347 27.9707 58.0267 27.304 57.6 26.44C57.184 25.576 56.976 24.5467 56.976 23.352C56.976 22.1573 57.184 21.1333 57.6 20.28C58.0267 19.416 58.6347 18.7493 59.424 18.28C60.2133 17.8107 61.1627 17.576 62.272 17.576C63.0507 17.576 63.7707 17.6987 64.432 17.944C65.0933 18.1893 65.648 18.5467 66.096 19.016L65.584 20.088C65.0933 19.6293 64.5813 19.2987 64.048 19.096C63.5253 18.8827 62.944 18.776 62.304 18.776C61.0347 18.776 60.064 19.176 59.392 19.976C58.72 20.776 58.384 21.9013 58.384 23.352C58.384 24.8027 58.72 25.9333 59.392 26.744C60.064 27.544 61.0347 27.944 62.304 27.944C62.944 27.944 63.5253 27.8427 64.048 27.64C64.5813 27.4267 65.0933 27.0907 65.584 26.632L66.096 27.704C65.648 28.1627 65.0933 28.52 64.432 28.776C63.7707 29.0213 63.0507 29.144 62.272 29.144ZM68.4816 29V21.224H69.7456V23.064H69.5856C69.767 22.4347 70.0816 21.96 70.5296 21.64C70.9776 21.3093 71.5696 21.1173 72.3056 21.064L72.7696 21.016L72.8656 22.136L72.0496 22.232C71.3243 22.296 70.7643 22.5307 70.3696 22.936C69.9856 23.3307 69.7936 23.8747 69.7936 24.568V29H68.4816ZM78.1263 29.144C77.3049 29.144 76.5956 28.984 75.9983 28.664C75.4116 28.3333 74.9529 27.8693 74.6223 27.272C74.3023 26.6747 74.1423 25.96 74.1423 25.128C74.1423 24.3173 74.3023 23.6133 74.6223 23.016C74.9423 22.408 75.3796 21.9333 75.9343 21.592C76.4996 21.2507 77.1503 21.08 77.8863 21.08C78.5903 21.08 79.1929 21.2347 79.6943 21.544C80.1956 21.8533 80.5796 22.2907 80.8463 22.856C81.1236 23.4213 81.2623 24.0987 81.2623 24.888V25.384H75.1343V24.536H80.3983L80.1423 24.744C80.1423 23.8907 79.9503 23.2293 79.5663 22.76C79.1929 22.28 78.6436 22.04 77.9183 22.04C77.3743 22.04 76.9103 22.168 76.5263 22.424C76.1529 22.6693 75.8703 23.016 75.6783 23.464C75.4863 23.9013 75.3903 24.4133 75.3903 25V25.096C75.3903 25.7467 75.4916 26.296 75.6943 26.744C75.9076 27.192 76.2223 27.5333 76.6383 27.768C77.0543 27.992 77.5503 28.104 78.1263 28.104C78.5849 28.104 79.0276 28.0347 79.4543 27.896C79.8916 27.7467 80.3023 27.5067 80.6863 27.176L81.1343 28.088C80.7823 28.408 80.3343 28.664 79.7903 28.856C79.2463 29.048 78.6916 29.144 78.1263 29.144ZM86.0859 29.144C85.5525 29.144 85.0725 29.0427 84.6459 28.84C84.2299 28.6267 83.8992 28.3387 83.6539 27.976C83.4085 27.6133 83.2859 27.208 83.2859 26.76C83.2859 26.184 83.4299 25.7307 83.7179 25.4C84.0165 25.0693 84.5019 24.8347 85.1739 24.696C85.8565 24.5573 86.7845 24.488 87.9579 24.488H88.6779V25.336H87.9739C87.3232 25.336 86.7792 25.3573 86.3419 25.4C85.9045 25.4427 85.5579 25.5173 85.3019 25.624C85.0459 25.7307 84.8645 25.8693 84.7579 26.04C84.6512 26.2107 84.5979 26.424 84.5979 26.68C84.5979 27.1173 84.7472 27.4747 85.0459 27.752C85.3552 28.0293 85.7712 28.168 86.2939 28.168C86.7205 28.168 87.0939 28.0667 87.4139 27.864C87.7445 27.6613 88.0005 27.384 88.1819 27.032C88.3739 26.68 88.4699 26.2747 88.4699 25.816V23.992C88.4699 23.3307 88.3365 22.856 88.0699 22.568C87.8032 22.2693 87.3659 22.12 86.7579 22.12C86.2885 22.12 85.8352 22.1893 85.3979 22.328C84.9605 22.456 84.5125 22.6693 84.0539 22.968L83.6059 22.024C83.8832 21.832 84.1979 21.6667 84.5499 21.528C84.9019 21.3787 85.2699 21.2667 85.6539 21.192C86.0379 21.1173 86.4059 21.08 86.7579 21.08C87.4299 21.08 87.9845 21.192 88.4219 21.416C88.8592 21.6293 89.1845 21.96 89.3979 22.408C89.6112 22.8453 89.7179 23.4107 89.7179 24.104V29H88.5019V27.192H88.6459C88.5605 27.5973 88.3952 27.944 88.1499 28.232C87.9152 28.52 87.6219 28.744 87.2699 28.904C86.9179 29.064 86.5232 29.144 86.0859 29.144ZM95.7423 29.144C94.8249 29.144 94.1369 28.8987 93.6783 28.408C93.2196 27.9173 92.9903 27.2187 92.9903 26.312V22.232H91.4703V21.224H92.9903V18.84H94.2863V21.224H96.7503V22.232H94.2863V26.184C94.2863 26.792 94.4143 27.256 94.6703 27.576C94.9263 27.8853 95.3423 28.04 95.9183 28.04C96.0889 28.04 96.2596 28.0187 96.4303 27.976C96.6009 27.9333 96.7556 27.8907 96.8943 27.848L97.1183 28.84C96.9796 28.9147 96.7769 28.984 96.5103 29.048C96.2436 29.112 95.9876 29.144 95.7423 29.144ZM102.142 29.144C101.321 29.144 100.611 28.984 100.014 28.664C99.4272 28.3333 98.9685 27.8693 98.6379 27.272C98.3179 26.6747 98.1579 25.96 98.1579 25.128C98.1579 24.3173 98.3179 23.6133 98.6379 23.016C98.9579 22.408 99.3952 21.9333 99.9499 21.592C100.515 21.2507 101.166 21.08 101.902 21.08C102.606 21.08 103.209 21.2347 103.71 21.544C104.211 21.8533 104.595 22.2907 104.862 22.856C105.139 23.4213 105.278 24.0987 105.278 24.888V25.384H99.1499V24.536H104.414L104.158 24.744C104.158 23.8907 103.966 23.2293 103.582 22.76C103.209 22.28 102.659 22.04 101.934 22.04C101.39 22.04 100.926 22.168 100.542 22.424C100.169 22.6693 99.8859 23.016 99.6939 23.464C99.5019 23.9013 99.4059 24.4133 99.4059 25V25.096C99.4059 25.7467 99.5072 26.296 99.7099 26.744C99.9232 27.192 100.238 27.5333 100.654 27.768C101.07 27.992 101.566 28.104 102.142 28.104C102.601 28.104 103.043 28.0347 103.47 27.896C103.907 27.7467 104.318 27.5067 104.702 27.176L105.15 28.088C104.798 28.408 104.35 28.664 103.806 28.856C103.262 29.048 102.707 29.144 102.142 29.144ZM120.295 32.216L118.951 30.056C118.78 29.7573 118.546 29.528 118.247 29.368C117.948 29.2187 117.591 29.144 117.175 29.144L118.263 28.68C118.594 28.68 118.876 28.7173 119.111 28.792C119.356 28.8667 119.575 28.9893 119.767 29.16C119.959 29.3413 120.146 29.592 120.327 29.912L121.399 31.64L120.295 32.216ZM117.175 29.144C116.396 29.144 115.687 29.0107 115.047 28.744C114.407 28.4667 113.863 28.0773 113.415 27.576C112.967 27.0747 112.62 26.4667 112.375 25.752C112.14 25.0373 112.023 24.2373 112.023 23.352C112.023 22.456 112.14 21.656 112.375 20.952C112.62 20.2373 112.967 19.6347 113.415 19.144C113.863 18.6427 114.402 18.2587 115.031 17.992C115.671 17.7147 116.386 17.576 117.175 17.576C117.975 17.576 118.69 17.7093 119.319 17.976C119.959 18.2427 120.503 18.6267 120.951 19.128C121.41 19.6293 121.756 20.2373 121.991 20.952C122.236 21.656 122.359 22.4507 122.359 23.336C122.359 24.232 122.236 25.0373 121.991 25.752C121.746 26.4667 121.399 27.0747 120.951 27.576C120.503 28.0773 119.959 28.4667 119.319 28.744C118.69 29.0107 117.975 29.144 117.175 29.144ZM117.175 27.976C117.986 27.976 118.668 27.7947 119.223 27.432C119.788 27.0693 120.22 26.5413 120.519 25.848C120.818 25.1547 120.967 24.3227 120.967 23.352C120.967 22.3707 120.818 21.5387 120.519 20.856C120.22 20.1733 119.788 19.6507 119.223 19.288C118.668 18.9253 117.986 18.744 117.175 18.744C116.386 18.744 115.708 18.9253 115.143 19.288C114.588 19.6507 114.162 20.1787 113.863 20.872C113.564 21.5547 113.415 22.3813 113.415 23.352C113.415 24.3227 113.564 25.1547 113.863 25.848C114.162 26.5307 114.588 27.0587 115.143 27.432C115.708 27.7947 116.386 27.976 117.175 27.976ZM127.781 29.144C127.151 29.144 126.629 29.032 126.213 28.808C125.807 28.5733 125.498 28.2267 125.285 27.768C125.082 27.3093 124.981 26.7387 124.981 26.056V21.224H126.277V26.04C126.277 26.4987 126.335 26.8827 126.453 27.192C126.581 27.4907 126.778 27.7147 127.045 27.864C127.311 28.0027 127.642 28.072 128.036 28.072C128.485 28.072 128.874 27.9707 129.205 27.768C129.535 27.5653 129.797 27.2827 129.989 26.92C130.181 26.5573 130.277 26.1307 130.277 25.64V21.224H131.573V29H130.309V27.208H130.517C130.303 27.8373 129.951 28.3173 129.461 28.648C128.981 28.9787 128.421 29.144 127.781 29.144ZM134.337 19.288V17.832H135.937V19.288H134.337ZM134.497 29V21.224H135.793V29H134.497ZM138.38 29V28.136L143.068 21.896V22.232H138.38V21.224H144.268V22.088L139.532 28.36V27.992H144.444V29H138.38Z" fill="#00131E"/>
</svg>
