<svg width="29" height="28" viewBox="0 0 29 28" fill="none" xmlns="http://www.w3.org/2000/svg">
<path d="M13.0919 3.49605C13.9146 2.83595 15.0854 2.83595 15.9081 3.49605L23.6581 9.71438C24.1903 10.1414 24.5 10.7869 24.5 11.4693V22.7497C24.5 23.9923 23.4926 24.9997 22.25 24.9997H19.25C18.0074 24.9997 17 23.9923 17 22.7497V16.7497C17 16.3355 16.6642 15.9997 16.25 15.9997H12.75C12.3358 15.9997 12 16.3355 12 16.7497V22.7497C12 23.9923 10.9926 24.9997 9.75 24.9997H6.75C5.50736 24.9997 4.5 23.9923 4.5 22.7497V11.4693C4.5 10.7869 4.80967 10.1414 5.34191 9.71438L13.0919 3.49605ZM14.9694 4.666C14.6951 4.44597 14.3049 4.44597 14.0306 4.666L6.28064 10.8843C6.10322 11.0267 6 11.2418 6 11.4693V22.7497C6 23.1639 6.33579 23.4997 6.75 23.4997H9.75C10.1642 23.4997 10.5 23.1639 10.5 22.7497V16.7497C10.5 15.5071 11.5074 14.4997 12.75 14.4997H16.25C17.4926 14.4997 18.5 15.5071 18.5 16.7497V22.7497C18.5 23.1639 18.8358 23.4997 19.25 23.4997H22.25C22.6642 23.4997 23 23.1639 23 22.7497V11.4693C23 11.2418 22.8968 11.0267 22.7194 10.8843L14.9694 4.666Z" fill="white"/>
</svg>
