<svg width="18" height="20" viewBox="0 0 18 20" fill="none" xmlns="http://www.w3.org/2000/svg">
<path d="M0.990846 20C0.492053 19.6533 0.161771 19.1133 0 18.38C0.44487 18.1267 0.89648 17.82 1.35483 17.46C1.81318 17.1 2.22435 16.72 2.58833 16.32C2.44004 15.6 2.33894 14.6667 2.28501 13.52C2.23109 12.3733 2.20413 10.86 2.20413 8.98H2.22435L2.20413 8.96C2.20413 7.77333 2.21761 6.76667 2.24457 5.94C2.27153 5.11333 2.32545 4.42 2.40634 3.86C2.48723 3.3 2.58833 2.82667 2.70966 2.44C2.84447 2.04 3.01298 1.68 3.21519 1.36C3.51177 0.88 3.87576 0.533334 4.30715 0.320001C4.75202 0.106667 5.23733 0 5.76308 0C6.81459 0 7.62345 0.46 8.18964 1.38C8.75584 2.3 9.03894 3.56667 9.03894 5.18C9.03894 6.34 8.91087 7.49333 8.65474 8.64C8.41208 9.77333 8.07506 10.8533 7.64367 11.88C7.22576 12.9067 6.74719 13.8467 6.20795 14.7C5.66872 15.54 5.10926 16.2533 4.52958 16.84C4.54306 16.88 4.56328 16.9267 4.59025 16.98C4.77898 17.42 5.05534 17.7533 5.41932 17.98C5.78331 18.1933 6.20121 18.3 6.67304 18.3C6.86178 18.3 7.01007 18.38 7.11791 18.54C7.23924 18.6867 7.29991 18.8933 7.29991 19.16C7.29991 19.72 7.05051 20 6.55172 20C5.7833 20 5.10252 19.8333 4.50936 19.5C3.92968 19.1533 3.49829 18.7267 3.21519 18.22C2.9321 18.5133 2.60855 18.8067 2.24457 19.1C1.89407 19.38 1.47616 19.68 0.990846 20ZM4.00383 9.08C4.00383 10.4533 4.01057 11.5933 4.02405 12.5C4.05101 13.3933 4.08471 14.1333 4.12515 14.72C4.70483 13.9467 5.23059 13.04 5.70242 12C6.17425 10.9467 6.54498 9.83333 6.81459 8.66C7.09769 7.48667 7.23924 6.32 7.23924 5.16C7.23924 4.05333 7.11117 3.20667 6.85504 2.62C6.5989 2.02 6.23491 1.72 5.76308 1.72C5.23733 1.72 4.83964 2.02667 4.57002 2.64C4.43521 2.96 4.32063 3.36667 4.22626 3.86C4.14538 4.34 4.08471 4.99333 4.04427 5.82C4.01731 6.64667 4.00383 7.73333 4.00383 9.08Z" fill="url(#paint0_linear_397_1556)"/>
<path d="M6.59516 20C6.40643 20 6.25814 19.92 6.15029 19.76C6.04244 19.6 5.98852 19.3933 5.98852 19.14C5.98852 18.8867 6.05592 18.6867 6.19073 18.54C6.31206 18.38 6.48731 18.3 6.71649 18.3C7.67363 18.3 8.59033 18.0667 9.46659 17.6C10.3428 17.1333 11.0776 16.5733 11.6707 15.92C11.4955 15.0933 11.3674 14.1067 11.2865 12.96C11.2056 11.8133 11.1652 10.48 11.1652 8.96C11.1652 7.77333 11.1787 6.76667 11.2056 5.94C11.2326 5.11333 11.2865 4.42 11.3674 3.86C11.4483 3.3 11.5494 2.82667 11.6707 2.44C11.8055 2.04 11.974 1.68 12.1763 1.36C12.4728 0.88 12.8368 0.533334 13.2682 0.320001C13.7131 0.106667 14.1984 0 14.7241 0C15.7757 0 16.5845 0.46 17.1507 1.38C17.7169 2.3 18 3.56667 18 5.18C18 7.02 17.6225 8.92 16.8676 10.88C16.1127 12.8267 15.0342 14.6933 13.6322 16.48C13.6861 16.64 13.74 16.7867 13.794 16.92C13.9962 17.4 14.259 17.7533 14.5826 17.98C14.9196 18.1933 15.2971 18.3 15.715 18.3C16.2542 18.3 16.7328 18.16 17.1507 17.88C17.5686 18.2133 17.8113 18.6667 17.8787 19.24C17.2451 19.7467 16.4969 20 15.6341 20C15.0275 20 14.4747 19.8667 13.976 19.6C13.4772 19.3333 13.0592 18.9733 12.7222 18.52C12.547 18.28 12.3919 18.0133 12.2571 17.72C11.4618 18.4267 10.599 18.9867 9.66881 19.4C8.7521 19.8 7.72755 20 6.59516 20ZM12.9649 9.08C12.9649 11.2267 13.0458 12.96 13.2075 14.28C14.1916 12.6933 14.9331 11.14 15.4319 9.62C15.9442 8.08667 16.2003 6.6 16.2003 5.16C16.2003 4.05333 16.0722 3.20667 15.8161 2.62C15.56 2.02 15.196 1.72 14.7241 1.72C14.1984 1.72 13.8007 2.02667 13.5311 2.64C13.3963 2.96 13.2817 3.36667 13.1873 3.86C13.1064 4.34 13.0458 4.99333 13.0053 5.82C12.9784 6.64667 12.9649 7.73333 12.9649 9.08Z" fill="url(#paint1_linear_397_1556)"/>
<defs>
<linearGradient id="paint0_linear_397_1556" x1="-0.404373" y1="9.71946" x2="19.8167" y2="9.2548" gradientUnits="userSpaceOnUse">
<stop offset="0.468658" stop-color="#2AACE2"/>
<stop offset="0.565242" stop-color="#6BBF3C"/>
</linearGradient>
<linearGradient id="paint1_linear_397_1556" x1="-0.404373" y1="9.71946" x2="19.8167" y2="9.2548" gradientUnits="userSpaceOnUse">
<stop offset="0.468658" stop-color="#2AACE2"/>
<stop offset="0.565242" stop-color="#6BBF3C"/>
</linearGradient>
</defs>
</svg>
