<svg width="204" height="53" viewBox="0 0 204 53" fill="none" xmlns="http://www.w3.org/2000/svg">
    <mask id="path-1-outside-1_64_2771" maskUnits="userSpaceOnUse" x="0" y="0" width="204" height="53" fill="black">
    <rect fill="white" width="204" height="53"/>
    <path d="M1 9C1 4.58172 4.58172 1 9 1H195C199.418 1 203 4.58172 203 9V41C203 45.4183 199.418 49 195 49H9C4.58172 49 1 45.4183 1 41V9Z"/>
    </mask>
    <path d="M1 9C1 4.58172 4.58172 1 9 1H195C199.418 1 203 4.58172 203 9V41C203 45.4183 199.418 49 195 49H9C4.58172 49 1 45.4183 1 41V9Z" fill="#101113"/>
    <path d="M0 9C0 4.02944 4.02944 0 9 0H195C199.971 0 204 4.02944 204 9H202C202 5.13401 198.866 2 195 2H9C5.13401 2 2 5.13401 2 9H0ZM204 44C204 48.9706 199.971 53 195 53H9C4.02944 53 0 48.9706 0 44L2 41C2 43.2091 5.13401 45 9 45H195C198.866 45 202 43.2091 202 41L204 44ZM9 53C4.02944 53 0 48.9706 0 44V9C0 4.02944 4.02944 0 9 0V2C5.13401 2 2 5.13401 2 9V41C2 43.2091 5.13401 45 9 45V53ZM195 0C199.971 0 204 4.02944 204 9V44C204 48.9706 199.971 53 195 53V45C198.866 45 202 43.2091 202 41V9C202 5.13401 198.866 2 195 2V0Z" fill="#3A3B3D" mask="url(#path-1-outside-1_64_2771)"/>
    <path d="M38.072 30.144C37.5813 30.144 37.1013 30.1067 36.632 30.032C36.1627 29.9573 35.72 29.8453 35.304 29.696C34.888 29.536 34.5147 29.344 34.184 29.12C34.024 29.0027 33.912 28.8693 33.848 28.72C33.7947 28.5707 33.7787 28.4267 33.8 28.288C33.832 28.1387 33.896 28.0107 33.992 27.904C34.088 27.7973 34.2053 27.7333 34.344 27.712C34.4827 27.68 34.6373 27.7227 34.808 27.84C35.288 28.1493 35.7947 28.3787 36.328 28.528C36.8613 28.6667 37.4427 28.736 38.072 28.736C38.9787 28.736 39.6453 28.576 40.072 28.256C40.5093 27.9253 40.728 27.4987 40.728 26.976C40.728 26.5493 40.5733 26.2133 40.264 25.968C39.9547 25.712 39.4373 25.5093 38.712 25.36L37 25.008C35.9867 24.7947 35.2293 24.4427 34.728 23.952C34.2373 23.4613 33.992 22.8 33.992 21.968C33.992 21.4667 34.0933 21.008 34.296 20.592C34.5093 20.176 34.8027 19.8187 35.176 19.52C35.5493 19.2107 35.9973 18.976 36.52 18.816C37.0427 18.656 37.6133 18.576 38.232 18.576C38.8933 18.576 39.512 18.6613 40.088 18.832C40.6747 19.0027 41.1973 19.264 41.656 19.616C41.7947 19.712 41.8853 19.8347 41.928 19.984C41.9813 20.1227 41.992 20.2613 41.96 20.4C41.9387 20.5387 41.88 20.656 41.784 20.752C41.688 20.848 41.5653 20.9067 41.416 20.928C41.2667 20.9387 41.1013 20.8853 40.92 20.768C40.504 20.4907 40.0773 20.2933 39.64 20.176C39.2133 20.048 38.7387 19.984 38.216 19.984C37.6933 19.984 37.2347 20.064 36.84 20.224C36.456 20.384 36.1573 20.608 35.944 20.896C35.7413 21.184 35.64 21.5253 35.64 21.92C35.64 22.368 35.784 22.7253 36.072 22.992C36.36 23.2587 36.84 23.4613 37.512 23.6L39.208 23.952C40.2747 24.176 41.0693 24.5227 41.592 24.992C42.1147 25.4613 42.376 26.0853 42.376 26.864C42.376 27.3653 42.2747 27.8187 42.072 28.224C41.8693 28.6187 41.5813 28.96 41.208 29.248C40.8347 29.536 40.3813 29.76 39.848 29.92C39.3253 30.0693 38.7333 30.144 38.072 30.144ZM44.8891 30.096C44.6331 30.096 44.4358 30.0213 44.2971 29.872C44.1585 29.712 44.0891 29.4933 44.0891 29.216V22.976C44.0891 22.6987 44.1585 22.4853 44.2971 22.336C44.4358 22.1867 44.6331 22.112 44.8891 22.112C45.1451 22.112 45.3425 22.1867 45.4811 22.336C45.6305 22.4853 45.7051 22.6987 45.7051 22.976V29.216C45.7051 29.4933 45.6358 29.712 45.4971 29.872C45.3585 30.0213 45.1558 30.096 44.8891 30.096ZM44.8891 20.448C44.5691 20.448 44.3185 20.368 44.1371 20.208C43.9665 20.048 43.8811 19.824 43.8811 19.536C43.8811 19.2373 43.9665 19.0133 44.1371 18.864C44.3185 18.704 44.5691 18.624 44.8891 18.624C45.2091 18.624 45.4545 18.704 45.6251 18.864C45.8065 19.0133 45.8971 19.2373 45.8971 19.536C45.8971 19.824 45.8065 20.048 45.6251 20.208C45.4545 20.368 45.2091 20.448 44.8891 20.448ZM51.5158 33.024C50.9398 33.024 50.3798 32.9653 49.8358 32.848C49.3024 32.7307 48.8171 32.5387 48.3798 32.272C48.2198 32.1867 48.1131 32.08 48.0598 31.952C48.0064 31.8347 47.9904 31.712 48.0118 31.584C48.0438 31.456 48.1024 31.344 48.1878 31.248C48.2731 31.152 48.3744 31.088 48.4918 31.056C48.6198 31.024 48.7531 31.0453 48.8918 31.12C49.3611 31.376 49.8038 31.5467 50.2198 31.632C50.6464 31.728 51.0411 31.776 51.4038 31.776C52.1504 31.776 52.7104 31.584 53.0838 31.2C53.4571 30.8267 53.6438 30.272 53.6438 29.536V27.904H53.7878C53.6278 28.4907 53.2918 28.9547 52.7798 29.296C52.2678 29.6373 51.6758 29.808 51.0038 29.808C50.2998 29.808 49.6864 29.648 49.1638 29.328C48.6411 28.9973 48.2358 28.544 47.9478 27.968C47.6598 27.3813 47.5158 26.6987 47.5158 25.92C47.5158 25.3333 47.5958 24.8053 47.7558 24.336C47.9264 23.8667 48.1611 23.4613 48.4598 23.12C48.7691 22.7787 49.1371 22.5173 49.5638 22.336C50.0011 22.144 50.4811 22.048 51.0038 22.048C51.6864 22.048 52.2784 22.2187 52.7798 22.56C53.2918 22.9013 53.6224 23.3653 53.7718 23.952L53.6118 24.224V22.896C53.6118 22.6293 53.6811 22.4267 53.8198 22.288C53.9691 22.1493 54.1664 22.08 54.4118 22.08C54.6678 22.08 54.8651 22.1493 55.0038 22.288C55.1424 22.4267 55.2118 22.6293 55.2118 22.896V29.344C55.2118 30.56 54.8971 31.4773 54.2678 32.096C53.6384 32.7147 52.7211 33.024 51.5158 33.024ZM51.3878 28.544C51.8571 28.544 52.2571 28.4373 52.5878 28.224C52.9184 28.0107 53.1744 27.7067 53.3558 27.312C53.5371 26.9173 53.6278 26.4533 53.6278 25.92C53.6278 25.12 53.4251 24.4853 53.0198 24.016C52.6251 23.5467 52.0811 23.312 51.3878 23.312C50.9291 23.312 50.5344 23.4187 50.2038 23.632C49.8731 23.8453 49.6118 24.1493 49.4198 24.544C49.2384 24.928 49.1478 25.3867 49.1478 25.92C49.1478 26.7307 49.3504 27.3707 49.7558 27.84C50.1611 28.3093 50.7051 28.544 51.3878 28.544ZM58.2798 30.112C58.0238 30.112 57.8264 30.0427 57.6878 29.904C57.5491 29.7547 57.4798 29.552 57.4798 29.296V22.896C57.4798 22.6293 57.5491 22.4267 57.6878 22.288C57.8264 22.1493 58.0184 22.08 58.2638 22.08C58.5198 22.08 58.7118 22.1493 58.8398 22.288C58.9784 22.4267 59.0478 22.6293 59.0478 22.896V24.144L58.8718 23.856C59.1064 23.2587 59.4744 22.8107 59.9758 22.512C60.4771 22.2027 61.0531 22.048 61.7038 22.048C62.3224 22.048 62.8344 22.1653 63.2398 22.4C63.6558 22.624 63.9651 22.9707 64.1678 23.44C64.3704 23.8987 64.4718 24.48 64.4718 25.184V29.296C64.4718 29.552 64.4024 29.7547 64.2638 29.904C64.1251 30.0427 63.9278 30.112 63.6718 30.112C63.4051 30.112 63.2024 30.0427 63.0638 29.904C62.9251 29.7547 62.8558 29.552 62.8558 29.296V25.28C62.8558 24.608 62.7224 24.1173 62.4558 23.808C62.1998 23.4987 61.7944 23.344 61.2398 23.344C60.5891 23.344 60.0664 23.5467 59.6718 23.952C59.2878 24.3573 59.0958 24.9013 59.0958 25.584V29.296C59.0958 29.84 58.8238 30.112 58.2798 30.112ZM73.7013 30.144C73.0719 30.144 72.5439 30.0267 72.1173 29.792C71.7013 29.5573 71.3866 29.2107 71.1733 28.752C70.9706 28.2827 70.8693 27.696 70.8693 26.992V22.896C70.8693 22.6187 70.9386 22.416 71.0773 22.288C71.2159 22.1493 71.4133 22.08 71.6693 22.08C71.9253 22.08 72.1226 22.1493 72.2613 22.288C72.4106 22.416 72.4853 22.6187 72.4853 22.896V27.008C72.4853 27.6373 72.6133 28.1013 72.8693 28.4C73.1253 28.6987 73.5306 28.848 74.0853 28.848C74.6933 28.848 75.1839 28.6453 75.5573 28.24C75.9413 27.824 76.1333 27.28 76.1333 26.608V22.896C76.1333 22.6187 76.2026 22.416 76.3413 22.288C76.4799 22.1493 76.6826 22.08 76.9493 22.08C77.2053 22.08 77.4026 22.1493 77.5413 22.288C77.6799 22.416 77.7493 22.6187 77.7493 22.896V29.296C77.7493 29.84 77.4879 30.112 76.9653 30.112C76.7199 30.112 76.5279 30.0427 76.3893 29.904C76.2506 29.7547 76.1813 29.552 76.1813 29.296V27.936L76.3893 28.288C76.1759 28.8853 75.8346 29.344 75.3653 29.664C74.8959 29.984 74.3413 30.144 73.7013 30.144ZM80.8266 32.992C80.5706 32.992 80.3733 32.9227 80.2346 32.784C80.096 32.6453 80.0266 32.4427 80.0266 32.176V22.896C80.0266 22.6293 80.096 22.4267 80.2346 22.288C80.3733 22.1493 80.5653 22.08 80.8106 22.08C81.0666 22.08 81.264 22.1493 81.4026 22.288C81.5413 22.4267 81.6106 22.6293 81.6106 22.896V24.288L81.4346 23.952C81.6053 23.376 81.9413 22.9173 82.4426 22.576C82.944 22.224 83.536 22.048 84.2186 22.048C84.912 22.048 85.5146 22.2133 86.0266 22.544C86.5493 22.8747 86.9493 23.3387 87.2266 23.936C87.5146 24.5333 87.6586 25.2533 87.6586 26.096C87.6586 26.9173 87.5146 27.6373 87.2266 28.256C86.9493 28.864 86.5546 29.3333 86.0426 29.664C85.5306 29.984 84.9226 30.144 84.2186 30.144C83.5466 30.144 82.96 29.9733 82.4586 29.632C81.9573 29.2907 81.6213 28.8373 81.4506 28.272H81.6426V32.176C81.6426 32.4427 81.568 32.6453 81.4186 32.784C81.28 32.9227 81.0826 32.992 80.8266 32.992ZM83.8186 28.896C84.2666 28.896 84.656 28.7893 84.9866 28.576C85.3173 28.3627 85.5733 28.048 85.7546 27.632C85.936 27.216 86.0266 26.704 86.0266 26.096C86.0266 25.1787 85.824 24.4853 85.4186 24.016C85.024 23.5467 84.4906 23.312 83.8186 23.312C83.3813 23.312 82.992 23.4187 82.6506 23.632C82.32 23.8347 82.064 24.144 81.8826 24.56C81.7013 24.976 81.6106 25.488 81.6106 26.096C81.6106 27.0027 81.8133 27.696 82.2186 28.176C82.624 28.656 83.1573 28.896 83.8186 28.896ZM96.1945 30.144C95.6505 30.144 95.1598 30.0373 94.7225 29.824C94.2958 29.6107 93.9598 29.3227 93.7145 28.96C93.4692 28.5973 93.3465 28.1867 93.3465 27.728C93.3465 27.152 93.4905 26.6987 93.7785 26.368C94.0772 26.0267 94.5625 25.7867 95.2345 25.648C95.9172 25.4987 96.8345 25.424 97.9865 25.424H98.7385V26.416H98.0025C97.2345 26.416 96.6265 26.4533 96.1785 26.528C95.7305 26.6027 95.4105 26.7307 95.2185 26.912C95.0372 27.0827 94.9465 27.3227 94.9465 27.632C94.9465 28.0373 95.0852 28.368 95.3625 28.624C95.6398 28.8693 96.0238 28.992 96.5145 28.992C96.9092 28.992 97.2558 28.9013 97.5545 28.72C97.8532 28.528 98.0878 28.272 98.2585 27.952C98.4398 27.632 98.5305 27.264 98.5305 26.848V25.008C98.5305 24.4 98.4025 23.9627 98.1465 23.696C97.8905 23.4293 97.4692 23.296 96.8825 23.296C96.5412 23.296 96.1838 23.3387 95.8105 23.424C95.4478 23.5093 95.0692 23.6533 94.6745 23.856C94.4932 23.9413 94.3385 23.968 94.2105 23.936C94.0825 23.904 93.9812 23.8347 93.9065 23.728C93.8318 23.6107 93.7892 23.488 93.7785 23.36C93.7785 23.2213 93.8105 23.088 93.8745 22.96C93.9492 22.832 94.0718 22.736 94.2425 22.672C94.7118 22.448 95.1758 22.288 95.6345 22.192C96.0932 22.096 96.5252 22.048 96.9305 22.048C97.6452 22.048 98.2318 22.16 98.6905 22.384C99.1598 22.608 99.5065 22.9493 99.7305 23.408C99.9545 23.8667 100.067 24.4587 100.067 25.184V29.296C100.067 29.552 100.003 29.7547 99.8745 29.904C99.7465 30.0427 99.5598 30.112 99.3145 30.112C99.0798 30.112 98.8932 30.0427 98.7545 29.904C98.6158 29.7547 98.5465 29.552 98.5465 29.296V28.256H98.6905C98.6052 28.6507 98.4452 28.992 98.2105 29.28C97.9865 29.5573 97.7038 29.7707 97.3625 29.92C97.0212 30.0693 96.6318 30.144 96.1945 30.144ZM105.028 30.144C104.559 30.144 104.074 30.0907 103.572 29.984C103.082 29.8773 102.628 29.696 102.212 29.44C102.074 29.344 101.978 29.2373 101.924 29.12C101.871 29.0027 101.85 28.8853 101.86 28.768C101.882 28.64 101.93 28.5333 102.004 28.448C102.09 28.352 102.191 28.2933 102.308 28.272C102.436 28.2507 102.57 28.2773 102.708 28.352C103.124 28.5867 103.524 28.752 103.908 28.848C104.292 28.9333 104.671 28.976 105.044 28.976C105.61 28.976 106.036 28.8747 106.324 28.672C106.612 28.4693 106.756 28.1973 106.756 27.856C106.756 27.5787 106.66 27.3653 106.468 27.216C106.276 27.056 105.988 26.9333 105.604 26.848L104.084 26.544C103.423 26.4053 102.922 26.16 102.58 25.808C102.239 25.456 102.068 25.008 102.068 24.464C102.068 23.9733 102.202 23.5467 102.468 23.184C102.735 22.8213 103.108 22.544 103.588 22.352C104.068 22.1493 104.623 22.048 105.252 22.048C105.722 22.048 106.164 22.1067 106.58 22.224C106.996 22.3413 107.38 22.5173 107.732 22.752C107.871 22.8267 107.962 22.928 108.004 23.056C108.047 23.1733 108.052 23.2907 108.02 23.408C107.999 23.5253 107.946 23.632 107.86 23.728C107.775 23.8133 107.668 23.8667 107.54 23.888C107.423 23.8987 107.29 23.8667 107.14 23.792C106.82 23.5893 106.5 23.4453 106.18 23.36C105.871 23.2747 105.562 23.232 105.252 23.232C104.687 23.232 104.26 23.3387 103.972 23.552C103.695 23.7547 103.556 24.032 103.556 24.384C103.556 24.6507 103.642 24.8693 103.812 25.04C103.983 25.2107 104.25 25.3333 104.612 25.408L106.132 25.712C106.826 25.8507 107.348 26.0853 107.7 26.416C108.063 26.7467 108.244 27.1947 108.244 27.76C108.244 28.496 107.951 29.0773 107.364 29.504C106.778 29.9307 105.999 30.144 105.028 30.144ZM118.021 30.112C117.754 30.112 117.546 30.0373 117.397 29.888C117.258 29.7387 117.189 29.5307 117.189 29.264V20.112H113.797C113.573 20.112 113.397 20.0533 113.269 19.936C113.141 19.808 113.077 19.632 113.077 19.408C113.077 19.184 113.141 19.0133 113.269 18.896C113.397 18.7787 113.573 18.72 113.797 18.72H122.229C122.464 18.72 122.645 18.7787 122.773 18.896C122.901 19.0133 122.965 19.184 122.965 19.408C122.965 19.632 122.901 19.808 122.773 19.936C122.645 20.0533 122.464 20.112 122.229 20.112H118.837V29.264C118.837 29.5307 118.768 29.7387 118.629 29.888C118.501 30.0373 118.298 30.112 118.021 30.112ZM126.472 30.144C125.619 30.144 124.883 29.984 124.264 29.664C123.656 29.3333 123.181 28.8693 122.84 28.272C122.509 27.664 122.344 26.944 122.344 26.112C122.344 25.3013 122.509 24.592 122.84 23.984C123.171 23.376 123.624 22.9013 124.2 22.56C124.776 22.2187 125.432 22.048 126.168 22.048C126.712 22.048 127.197 22.1387 127.624 22.32C128.051 22.4907 128.413 22.7467 128.712 23.088C129.021 23.4187 129.251 23.824 129.4 24.304C129.56 24.784 129.64 25.3227 129.64 25.92C129.64 26.1013 129.587 26.24 129.48 26.336C129.373 26.4213 129.213 26.464 129 26.464H123.624V25.472H128.552L128.28 25.696C128.28 25.1627 128.2 24.7093 128.04 24.336C127.891 23.9627 127.661 23.68 127.352 23.488C127.053 23.2853 126.68 23.184 126.232 23.184C125.731 23.184 125.304 23.3013 124.952 23.536C124.611 23.7707 124.349 24.096 124.168 24.512C123.987 24.928 123.896 25.4133 123.896 25.968V26.064C123.896 27.0027 124.115 27.712 124.552 28.192C125 28.6613 125.645 28.896 126.488 28.896C126.808 28.896 127.144 28.8533 127.496 28.768C127.859 28.6827 128.2 28.5387 128.52 28.336C128.701 28.2293 128.861 28.1813 129 28.192C129.149 28.2027 129.267 28.2507 129.352 28.336C129.448 28.4213 129.507 28.528 129.528 28.656C129.549 28.784 129.528 28.9173 129.464 29.056C129.4 29.184 129.288 29.3013 129.128 29.408C128.765 29.6533 128.344 29.84 127.864 29.968C127.384 30.0853 126.92 30.144 126.472 30.144ZM133.898 30.144C133.354 30.144 132.863 30.0373 132.426 29.824C131.999 29.6107 131.663 29.3227 131.418 28.96C131.172 28.5973 131.05 28.1867 131.05 27.728C131.05 27.152 131.194 26.6987 131.482 26.368C131.78 26.0267 132.266 25.7867 132.938 25.648C133.62 25.4987 134.538 25.424 135.69 25.424H136.442V26.416H135.706C134.938 26.416 134.33 26.4533 133.882 26.528C133.434 26.6027 133.114 26.7307 132.922 26.912C132.74 27.0827 132.65 27.3227 132.65 27.632C132.65 28.0373 132.788 28.368 133.066 28.624C133.343 28.8693 133.727 28.992 134.218 28.992C134.612 28.992 134.959 28.9013 135.258 28.72C135.556 28.528 135.791 28.272 135.962 27.952C136.143 27.632 136.234 27.264 136.234 26.848V25.008C136.234 24.4 136.106 23.9627 135.85 23.696C135.594 23.4293 135.172 23.296 134.586 23.296C134.244 23.296 133.887 23.3387 133.514 23.424C133.151 23.5093 132.772 23.6533 132.378 23.856C132.196 23.9413 132.042 23.968 131.914 23.936C131.786 23.904 131.684 23.8347 131.61 23.728C131.535 23.6107 131.492 23.488 131.482 23.36C131.482 23.2213 131.514 23.088 131.578 22.96C131.652 22.832 131.775 22.736 131.946 22.672C132.415 22.448 132.879 22.288 133.338 22.192C133.796 22.096 134.228 22.048 134.634 22.048C135.348 22.048 135.935 22.16 136.394 22.384C136.863 22.608 137.21 22.9493 137.434 23.408C137.658 23.8667 137.77 24.4587 137.77 25.184V29.296C137.77 29.552 137.706 29.7547 137.578 29.904C137.45 30.0427 137.263 30.112 137.018 30.112C136.783 30.112 136.596 30.0427 136.458 29.904C136.319 29.7547 136.25 29.552 136.25 29.296V28.256H136.394C136.308 28.6507 136.148 28.992 135.914 29.28C135.69 29.5573 135.407 29.7707 135.066 29.92C134.724 30.0693 134.335 30.144 133.898 30.144ZM143.435 30.144C142.635 30.144 141.942 29.9787 141.355 29.648C140.779 29.3067 140.331 28.832 140.011 28.224C139.691 27.6053 139.531 26.88 139.531 26.048C139.531 25.4293 139.622 24.8747 139.803 24.384C139.985 23.8827 140.241 23.4613 140.571 23.12C140.913 22.7787 141.323 22.5173 141.803 22.336C142.294 22.144 142.838 22.048 143.435 22.048C143.809 22.048 144.198 22.1067 144.603 22.224C145.019 22.3307 145.403 22.512 145.755 22.768C145.894 22.8533 145.979 22.96 146.011 23.088C146.054 23.2053 146.059 23.328 146.027 23.456C146.006 23.584 145.947 23.696 145.851 23.792C145.766 23.8773 145.659 23.9307 145.531 23.952C145.403 23.9627 145.265 23.9253 145.115 23.84C144.859 23.6587 144.598 23.5307 144.331 23.456C144.065 23.3707 143.809 23.328 143.563 23.328C143.179 23.328 142.838 23.392 142.539 23.52C142.251 23.6373 142.006 23.8133 141.803 24.048C141.601 24.272 141.446 24.5547 141.339 24.896C141.243 25.2373 141.195 25.6267 141.195 26.064C141.195 26.9387 141.398 27.6267 141.803 28.128C142.219 28.6187 142.806 28.864 143.563 28.864C143.809 28.864 144.065 28.8267 144.331 28.752C144.598 28.6773 144.859 28.5493 145.115 28.368C145.265 28.2827 145.403 28.2507 145.531 28.272C145.659 28.2933 145.761 28.352 145.835 28.448C145.921 28.5333 145.974 28.64 145.995 28.768C146.027 28.8853 146.022 29.008 145.979 29.136C145.937 29.264 145.846 29.3707 145.707 29.456C145.366 29.7013 144.993 29.8773 144.587 29.984C144.193 30.0907 143.809 30.144 143.435 30.144ZM148.264 30.112C148.008 30.112 147.811 30.0427 147.672 29.904C147.533 29.7547 147.464 29.552 147.464 29.296V19.424C147.464 19.1573 147.533 18.9547 147.672 18.816C147.811 18.6773 148.008 18.608 148.264 18.608C148.52 18.608 148.717 18.6773 148.856 18.816C149.005 18.9547 149.08 19.1573 149.08 19.424V23.856H148.856C149.091 23.2587 149.459 22.8107 149.96 22.512C150.461 22.2027 151.037 22.048 151.688 22.048C152.307 22.048 152.819 22.1653 153.224 22.4C153.64 22.624 153.949 22.9707 154.152 23.44C154.355 23.8987 154.456 24.48 154.456 25.184V29.296C154.456 29.552 154.387 29.7547 154.248 29.904C154.109 30.0427 153.912 30.112 153.656 30.112C153.389 30.112 153.187 30.0427 153.048 29.904C152.909 29.7547 152.84 29.552 152.84 29.296V25.28C152.84 24.608 152.707 24.1173 152.44 23.808C152.184 23.4987 151.779 23.344 151.224 23.344C150.573 23.344 150.051 23.5467 149.656 23.952C149.272 24.3573 149.08 24.9013 149.08 25.584V29.296C149.08 29.84 148.808 30.112 148.264 30.112ZM160.347 30.144C159.494 30.144 158.758 29.984 158.139 29.664C157.531 29.3333 157.056 28.8693 156.715 28.272C156.384 27.664 156.219 26.944 156.219 26.112C156.219 25.3013 156.384 24.592 156.715 23.984C157.046 23.376 157.499 22.9013 158.075 22.56C158.651 22.2187 159.307 22.048 160.043 22.048C160.587 22.048 161.072 22.1387 161.499 22.32C161.926 22.4907 162.288 22.7467 162.587 23.088C162.896 23.4187 163.126 23.824 163.275 24.304C163.435 24.784 163.515 25.3227 163.515 25.92C163.515 26.1013 163.462 26.24 163.355 26.336C163.248 26.4213 163.088 26.464 162.875 26.464H157.499V25.472H162.427L162.155 25.696C162.155 25.1627 162.075 24.7093 161.915 24.336C161.766 23.9627 161.536 23.68 161.227 23.488C160.928 23.2853 160.555 23.184 160.107 23.184C159.606 23.184 159.179 23.3013 158.827 23.536C158.486 23.7707 158.224 24.096 158.043 24.512C157.862 24.928 157.771 25.4133 157.771 25.968V26.064C157.771 27.0027 157.99 27.712 158.427 28.192C158.875 28.6613 159.52 28.896 160.363 28.896C160.683 28.896 161.019 28.8533 161.371 28.768C161.734 28.6827 162.075 28.5387 162.395 28.336C162.576 28.2293 162.736 28.1813 162.875 28.192C163.024 28.2027 163.142 28.2507 163.227 28.336C163.323 28.4213 163.382 28.528 163.403 28.656C163.424 28.784 163.403 28.9173 163.339 29.056C163.275 29.184 163.163 29.3013 163.003 29.408C162.64 29.6533 162.219 29.84 161.739 29.968C161.259 30.0853 160.795 30.144 160.347 30.144ZM166.093 30.112C165.826 30.112 165.623 30.0427 165.485 29.904C165.346 29.7547 165.277 29.552 165.277 29.296V22.896C165.277 22.6293 165.346 22.4267 165.485 22.288C165.623 22.1493 165.815 22.08 166.061 22.08C166.317 22.08 166.509 22.1493 166.637 22.288C166.775 22.4267 166.845 22.6293 166.845 22.896V24.064H166.685C166.855 23.424 167.17 22.9387 167.629 22.608C168.087 22.2773 168.674 22.0853 169.389 22.032C169.581 22.0213 169.73 22.0693 169.837 22.176C169.954 22.2827 170.018 22.448 170.029 22.672C170.05 22.896 170.002 23.0773 169.885 23.216C169.767 23.344 169.586 23.4187 169.341 23.44L169.037 23.472C168.343 23.536 167.815 23.7547 167.453 24.128C167.09 24.5013 166.909 25.0133 166.909 25.664V29.296C166.909 29.552 166.839 29.7547 166.701 29.904C166.573 30.0427 166.37 30.112 166.093 30.112Z" fill="#ABABAD"/>
    </svg>