<svg width="25" height="24" viewBox="0 0 25 24" fill="none" xmlns="http://www.w3.org/2000/svg">
<path d="M0.5 2.75C0.5 1.23122 1.73122 0 3.25 0H19.75C21.2688 0 22.5 1.23122 22.5 2.75V11.4995C22.0384 11.1527 21.5355 10.858 21 10.6241V2.75C21 2.05964 20.4404 1.5 19.75 1.5H3.25C2.55964 1.5 2 2.05964 2 2.75V19.25C2 19.9404 2.55964 20.5 3.25 20.5H11.1241C11.358 21.0355 11.6527 21.5384 11.9995 22H3.25C1.73122 22 0.5 20.7688 0.5 19.25V2.75ZM4.25 12.9981L12.0009 12.9981C11.654 13.4596 11.3591 13.9625 11.1249 14.4981L4.25 14.4981C3.83579 14.4981 3.5 14.1623 3.5 13.7481C3.5 13.3339 3.83579 12.9981 4.25 12.9981ZM3.5 17.7511C3.5 17.3369 3.83579 17.0011 4.25 17.0011L9.75231 17.0011C10.1665 17.0011 10.5023 17.3369 10.5023 17.7511C10.5023 18.1653 10.1665 18.5011 9.75231 18.5011L4.25 18.5011C3.83578 18.5011 3.5 18.1653 3.5 17.7511ZM9.00167 2.99966C9.303 2.99972 9.57504 3.18012 9.69235 3.45768L12.4408 9.96057C12.6021 10.3421 12.4235 10.7821 12.042 10.9434C11.6605 11.1046 11.2204 10.9261 11.0592 10.5445L10.6184 9.50171H7.38208L6.94073 10.5448C6.77932 10.9263 6.33923 11.1047 5.95775 10.9433C5.57628 10.7819 5.39789 10.3418 5.5593 9.96029L8.31081 3.45741C8.42823 3.1799 8.70034 2.9996 9.00167 2.99966ZM8.01677 8.00171H9.98444L9.00114 5.67524L8.01677 8.00171ZM15.25 2.99991C15.6642 2.99991 16 3.33569 16 3.74991V5H17.2501C17.6643 5 18.0001 5.33579 18.0001 5.75C18.0001 6.16421 17.6643 6.5 17.2501 6.5H16V7.7476C16 8.16181 15.6642 8.4976 15.25 8.4976C14.8358 8.4976 14.5 8.16181 14.5 7.7476V6.5H13.2524C12.8382 6.5 12.5024 6.16421 12.5024 5.75C12.5024 5.33579 12.8382 5 13.2524 5H14.5V3.74991C14.5 3.33569 14.8358 2.99991 15.25 2.99991ZM24.5 17.5C24.5 21.0899 21.5899 24 18 24C14.4101 24 11.5 21.0899 11.5 17.5C11.5 13.9101 14.4101 11 18 11C21.5899 11 24.5 13.9101 24.5 17.5ZM18.5 13.5C18.5 13.2239 18.2761 13 18 13C17.7239 13 17.5 13.2239 17.5 13.5V17H14C13.7239 17 13.5 17.2239 13.5 17.5C13.5 17.7761 13.7239 18 14 18H17.5V21.5C17.5 21.7761 17.7239 22 18 22C18.2761 22 18.5 21.7761 18.5 21.5V18H22C22.2761 18 22.5 17.7761 22.5 17.5C22.5 17.2239 22.2761 17 22 17H18.5V13.5Z" fill="white"/>
</svg>
