<svg width="23" height="24" viewBox="0 0 23 24" fill="none" xmlns="http://www.w3.org/2000/svg">
<path d="M0.5 3C0.5 1.34314 1.84315 0 3.5 0C5.15685 0 6.5 1.34315 6.5 3V21C6.5 22.6569 5.15685 24 3.5 24C1.84315 24 0.5 22.6569 0.5 21V3ZM3.5 2C2.94771 2 2.5 2.44772 2.5 3V21C2.5 21.5523 2.94772 22 3.5 22C4.05229 22 4.5 21.5523 4.5 21V3C4.5 2.44772 4.05228 2 3.5 2ZM8.5 9C8.5 7.34315 9.84315 6 11.5 6C13.1569 6 14.5 7.34315 14.5 9V21C14.5 22.6569 13.1569 24 11.5 24C9.84315 24 8.5 22.6569 8.5 21V9ZM11.5 8C10.9477 8 10.5 8.44772 10.5 9V21C10.5 21.5523 10.9477 22 11.5 22C12.0523 22 12.5 21.5523 12.5 21V9C12.5 8.44772 12.0523 8 11.5 8ZM19.5 12C17.8431 12 16.5 13.3431 16.5 15V21C16.5 22.6569 17.8431 24 19.5 24C21.1569 24 22.5 22.6569 22.5 21V15C22.5 13.3431 21.1569 12 19.5 12ZM18.5 15C18.5 14.4477 18.9477 14 19.5 14C20.0523 14 20.5 14.4477 20.5 15V21C20.5 21.5523 20.0523 22 19.5 22C18.9477 22 18.5 21.5523 18.5 21V15Z" fill="white"/>
</svg>
