<svg width="218" height="51" viewBox="0 0 218 51" fill="none" xmlns="http://www.w3.org/2000/svg">
<path d="M1 9C1 4.58172 4.58172 1 9 1H209C213.418 1 217 4.58172 217 9V41C217 45.4183 213.418 49 209 49H9C4.58172 49 1 45.4183 1 41V9Z" fill="#21B6F8"/>
<path d="M0.5 9C0.5 4.30558 4.30558 0.5 9 0.5H209C213.694 0.5 217.5 4.30558 217.5 9H216.5C216.5 4.85786 213.142 1.5 209 1.5H9C4.85786 1.5 1.5 4.85786 1.5 9H0.5ZM217.5 42.5C217.5 47.1944 213.694 51 209 51H9C4.30558 51 0.5 47.1944 0.5 42.5L1.5 41C1.5 44.3137 4.85786 47 9 47H209C213.142 47 216.5 44.3137 216.5 41L217.5 42.5ZM9 51C4.30558 51 0.5 47.1944 0.5 42.5V9C0.5 4.30558 4.30558 0.5 9 0.5V1.5C4.85786 1.5 1.5 4.85786 1.5 9V41C1.5 44.3137 4.85786 47 9 47V51ZM209 0.5C213.694 0.5 217.5 4.30558 217.5 9V42.5C217.5 47.1944 213.694 51 209 51V47C213.142 47 216.5 44.3137 216.5 41V9C216.5 4.85786 213.142 1.5 209 1.5V0.5Z" fill="#009BD5"/>
<path d="M38.12 30.16C37.5333 30.16 36.968 30.1067 36.424 30C35.8907 29.904 35.3947 29.76 34.936 29.568C34.488 29.376 34.088 29.1467 33.736 28.88L34.36 27.264C34.712 27.5093 35.08 27.7227 35.464 27.904C35.8587 28.0747 36.2747 28.208 36.712 28.304C37.16 28.3893 37.6293 28.432 38.12 28.432C38.9627 28.432 39.576 28.2933 39.96 28.016C40.344 27.728 40.536 27.36 40.536 26.912C40.536 26.6667 40.4773 26.4587 40.36 26.288C40.2427 26.1067 40.0507 25.952 39.784 25.824C39.5173 25.696 39.1653 25.5893 38.728 25.504L36.968 25.136C35.9547 24.9227 35.1973 24.5653 34.696 24.064C34.2053 23.552 33.96 22.88 33.96 22.048C33.96 21.344 34.1467 20.7307 34.52 20.208C34.8933 19.6853 35.4107 19.28 36.072 18.992C36.7333 18.704 37.496 18.56 38.36 18.56C38.872 18.56 39.3627 18.6133 39.832 18.72C40.312 18.816 40.7493 18.9653 41.144 19.168C41.5493 19.36 41.9013 19.5947 42.2 19.872L41.576 21.408C41.128 21.0347 40.6373 20.7573 40.104 20.576C39.5707 20.384 38.984 20.288 38.344 20.288C37.8533 20.288 37.432 20.3573 37.08 20.496C36.728 20.6347 36.456 20.832 36.264 21.088C36.0827 21.3333 35.992 21.6267 35.992 21.968C35.992 22.352 36.12 22.6613 36.376 22.896C36.632 23.12 37.0693 23.296 37.688 23.424L39.432 23.792C40.488 24.016 41.272 24.368 41.784 24.848C42.3067 25.328 42.568 25.968 42.568 26.768C42.568 27.44 42.3867 28.032 42.024 28.544C41.6613 29.056 41.144 29.456 40.472 29.744C39.8107 30.0213 39.0267 30.16 38.12 30.16ZM44.5058 20.496V18.544H46.7458V20.496H44.5058ZM44.6338 30V22.176H46.6338V30H44.6338ZM52.8599 33.04C52.1345 33.04 51.4519 32.9547 50.8119 32.784C50.1825 32.624 49.6279 32.3733 49.1479 32.032L49.7239 30.64C50.0225 30.832 50.3372 30.992 50.6679 31.12C50.9985 31.2587 51.3345 31.36 51.6759 31.424C52.0172 31.488 52.3585 31.52 52.6999 31.52C53.4145 31.52 53.9479 31.344 54.2999 30.992C54.6625 30.6507 54.8439 30.1387 54.8439 29.456V28.016H54.9879C54.8279 28.56 54.4919 28.9973 53.9799 29.328C53.4785 29.648 52.9079 29.808 52.2679 29.808C51.5639 29.808 50.9505 29.648 50.4279 29.328C49.9052 28.9973 49.4999 28.5387 49.2119 27.952C48.9239 27.3653 48.7799 26.6827 48.7799 25.904C48.7799 25.1253 48.9239 24.448 49.2119 23.872C49.4999 23.2853 49.9052 22.832 50.4279 22.512C50.9505 22.1813 51.5639 22.016 52.2679 22.016C52.9292 22.016 53.5052 22.1813 53.9959 22.512C54.4972 22.832 54.8225 23.2587 54.9719 23.792H54.8439V22.176H56.7959V29.216C56.7959 30.0587 56.6465 30.7627 56.3479 31.328C56.0492 31.904 55.6065 32.3307 55.0199 32.608C54.4332 32.896 53.7132 33.04 52.8599 33.04ZM52.8119 28.288C53.4305 28.288 53.9212 28.0747 54.2839 27.648C54.6465 27.2213 54.8279 26.64 54.8279 25.904C54.8279 25.168 54.6465 24.592 54.2839 24.176C53.9212 23.7493 53.4305 23.536 52.8119 23.536C52.1932 23.536 51.7025 23.7493 51.3399 24.176C50.9772 24.592 50.7959 25.168 50.7959 25.904C50.7959 26.64 50.9772 27.2213 51.3399 27.648C51.7025 28.0747 52.1932 28.288 52.8119 28.288ZM59.3681 30V22.176H61.3201V23.744H61.1441C61.3788 23.1787 61.7415 22.752 62.2321 22.464C62.7335 22.1653 63.2988 22.016 63.9281 22.016C64.5575 22.016 65.0748 22.1333 65.4801 22.368C65.8855 22.6027 66.1895 22.96 66.3921 23.44C66.5948 23.9093 66.6961 24.5067 66.6961 25.232V30H64.6961V25.328C64.6961 24.9227 64.6428 24.592 64.5361 24.336C64.4401 24.08 64.2855 23.8933 64.0721 23.776C63.8695 23.648 63.6081 23.584 63.2881 23.584C62.9041 23.584 62.5681 23.6693 62.2801 23.84C61.9921 24 61.7681 24.2347 61.6081 24.544C61.4481 24.8427 61.3681 25.1947 61.3681 25.6V30H59.3681ZM78.92 30.16C77.3733 30.16 76.1893 29.76 75.368 28.96C74.5573 28.1493 74.152 26.9547 74.152 25.376V18.72H76.2V25.36C76.2 26.3733 76.4293 27.136 76.888 27.648C77.3573 28.1493 78.0347 28.4 78.92 28.4C79.8053 28.4 80.4773 28.1493 80.936 27.648C81.3947 27.136 81.624 26.3733 81.624 25.36V18.72H83.656V25.376C83.656 26.9547 83.256 28.1493 82.456 28.96C81.656 29.76 80.4773 30.16 78.92 30.16ZM86.3525 32.88V22.176H88.3045V23.824H88.1445C88.3045 23.28 88.6298 22.8427 89.1205 22.512C89.6218 22.1813 90.2032 22.016 90.8645 22.016C91.5472 22.016 92.1445 22.1813 92.6565 22.512C93.1792 22.8427 93.5845 23.312 93.8725 23.92C94.1605 24.5173 94.3045 25.2373 94.3045 26.08C94.3045 26.912 94.1605 27.6373 93.8725 28.256C93.5845 28.864 93.1845 29.3333 92.6725 29.664C92.1605 29.9947 91.5578 30.16 90.8645 30.16C90.2138 30.16 89.6432 30 89.1525 29.68C88.6618 29.3493 88.3312 28.9227 88.1605 28.4H88.3525V32.88H86.3525ZM90.3045 28.64C90.9018 28.64 91.3818 28.4267 91.7445 28C92.1072 27.5627 92.2885 26.9227 92.2885 26.08C92.2885 25.2267 92.1072 24.592 91.7445 24.176C91.3818 23.7493 90.9018 23.536 90.3045 23.536C89.7072 23.536 89.2272 23.7493 88.8645 24.176C88.5018 24.592 88.3205 25.2267 88.3205 26.08C88.3205 26.9227 88.5018 27.5627 88.8645 28C89.2272 28.4267 89.7072 28.64 90.3045 28.64ZM103.835 30.16C103.269 30.16 102.763 30.0533 102.315 29.84C101.877 29.616 101.531 29.3173 101.275 28.944C101.029 28.5707 100.907 28.1493 100.907 27.68C100.907 27.104 101.056 26.6507 101.355 26.32C101.653 25.9787 102.139 25.7333 102.811 25.584C103.483 25.4347 104.384 25.36 105.515 25.36H106.315V26.512H105.531C105.029 26.512 104.608 26.5333 104.267 26.576C103.925 26.608 103.648 26.6667 103.435 26.752C103.232 26.8267 103.083 26.9333 102.987 27.072C102.901 27.2107 102.859 27.3813 102.859 27.584C102.859 27.936 102.981 28.224 103.227 28.448C103.472 28.672 103.813 28.784 104.251 28.784C104.603 28.784 104.912 28.704 105.179 28.544C105.456 28.3733 105.675 28.144 105.835 27.856C105.995 27.568 106.075 27.2373 106.075 26.864V25.024C106.075 24.4907 105.957 24.1067 105.723 23.872C105.488 23.6373 105.093 23.52 104.539 23.52C104.101 23.52 103.653 23.5893 103.195 23.728C102.736 23.856 102.272 24.0587 101.803 24.336L101.227 22.976C101.504 22.784 101.829 22.6187 102.203 22.48C102.587 22.3307 102.987 22.2187 103.403 22.144C103.829 22.0587 104.229 22.016 104.603 22.016C105.371 22.016 106 22.1333 106.491 22.368C106.992 22.6027 107.365 22.96 107.611 23.44C107.856 23.9093 107.979 24.5173 107.979 25.264V30H106.107V28.336H106.235C106.16 28.7093 106.011 29.0347 105.787 29.312C105.573 29.5787 105.301 29.7867 104.971 29.936C104.64 30.0853 104.261 30.16 103.835 30.16ZM113.373 30.16C112.935 30.16 112.509 30.1227 112.093 30.048C111.687 29.9733 111.314 29.872 110.973 29.744C110.631 29.6053 110.333 29.4347 110.077 29.232L110.589 27.92C110.855 28.0907 111.143 28.24 111.453 28.368C111.762 28.496 112.082 28.592 112.413 28.656C112.743 28.72 113.069 28.752 113.389 28.752C113.901 28.752 114.279 28.6667 114.525 28.496C114.781 28.3147 114.909 28.08 114.909 27.792C114.909 27.5467 114.823 27.36 114.653 27.232C114.493 27.0933 114.247 26.992 113.917 26.928L112.317 26.624C111.655 26.496 111.149 26.256 110.797 25.904C110.455 25.5413 110.285 25.0773 110.285 24.512C110.285 24 110.423 23.5573 110.701 23.184C110.989 22.8107 111.383 22.5227 111.885 22.32C112.386 22.1173 112.962 22.016 113.613 22.016C113.986 22.016 114.349 22.0533 114.701 22.128C115.053 22.192 115.383 22.2933 115.693 22.432C116.013 22.56 116.29 22.7307 116.525 22.944L115.981 24.256C115.778 24.0853 115.543 23.9413 115.277 23.824C115.01 23.696 114.733 23.6 114.445 23.536C114.167 23.4613 113.895 23.424 113.629 23.424C113.106 23.424 112.717 23.5147 112.461 23.696C112.215 23.8773 112.093 24.1173 112.093 24.416C112.093 24.64 112.167 24.8267 112.317 24.976C112.466 25.1253 112.695 25.2267 113.005 25.28L114.605 25.584C115.298 25.712 115.821 25.9467 116.173 26.288C116.535 26.6293 116.717 27.088 116.717 27.664C116.717 28.1867 116.578 28.6347 116.301 29.008C116.023 29.3813 115.634 29.6693 115.133 29.872C114.631 30.064 114.045 30.16 113.373 30.16ZM127.714 30.16C127.127 30.16 126.562 30.1067 126.018 30C125.484 29.904 124.988 29.76 124.53 29.568C124.082 29.376 123.682 29.1467 123.33 28.88L123.954 27.264C124.306 27.5093 124.674 27.7227 125.058 27.904C125.452 28.0747 125.868 28.208 126.306 28.304C126.754 28.3893 127.223 28.432 127.714 28.432C128.556 28.432 129.17 28.2933 129.554 28.016C129.938 27.728 130.13 27.36 130.13 26.912C130.13 26.6667 130.071 26.4587 129.954 26.288C129.836 26.1067 129.644 25.952 129.378 25.824C129.111 25.696 128.759 25.5893 128.322 25.504L126.562 25.136C125.548 24.9227 124.791 24.5653 124.29 24.064C123.799 23.552 123.554 22.88 123.554 22.048C123.554 21.344 123.74 20.7307 124.114 20.208C124.487 19.6853 125.004 19.28 125.666 18.992C126.327 18.704 127.09 18.56 127.954 18.56C128.466 18.56 128.956 18.6133 129.426 18.72C129.906 18.816 130.343 18.9653 130.738 19.168C131.143 19.36 131.495 19.5947 131.794 19.872L131.17 21.408C130.722 21.0347 130.231 20.7573 129.698 20.576C129.164 20.384 128.578 20.288 127.938 20.288C127.447 20.288 127.026 20.3573 126.674 20.496C126.322 20.6347 126.05 20.832 125.858 21.088C125.676 21.3333 125.586 21.6267 125.586 21.968C125.586 22.352 125.714 22.6613 125.97 22.896C126.226 23.12 126.663 23.296 127.282 23.424L129.026 23.792C130.082 24.016 130.866 24.368 131.378 24.848C131.9 25.328 132.162 25.968 132.162 26.768C132.162 27.44 131.98 28.032 131.618 28.544C131.255 29.056 130.738 29.456 130.066 29.744C129.404 30.0213 128.62 30.16 127.714 30.16ZM137.733 30.16C136.688 30.16 135.909 29.8987 135.397 29.376C134.885 28.8533 134.629 28.0907 134.629 27.088V23.68H133.125V22.176H134.629V19.84H136.629V22.176H138.997V23.68H136.629V26.976C136.629 27.488 136.741 27.872 136.965 28.128C137.189 28.384 137.552 28.512 138.053 28.512C138.203 28.512 138.357 28.496 138.517 28.464C138.677 28.4213 138.843 28.3787 139.013 28.336L139.317 29.808C139.125 29.9147 138.88 30 138.581 30.064C138.293 30.128 138.011 30.16 137.733 30.16ZM143.622 30.16C142.971 30.16 142.433 30.0427 142.006 29.808C141.579 29.5627 141.259 29.2 141.046 28.72C140.843 28.24 140.742 27.6427 140.742 26.928V22.176H142.742V26.96C142.742 27.3227 142.79 27.6267 142.886 27.872C142.993 28.1173 143.147 28.2987 143.35 28.416C143.563 28.5333 143.83 28.592 144.15 28.592C144.513 28.592 144.827 28.512 145.094 28.352C145.371 28.1813 145.585 27.9467 145.734 27.648C145.894 27.3387 145.974 26.9813 145.974 26.576V22.176H147.974V30H146.022V28.368H146.246C146.022 28.944 145.681 29.3867 145.222 29.696C144.774 30.0053 144.241 30.16 143.622 30.16ZM153.564 30.16C152.881 30.16 152.278 29.9947 151.756 29.664C151.244 29.3333 150.844 28.864 150.556 28.256C150.268 27.6373 150.124 26.912 150.124 26.08C150.124 25.2373 150.268 24.5173 150.556 23.92C150.844 23.312 151.244 22.8427 151.756 22.512C152.278 22.1813 152.881 22.016 153.564 22.016C154.214 22.016 154.78 22.176 155.26 22.496C155.75 22.816 156.081 23.2373 156.252 23.76H156.076V18.72H158.076V30H156.124V28.336H156.268C156.108 28.8907 155.782 29.3333 155.292 29.664C154.801 29.9947 154.225 30.16 153.564 30.16ZM154.124 28.64C154.721 28.64 155.201 28.4267 155.564 28C155.926 27.5627 156.108 26.9227 156.108 26.08C156.108 25.2267 155.926 24.592 155.564 24.176C155.201 23.7493 154.721 23.536 154.124 23.536C153.526 23.536 153.046 23.7493 152.684 24.176C152.321 24.592 152.14 25.2267 152.14 26.08C152.14 26.9227 152.321 27.5627 152.684 28C153.046 28.4267 153.526 28.64 154.124 28.64ZM164.505 30.16C163.62 30.16 162.857 29.9947 162.217 29.664C161.577 29.3333 161.081 28.864 160.729 28.256C160.388 27.648 160.217 26.928 160.217 26.096C160.217 25.2853 160.383 24.576 160.713 23.968C161.055 23.36 161.519 22.8853 162.105 22.544C162.703 22.192 163.38 22.016 164.137 22.016C164.884 22.016 165.524 22.176 166.057 22.496C166.591 22.816 167.001 23.2693 167.289 23.856C167.588 24.4427 167.737 25.1413 167.737 25.952V26.544H161.833V25.392H166.329L166.073 25.632C166.073 24.9067 165.913 24.352 165.593 23.968C165.273 23.5733 164.815 23.376 164.217 23.376C163.769 23.376 163.385 23.4827 163.065 23.696C162.756 23.8987 162.516 24.192 162.345 24.576C162.185 24.9493 162.105 25.3973 162.105 25.92V26.032C162.105 26.6187 162.196 27.104 162.377 27.488C162.559 27.872 162.831 28.16 163.193 28.352C163.556 28.544 164.004 28.64 164.537 28.64C164.975 28.64 165.412 28.576 165.849 28.448C166.287 28.3093 166.687 28.096 167.049 27.808L167.609 29.152C167.236 29.4613 166.767 29.7067 166.201 29.888C165.636 30.0693 165.071 30.16 164.505 30.16ZM169.821 30V22.176H171.773V23.744H171.597C171.832 23.1787 172.195 22.752 172.685 22.464C173.187 22.1653 173.752 22.016 174.381 22.016C175.011 22.016 175.528 22.1333 175.933 22.368C176.339 22.6027 176.643 22.96 176.845 23.44C177.048 23.9093 177.149 24.5067 177.149 25.232V30H175.149V25.328C175.149 24.9227 175.096 24.592 174.989 24.336C174.893 24.08 174.739 23.8933 174.525 23.776C174.323 23.648 174.061 23.584 173.741 23.584C173.357 23.584 173.021 23.6693 172.733 23.84C172.445 24 172.221 24.2347 172.061 24.544C171.901 24.8427 171.821 25.1947 171.821 25.6V30H169.821ZM183.265 30.16C182.219 30.16 181.441 29.8987 180.929 29.376C180.417 28.8533 180.161 28.0907 180.161 27.088V23.68H178.657V22.176H180.161V19.84H182.161V22.176H184.529V23.68H182.161V26.976C182.161 27.488 182.273 27.872 182.497 28.128C182.721 28.384 183.083 28.512 183.585 28.512C183.734 28.512 183.889 28.496 184.049 28.464C184.209 28.4213 184.374 28.3787 184.545 28.336L184.849 29.808C184.657 29.9147 184.411 30 184.113 30.064C183.825 30.128 183.542 30.16 183.265 30.16Z" fill="#181818"/>
</svg>
