<svg width="303" height="53" viewBox="0 0 303 53" fill="none" xmlns="http://www.w3.org/2000/svg">
<mask id="path-1-outside-1_137_803" maskUnits="userSpaceOnUse" x="0.5" y="0" width="303" height="53" fill="black">
<rect fill="white" x="0.5" width="303" height="53"/>
<path d="M1.5 9C1.5 4.58172 5.08172 1 9.5 1H294C298.418 1 302 4.58172 302 9V41C302 45.4183 298.418 49 294 49H9.5C5.08172 49 1.5 45.4183 1.5 41V9Z"/>
</mask>
<path d="M1.5 9C1.5 4.58172 5.08172 1 9.5 1H294C298.418 1 302 4.58172 302 9V41C302 45.4183 298.418 49 294 49H9.5C5.08172 49 1.5 45.4183 1.5 41V9Z" fill="#101113"/>
<path d="M0.5 9C0.5 4.02944 4.52944 0 9.5 0H294C298.971 0 303 4.02944 303 9H301C301 5.13401 297.866 2 294 2H9.5C5.63401 2 2.5 5.13401 2.5 9H0.5ZM303 44C303 48.9706 298.971 53 294 53H9.5C4.52944 53 0.5 48.9706 0.5 44L2.5 41C2.5 43.2091 5.63401 45 9.5 45H294C297.866 45 301 43.2091 301 41L303 44ZM9.5 53C4.52944 53 0.5 48.9706 0.5 44V9C0.5 4.02944 4.52944 0 9.5 0V2C5.63401 2 2.5 5.13401 2.5 9V41C2.5 43.2091 5.63401 45 9.5 45V53ZM294 0C298.971 0 303 4.02944 303 9V44C303 48.9706 298.971 53 294 53V45C297.866 45 301 43.2091 301 41V9C301 5.13401 297.866 2 294 2V0Z" fill="#3A3B3D" mask="url(#path-1-outside-1_137_803)"/>
<path d="M109.322 30.144C108.586 30.144 107.877 30.0587 107.194 29.888C106.522 29.7173 105.935 29.4613 105.434 29.12C105.231 28.9813 105.109 28.816 105.066 28.624C105.023 28.4213 105.039 28.24 105.114 28.08C105.199 27.9093 105.322 27.792 105.482 27.728C105.653 27.664 105.845 27.7013 106.058 27.84C106.538 28.1493 107.045 28.3787 107.578 28.528C108.111 28.6667 108.693 28.736 109.322 28.736C110.229 28.736 110.895 28.576 111.322 28.256C111.759 27.9253 111.978 27.4987 111.978 26.976C111.978 26.5493 111.823 26.2133 111.514 25.968C111.205 25.712 110.687 25.5093 109.962 25.36L108.25 25.008C107.237 24.7947 106.479 24.4427 105.978 23.952C105.487 23.4613 105.242 22.8 105.242 21.968C105.242 21.296 105.418 20.704 105.77 20.192C106.133 19.68 106.634 19.2853 107.274 19.008C107.914 18.72 108.65 18.576 109.482 18.576C110.143 18.576 110.762 18.6613 111.338 18.832C111.925 19.0027 112.447 19.264 112.906 19.616C113.087 19.744 113.194 19.8987 113.226 20.08C113.258 20.2613 113.231 20.432 113.146 20.592C113.061 20.7413 112.933 20.8427 112.762 20.896C112.591 20.9493 112.394 20.9067 112.17 20.768C111.754 20.4907 111.327 20.2933 110.89 20.176C110.453 20.048 109.978 19.984 109.466 19.984C108.677 19.984 108.047 20.16 107.578 20.512C107.119 20.864 106.89 21.3333 106.89 21.92C106.89 22.368 107.034 22.7253 107.322 22.992C107.61 23.2587 108.09 23.4613 108.762 23.6L110.458 23.952C111.525 24.176 112.319 24.5227 112.842 24.992C113.365 25.4507 113.626 26.0747 113.626 26.864C113.626 27.5253 113.45 28.1013 113.098 28.592C112.746 29.0827 112.25 29.4667 111.61 29.744C110.97 30.0107 110.207 30.144 109.322 30.144ZM116.139 30.112C115.606 30.112 115.339 29.84 115.339 29.296V19.424C115.339 18.88 115.606 18.608 116.139 18.608C116.683 18.608 116.955 18.88 116.955 19.424V25.6H116.987L119.979 22.624C120.15 22.4533 120.304 22.32 120.443 22.224C120.582 22.128 120.763 22.08 120.987 22.08C121.318 22.08 121.531 22.2027 121.627 22.448C121.734 22.6933 121.67 22.9387 121.435 23.184L118.635 25.952L121.723 29.008C121.894 29.1787 121.974 29.3493 121.963 29.52C121.952 29.6907 121.883 29.8347 121.755 29.952C121.627 30.0587 121.467 30.112 121.275 30.112C121.03 30.112 120.832 30.064 120.683 29.968C120.544 29.872 120.379 29.728 120.187 29.536L116.987 26.432H116.955V29.296C116.955 29.84 116.683 30.112 116.139 30.112ZM124.389 20.448C124.069 20.448 123.818 20.368 123.637 20.208C123.466 20.048 123.381 19.824 123.381 19.536C123.381 18.928 123.717 18.624 124.389 18.624C125.061 18.624 125.397 18.928 125.397 19.536C125.397 20.144 125.061 20.448 124.389 20.448ZM124.389 30.096C123.856 30.096 123.589 29.8027 123.589 29.216V22.976C123.589 22.4 123.856 22.112 124.389 22.112C124.933 22.112 125.205 22.4 125.205 22.976V29.216C125.205 29.8027 124.933 30.096 124.389 30.096ZM128.28 32.992C127.746 32.992 127.48 32.72 127.48 32.176V22.896C127.48 22.352 127.741 22.08 128.264 22.08C128.797 22.08 129.064 22.352 129.064 22.896V23.504C129.298 23.056 129.645 22.704 130.104 22.448C130.562 22.1813 131.085 22.048 131.672 22.048C132.365 22.048 132.968 22.2133 133.48 22.544C134.002 22.8747 134.402 23.344 134.68 23.952C134.968 24.5493 135.112 25.264 135.112 26.096C135.112 26.928 134.968 27.648 134.68 28.256C134.402 28.864 134.002 29.3333 133.48 29.664C132.968 29.984 132.365 30.144 131.672 30.144C131.096 30.144 130.578 30.0213 130.12 29.776C129.672 29.52 129.33 29.1733 129.096 28.736V32.176C129.096 32.72 128.824 32.992 128.28 32.992ZM131.272 28.896C131.944 28.896 132.477 28.656 132.872 28.176C133.277 27.696 133.48 27.0027 133.48 26.096C133.48 25.1893 133.277 24.5013 132.872 24.032C132.477 23.552 131.944 23.312 131.272 23.312C130.6 23.312 130.061 23.552 129.656 24.032C129.261 24.5013 129.064 25.1893 129.064 26.096C129.064 27.0027 129.261 27.696 129.656 28.176C130.061 28.656 130.6 28.896 131.272 28.896ZM142.432 30.112C141.888 30.112 141.616 29.84 141.616 29.296V23.44H140.72C140.282 23.44 140.064 23.232 140.064 22.816C140.064 22.4 140.282 22.192 140.72 22.192H141.616V22.048C141.616 20.992 141.877 20.1973 142.4 19.664C142.922 19.12 143.685 18.8 144.688 18.704L145.184 18.672C145.408 18.6507 145.573 18.6987 145.68 18.816C145.797 18.9227 145.856 19.0613 145.856 19.232C145.856 19.392 145.813 19.536 145.728 19.664C145.642 19.792 145.514 19.8667 145.344 19.888L145.04 19.904C144.41 19.9467 143.952 20.1227 143.664 20.432C143.376 20.7413 143.232 21.2053 143.232 21.824V22.192H144.784C145.232 22.192 145.456 22.4 145.456 22.816C145.456 23.232 145.232 23.44 144.784 23.44H143.232V29.296C143.232 29.84 142.965 30.112 142.432 30.112ZM149.872 30.144C149.082 30.144 148.4 29.9787 147.824 29.648C147.248 29.3173 146.8 28.8533 146.48 28.256C146.17 27.648 146.016 26.928 146.016 26.096C146.016 25.264 146.17 24.5493 146.48 23.952C146.8 23.344 147.248 22.8747 147.824 22.544C148.4 22.2133 149.082 22.048 149.872 22.048C150.64 22.048 151.312 22.2133 151.888 22.544C152.464 22.8747 152.912 23.344 153.232 23.952C153.552 24.5493 153.712 25.264 153.712 26.096C153.712 26.928 153.552 27.648 153.232 28.256C152.912 28.8533 152.464 29.3173 151.888 29.648C151.312 29.9787 150.64 30.144 149.872 30.144ZM149.872 28.896C150.533 28.896 151.066 28.656 151.472 28.176C151.877 27.696 152.08 27.0027 152.08 26.096C152.08 25.1893 151.877 24.5013 151.472 24.032C151.066 23.552 150.533 23.312 149.872 23.312C149.2 23.312 148.661 23.552 148.256 24.032C147.85 24.5013 147.648 25.1893 147.648 26.096C147.648 27.0027 147.85 27.696 148.256 28.176C148.661 28.656 149.2 28.896 149.872 28.896ZM156.343 30.112C155.799 30.112 155.527 29.84 155.527 29.296V22.896C155.527 22.352 155.788 22.08 156.311 22.08C156.833 22.08 157.095 22.352 157.095 22.896V23.584C157.308 23.104 157.628 22.736 158.055 22.48C158.492 22.224 159.02 22.0747 159.639 22.032C160.033 22 160.247 22.2133 160.279 22.672C160.321 23.1413 160.092 23.3973 159.591 23.44L159.287 23.472C157.868 23.6107 157.159 24.3413 157.159 25.664V29.296C157.159 29.84 156.887 30.112 156.343 30.112ZM168.226 30.144C167.394 30.144 166.765 29.904 166.338 29.424C165.922 28.944 165.714 28.24 165.714 27.312V19.424C165.714 18.88 165.981 18.608 166.514 18.608C167.058 18.608 167.33 18.88 167.33 19.424V27.216C167.33 28.272 167.757 28.8 168.61 28.8C168.706 28.8 168.791 28.7947 168.866 28.784C168.941 28.7733 169.015 28.768 169.09 28.768C169.218 28.7573 169.309 28.7947 169.362 28.88C169.415 28.9547 169.442 29.1147 169.442 29.36C169.442 29.7973 169.239 30.048 168.834 30.112C168.727 30.1227 168.621 30.128 168.514 30.128C168.418 30.1387 168.322 30.144 168.226 30.144ZM173.101 30.144C172.557 30.144 172.071 30.0373 171.645 29.824C171.218 29.6107 170.877 29.3227 170.621 28.96C170.375 28.5973 170.253 28.1867 170.253 27.728C170.253 27.152 170.397 26.6987 170.685 26.368C170.983 26.0373 171.469 25.7973 172.141 25.648C172.823 25.4987 173.741 25.424 174.893 25.424H175.437V25.008C175.437 24.4 175.309 23.9627 175.053 23.696C174.797 23.4293 174.375 23.296 173.789 23.296C173.447 23.296 173.09 23.3387 172.717 23.424C172.354 23.5093 171.975 23.6533 171.581 23.856C171.357 23.9627 171.17 23.9787 171.021 23.904C170.882 23.8293 170.786 23.712 170.733 23.552C170.679 23.392 170.685 23.2267 170.749 23.056C170.813 22.8853 170.946 22.7573 171.149 22.672C171.618 22.4587 172.082 22.304 172.541 22.208C172.999 22.1013 173.431 22.048 173.837 22.048C174.903 22.048 175.693 22.304 176.205 22.816C176.717 23.3173 176.973 24.1067 176.973 25.184V29.296C176.973 29.84 176.722 30.112 176.221 30.112C175.709 30.112 175.453 29.84 175.453 29.296V28.704C175.261 29.152 174.962 29.504 174.557 29.76C174.151 30.016 173.666 30.144 173.101 30.144ZM173.421 28.992C173.997 28.992 174.477 28.7893 174.861 28.384C175.245 27.9787 175.437 27.4667 175.437 26.848V26.416H174.909C174.13 26.416 173.517 26.4533 173.069 26.528C172.631 26.6027 172.317 26.7307 172.125 26.912C171.943 27.0827 171.853 27.3227 171.853 27.632C171.853 28.0373 171.991 28.368 172.269 28.624C172.546 28.8693 172.93 28.992 173.421 28.992ZM182.527 30.144C181.545 30.144 180.815 29.8933 180.335 29.392C179.855 28.8907 179.615 28.1653 179.615 27.216V23.44H178.655C178.206 23.44 177.982 23.232 177.982 22.816C177.982 22.4 178.206 22.192 178.655 22.192H179.615V20.544C179.615 20 179.887 19.728 180.431 19.728C180.964 19.728 181.231 20 181.231 20.544V22.192H183.103C183.551 22.192 183.775 22.4 183.775 22.816C183.775 23.232 183.551 23.44 183.103 23.44H181.231V27.088C181.231 27.6533 181.348 28.08 181.583 28.368C181.828 28.656 182.223 28.8 182.766 28.8C182.959 28.8 183.124 28.784 183.263 28.752C183.401 28.7093 183.524 28.6827 183.631 28.672C183.748 28.672 183.844 28.7147 183.919 28.8C183.993 28.8747 184.031 29.024 184.031 29.248C184.031 29.4187 183.999 29.5733 183.935 29.712C183.881 29.84 183.78 29.9253 183.631 29.968C183.503 30.0213 183.327 30.064 183.103 30.096C182.889 30.128 182.697 30.144 182.527 30.144ZM188.628 30.144C187.348 30.144 186.34 29.7867 185.604 29.072C184.868 28.3467 184.5 27.36 184.5 26.112C184.5 25.312 184.66 24.608 184.98 24C185.311 23.3813 185.764 22.9013 186.34 22.56C186.916 22.2187 187.577 22.048 188.324 22.048C189.401 22.048 190.249 22.3947 190.868 23.088C191.487 23.7707 191.796 24.7147 191.796 25.92C191.796 26.2827 191.583 26.464 191.156 26.464H186.068C186.185 28.0853 187.044 28.896 188.644 28.896C188.964 28.896 189.3 28.8587 189.652 28.784C190.004 28.6987 190.345 28.5493 190.676 28.336C190.9 28.208 191.092 28.1653 191.252 28.208C191.423 28.24 191.545 28.3307 191.62 28.48C191.695 28.6187 191.705 28.7787 191.652 28.96C191.609 29.1307 191.487 29.28 191.284 29.408C190.921 29.6533 190.495 29.84 190.004 29.968C189.524 30.0853 189.065 30.144 188.628 30.144ZM188.388 23.184C187.716 23.184 187.183 23.392 186.788 23.808C186.393 24.224 186.153 24.7787 186.068 25.472H190.436C190.404 24.7467 190.212 24.1867 189.86 23.792C189.508 23.3867 189.017 23.184 188.388 23.184ZM194.374 30.112C193.83 30.112 193.558 29.84 193.558 29.296V22.896C193.558 22.352 193.819 22.08 194.342 22.08C194.865 22.08 195.126 22.352 195.126 22.896V23.584C195.339 23.104 195.659 22.736 196.086 22.48C196.523 22.224 197.051 22.0747 197.67 22.032C198.065 22 198.278 22.2133 198.31 22.672C198.353 23.1413 198.123 23.3973 197.622 23.44L197.318 23.472C195.899 23.6107 195.19 24.3413 195.19 25.664V29.296C195.19 29.84 194.918 30.112 194.374 30.112Z" fill="#ABABAD"/>
</svg>
