<svg width="626" height="149" viewBox="0 0 626 149" fill="none" xmlns="http://www.w3.org/2000/svg">
<rect x="1" y="0.5" width="624" height="148" rx="7.5" fill="#101113"/>
<rect x="1" y="0.5" width="624" height="148" rx="7.5" stroke="#454749"/>
<path d="M30.804 30L35.78 18.72H36.9L41.876 30H40.516L39.124 26.784L39.764 27.12H32.884L33.54 26.784L32.164 30H30.804ZM36.324 20.256L33.748 26.32L33.364 26.016H39.284L38.932 26.32L36.356 20.256H36.324ZM43.8723 30V22.224H45.1363V23.952H44.9603C45.1843 23.3333 45.5469 22.8693 46.0483 22.56C46.5603 22.24 47.1469 22.08 47.8083 22.08C48.4269 22.08 48.9389 22.192 49.3443 22.416C49.7603 22.6293 50.0696 22.9653 50.2723 23.424C50.4749 23.8827 50.5763 24.4587 50.5763 25.152V30H49.2803V25.232C49.2803 24.752 49.2163 24.3573 49.0883 24.048C48.9709 23.7387 48.7789 23.5093 48.5123 23.36C48.2563 23.2107 47.9203 23.136 47.5043 23.136C47.0349 23.136 46.6243 23.2373 46.2723 23.44C45.9203 23.6427 45.6483 23.9253 45.4563 24.288C45.2643 24.6507 45.1683 25.0773 45.1683 25.568V30H43.8723ZM54.2839 32.88L55.7399 29.6V30.16L52.3319 22.224H53.7399L56.5239 29.04H56.0919L58.9079 22.224H60.2679L55.6439 32.88H54.2839ZM69.34 30.144C68.9347 30.144 68.54 30.1013 68.156 30.016C67.7827 29.9413 67.4307 29.8347 67.1 29.696C66.78 29.5467 66.5027 29.3707 66.268 29.168L66.684 28.256C66.94 28.4587 67.2173 28.6293 67.516 28.768C67.8147 28.896 68.1187 28.992 68.428 29.056C68.7373 29.12 69.052 29.152 69.372 29.152C69.98 29.152 70.4387 29.04 70.748 28.816C71.0573 28.592 71.212 28.288 71.212 27.904C71.212 27.6053 71.1107 27.3707 70.908 27.2C70.7053 27.0187 70.3853 26.88 69.948 26.784L68.492 26.464C67.82 26.3253 67.3187 26.0853 66.988 25.744C66.668 25.4027 66.508 24.96 66.508 24.416C66.508 23.936 66.6307 23.5253 66.876 23.184C67.132 22.832 67.4893 22.56 67.948 22.368C68.4067 22.176 68.94 22.08 69.548 22.08C69.9107 22.08 70.2573 22.1173 70.588 22.192C70.9187 22.2667 71.228 22.3787 71.516 22.528C71.8147 22.6667 72.0707 22.8427 72.284 23.056L71.852 23.968C71.6493 23.776 71.42 23.616 71.164 23.488C70.908 23.3493 70.6413 23.248 70.364 23.184C70.0973 23.1093 69.8253 23.072 69.548 23.072C68.9507 23.072 68.4973 23.1893 68.188 23.424C67.8787 23.6587 67.724 23.968 67.724 24.352C67.724 24.6507 67.82 24.896 68.012 25.088C68.204 25.28 68.5027 25.4187 68.908 25.504L70.364 25.808C71.0573 25.9573 71.5747 26.1973 71.916 26.528C72.268 26.848 72.444 27.2853 72.444 27.84C72.444 28.3093 72.316 28.72 72.06 29.072C71.804 29.4133 71.4413 29.68 70.972 29.872C70.5133 30.0533 69.9693 30.144 69.34 30.144ZM77.6711 30.144C77.0418 30.144 76.5191 30.032 76.1031 29.808C75.6978 29.5733 75.3885 29.2267 75.1751 28.768C74.9725 28.3093 74.8711 27.7387 74.8711 27.056V22.224H76.1671V27.04C76.1671 27.4987 76.2258 27.8827 76.3431 28.192C76.4711 28.4907 76.6685 28.7147 76.9351 28.864C77.2018 29.0027 77.5325 29.072 77.9271 29.072C78.3751 29.072 78.7645 28.9707 79.0951 28.768C79.4258 28.5653 79.6871 28.2827 79.8791 27.92C80.0711 27.5573 80.1671 27.1307 80.1671 26.64V22.224H81.4631V30H80.1991V28.208H80.4071C80.1938 28.8373 79.8418 29.3173 79.3511 29.648C78.8711 29.9787 78.3111 30.144 77.6711 30.144ZM87.8279 33.024C87.1559 33.024 86.5212 32.9333 85.9239 32.752C85.3372 32.5813 84.8145 32.32 84.3559 31.968L84.7879 31.024C85.1079 31.248 85.4225 31.4293 85.7319 31.568C86.0519 31.7173 86.3772 31.824 86.7079 31.888C87.0492 31.952 87.4012 31.984 87.7639 31.984C88.5212 31.984 89.0919 31.7813 89.4759 31.376C89.8705 30.9707 90.0679 30.384 90.0679 29.616V27.808H90.2279C90.0679 28.4267 89.7265 28.9173 89.2039 29.28C88.6919 29.6427 88.0892 29.824 87.3959 29.824C86.6812 29.824 86.0625 29.664 85.5399 29.344C85.0172 29.0133 84.6119 28.5547 84.3239 27.968C84.0465 27.3813 83.9079 26.704 83.9079 25.936C83.9079 25.168 84.0465 24.496 84.3239 23.92C84.6119 23.3333 85.0172 22.88 85.5399 22.56C86.0625 22.24 86.6812 22.08 87.3959 22.08C88.0999 22.08 88.7079 22.2613 89.2199 22.624C89.7319 22.976 90.0625 23.456 90.2119 24.064H90.0679V22.224H91.3319V29.44C91.3319 30.2293 91.1985 30.8907 90.9319 31.424C90.6759 31.9573 90.2865 32.3573 89.7639 32.624C89.2412 32.8907 88.5959 33.024 87.8279 33.024ZM87.6359 28.768C88.3825 28.768 88.9745 28.512 89.4119 28C89.8492 27.488 90.0679 26.8 90.0679 25.936C90.0679 25.072 89.8492 24.3893 89.4119 23.888C88.9745 23.376 88.3825 23.12 87.6359 23.12C86.8999 23.12 86.3132 23.376 85.8759 23.888C85.4385 24.3893 85.2199 25.072 85.2199 25.936C85.2199 26.8 85.4385 27.488 85.8759 28C86.3132 28.512 86.8999 28.768 87.6359 28.768ZM97.7029 33.024C97.0309 33.024 96.3962 32.9333 95.7989 32.752C95.2122 32.5813 94.6895 32.32 94.2309 31.968L94.6629 31.024C94.9829 31.248 95.2975 31.4293 95.6069 31.568C95.9269 31.7173 96.2522 31.824 96.5829 31.888C96.9242 31.952 97.2762 31.984 97.6389 31.984C98.3962 31.984 98.9669 31.7813 99.3509 31.376C99.7455 30.9707 99.9429 30.384 99.9429 29.616V27.808H100.103C99.9429 28.4267 99.6015 28.9173 99.0789 29.28C98.5669 29.6427 97.9642 29.824 97.2709 29.824C96.5562 29.824 95.9375 29.664 95.4149 29.344C94.8922 29.0133 94.4869 28.5547 94.1989 27.968C93.9215 27.3813 93.7829 26.704 93.7829 25.936C93.7829 25.168 93.9215 24.496 94.1989 23.92C94.4869 23.3333 94.8922 22.88 95.4149 22.56C95.9375 22.24 96.5562 22.08 97.2709 22.08C97.9749 22.08 98.5829 22.2613 99.0949 22.624C99.6069 22.976 99.9375 23.456 100.087 24.064H99.9429V22.224H101.207V29.44C101.207 30.2293 101.074 30.8907 100.807 31.424C100.551 31.9573 100.162 32.3573 99.6389 32.624C99.1162 32.8907 98.4709 33.024 97.7029 33.024ZM97.5109 28.768C98.2575 28.768 98.8495 28.512 99.2869 28C99.7242 27.488 99.9429 26.8 99.9429 25.936C99.9429 25.072 99.7242 24.3893 99.2869 23.888C98.8495 23.376 98.2575 23.12 97.5109 23.12C96.7749 23.12 96.1882 23.376 95.7509 23.888C95.3135 24.3893 95.0949 25.072 95.0949 25.936C95.0949 26.8 95.3135 27.488 95.7509 28C96.1882 28.512 96.7749 28.768 97.5109 28.768ZM107.642 30.144C106.821 30.144 106.111 29.984 105.514 29.664C104.927 29.3333 104.469 28.8693 104.138 28.272C103.818 27.6747 103.658 26.96 103.658 26.128C103.658 25.3173 103.818 24.6133 104.138 24.016C104.458 23.408 104.895 22.9333 105.45 22.592C106.015 22.2507 106.666 22.08 107.402 22.08C108.106 22.08 108.709 22.2347 109.21 22.544C109.711 22.8533 110.095 23.2907 110.362 23.856C110.639 24.4213 110.778 25.0987 110.778 25.888V26.384H104.65V25.536H109.914L109.658 25.744C109.658 24.8907 109.466 24.2293 109.082 23.76C108.709 23.28 108.159 23.04 107.434 23.04C106.89 23.04 106.426 23.168 106.042 23.424C105.669 23.6693 105.386 24.016 105.194 24.464C105.002 24.9013 104.906 25.4133 104.906 26V26.096C104.906 26.7467 105.007 27.296 105.21 27.744C105.423 28.192 105.738 28.5333 106.154 28.768C106.57 28.992 107.066 29.104 107.642 29.104C108.101 29.104 108.543 29.0347 108.97 28.896C109.407 28.7467 109.818 28.5067 110.202 28.176L110.65 29.088C110.298 29.408 109.85 29.664 109.306 29.856C108.762 30.048 108.207 30.144 107.642 30.144ZM115.778 30.144C115.372 30.144 114.978 30.1013 114.594 30.016C114.22 29.9413 113.868 29.8347 113.538 29.696C113.218 29.5467 112.94 29.3707 112.706 29.168L113.122 28.256C113.378 28.4587 113.655 28.6293 113.954 28.768C114.252 28.896 114.556 28.992 114.866 29.056C115.175 29.12 115.49 29.152 115.81 29.152C116.418 29.152 116.876 29.04 117.186 28.816C117.495 28.592 117.65 28.288 117.65 27.904C117.65 27.6053 117.548 27.3707 117.346 27.2C117.143 27.0187 116.823 26.88 116.386 26.784L114.93 26.464C114.258 26.3253 113.756 26.0853 113.426 25.744C113.106 25.4027 112.946 24.96 112.946 24.416C112.946 23.936 113.068 23.5253 113.314 23.184C113.57 22.832 113.927 22.56 114.386 22.368C114.844 22.176 115.378 22.08 115.986 22.08C116.348 22.08 116.695 22.1173 117.026 22.192C117.356 22.2667 117.666 22.3787 117.954 22.528C118.252 22.6667 118.508 22.8427 118.722 23.056L118.29 23.968C118.087 23.776 117.858 23.616 117.602 23.488C117.346 23.3493 117.079 23.248 116.802 23.184C116.535 23.1093 116.263 23.072 115.986 23.072C115.388 23.072 114.935 23.1893 114.626 23.424C114.316 23.6587 114.162 23.968 114.162 24.352C114.162 24.6507 114.258 24.896 114.45 25.088C114.642 25.28 114.94 25.4187 115.346 25.504L116.802 25.808C117.495 25.9573 118.012 26.1973 118.354 26.528C118.706 26.848 118.882 27.2853 118.882 27.84C118.882 28.3093 118.754 28.72 118.498 29.072C118.242 29.4133 117.879 29.68 117.41 29.872C116.951 30.0533 116.407 30.144 115.778 30.144ZM124.399 30.144C123.481 30.144 122.793 29.8987 122.335 29.408C121.876 28.9173 121.647 28.2187 121.647 27.312V23.232H120.127V22.224H121.647V19.84H122.943V22.224H125.407V23.232H122.943V27.184C122.943 27.792 123.071 28.256 123.327 28.576C123.583 28.8853 123.999 29.04 124.575 29.04C124.745 29.04 124.916 29.0187 125.087 28.976C125.257 28.9333 125.412 28.8907 125.551 28.848L125.775 29.84C125.636 29.9147 125.433 29.984 125.167 30.048C124.9 30.112 124.644 30.144 124.399 30.144ZM127.212 20.288V18.832H128.812V20.288H127.212ZM127.372 30V22.224H128.668V30H127.372ZM134.823 30.144C134.066 30.144 133.41 29.9787 132.855 29.648C132.3 29.3173 131.868 28.8533 131.559 28.256C131.26 27.648 131.111 26.9333 131.111 26.112C131.111 25.2907 131.26 24.5813 131.559 23.984C131.868 23.376 132.3 22.9067 132.855 22.576C133.41 22.2453 134.066 22.08 134.823 22.08C135.58 22.08 136.236 22.2453 136.791 22.576C137.346 22.9067 137.772 23.376 138.071 23.984C138.38 24.5813 138.535 25.2907 138.535 26.112C138.535 26.9333 138.38 27.648 138.071 28.256C137.772 28.8533 137.346 29.3173 136.791 29.648C136.236 29.9787 135.58 30.144 134.823 30.144ZM134.823 29.104C135.559 29.104 136.14 28.848 136.567 28.336C137.004 27.8133 137.223 27.0667 137.223 26.096C137.223 25.136 137.004 24.4 136.567 23.888C136.14 23.376 135.559 23.12 134.823 23.12C134.098 23.12 133.516 23.376 133.079 23.888C132.642 24.4 132.423 25.136 132.423 26.096C132.423 27.0667 132.642 27.8133 133.079 28.336C133.516 28.848 134.098 29.104 134.823 29.104ZM140.982 30V22.224H142.246V23.952H142.07C142.294 23.3333 142.656 22.8693 143.158 22.56C143.67 22.24 144.256 22.08 144.918 22.08C145.536 22.08 146.048 22.192 146.454 22.416C146.87 22.6293 147.179 22.9653 147.382 23.424C147.584 23.8827 147.686 24.4587 147.686 25.152V30H146.39V25.232C146.39 24.752 146.326 24.3573 146.198 24.048C146.08 23.7387 145.888 23.5093 145.622 23.36C145.366 23.2107 145.03 23.136 144.614 23.136C144.144 23.136 143.734 23.2373 143.382 23.44C143.03 23.6427 142.758 23.9253 142.566 24.288C142.374 24.6507 142.278 25.0773 142.278 25.568V30H140.982ZM153.199 30.144C152.794 30.144 152.399 30.1013 152.015 30.016C151.642 29.9413 151.29 29.8347 150.959 29.696C150.639 29.5467 150.362 29.3707 150.127 29.168L150.543 28.256C150.799 28.4587 151.077 28.6293 151.375 28.768C151.674 28.896 151.978 28.992 152.287 29.056C152.597 29.12 152.911 29.152 153.231 29.152C153.839 29.152 154.298 29.04 154.607 28.816C154.917 28.592 155.071 28.288 155.071 27.904C155.071 27.6053 154.97 27.3707 154.767 27.2C154.565 27.0187 154.245 26.88 153.807 26.784L152.351 26.464C151.679 26.3253 151.178 26.0853 150.847 25.744C150.527 25.4027 150.367 24.96 150.367 24.416C150.367 23.936 150.49 23.5253 150.735 23.184C150.991 22.832 151.349 22.56 151.807 22.368C152.266 22.176 152.799 22.08 153.407 22.08C153.77 22.08 154.117 22.1173 154.447 22.192C154.778 22.2667 155.087 22.3787 155.375 22.528C155.674 22.6667 155.93 22.8427 156.143 23.056L155.711 23.968C155.509 23.776 155.279 23.616 155.023 23.488C154.767 23.3493 154.501 23.248 154.223 23.184C153.957 23.1093 153.685 23.072 153.407 23.072C152.81 23.072 152.357 23.1893 152.047 23.424C151.738 23.6587 151.583 23.968 151.583 24.352C151.583 24.6507 151.679 24.896 151.871 25.088C152.063 25.28 152.362 25.4187 152.767 25.504L154.223 25.808C154.917 25.9573 155.434 26.1973 155.775 26.528C156.127 26.848 156.303 27.2853 156.303 27.84C156.303 28.3093 156.175 28.72 155.919 29.072C155.663 29.4133 155.301 29.68 154.831 29.872C154.373 30.0533 153.829 30.144 153.199 30.144ZM163.804 30V23.232H162.268V22.224H164.156L163.804 22.56V21.952C163.804 20.9173 164.06 20.1333 164.572 19.6C165.095 19.0667 165.895 18.768 166.972 18.704L167.596 18.672L167.708 19.664L166.972 19.712C166.535 19.744 166.177 19.84 165.9 20C165.623 20.16 165.42 20.3893 165.292 20.688C165.164 20.9867 165.1 21.3547 165.1 21.792V22.464L164.908 22.224H167.34V23.232H165.1V30H163.804ZM172.229 30.144C171.472 30.144 170.816 29.9787 170.261 29.648C169.707 29.3173 169.275 28.8533 168.965 28.256C168.667 27.648 168.517 26.9333 168.517 26.112C168.517 25.2907 168.667 24.5813 168.965 23.984C169.275 23.376 169.707 22.9067 170.261 22.576C170.816 22.2453 171.472 22.08 172.229 22.08C172.987 22.08 173.643 22.2453 174.197 22.576C174.752 22.9067 175.179 23.376 175.477 23.984C175.787 24.5813 175.941 25.2907 175.941 26.112C175.941 26.9333 175.787 27.648 175.477 28.256C175.179 28.8533 174.752 29.3173 174.197 29.648C173.643 29.9787 172.987 30.144 172.229 30.144ZM172.229 29.104C172.965 29.104 173.547 28.848 173.973 28.336C174.411 27.8133 174.629 27.0667 174.629 26.096C174.629 25.136 174.411 24.4 173.973 23.888C173.547 23.376 172.965 23.12 172.229 23.12C171.504 23.12 170.923 23.376 170.485 23.888C170.048 24.4 169.829 25.136 169.829 26.096C169.829 27.0667 170.048 27.8133 170.485 28.336C170.923 28.848 171.504 29.104 172.229 29.104ZM178.388 30V22.224H179.652V24.064H179.492C179.673 23.4347 179.988 22.96 180.436 22.64C180.884 22.3093 181.476 22.1173 182.212 22.064L182.676 22.016L182.772 23.136L181.956 23.232C181.231 23.296 180.671 23.5307 180.276 23.936C179.892 24.3307 179.7 24.8747 179.7 25.568V30H178.388ZM189.072 20.288V18.832H190.672V20.288H189.072ZM189.232 30V22.224H190.528V30H189.232ZM193.482 30V22.224H194.746V23.952H194.57C194.698 23.5573 194.885 23.2213 195.13 22.944C195.386 22.656 195.685 22.4427 196.026 22.304C196.378 22.1547 196.762 22.08 197.178 22.08C197.84 22.08 198.373 22.24 198.778 22.56C199.194 22.8693 199.472 23.3547 199.61 24.016H199.37C199.562 23.4187 199.904 22.9493 200.394 22.608C200.896 22.256 201.477 22.08 202.138 22.08C202.725 22.08 203.205 22.192 203.578 22.416C203.962 22.64 204.25 22.9813 204.442 23.44C204.634 23.888 204.73 24.4587 204.73 25.152V30H203.434V25.216C203.434 24.5013 203.312 23.9787 203.066 23.648C202.821 23.3067 202.405 23.136 201.818 23.136C201.402 23.136 201.034 23.2373 200.714 23.44C200.405 23.6427 200.165 23.9307 199.994 24.304C199.834 24.6667 199.754 25.0987 199.754 25.6V30H198.458V25.216C198.458 24.5013 198.33 23.9787 198.074 23.648C197.829 23.3067 197.418 23.136 196.842 23.136C196.416 23.136 196.048 23.2373 195.738 23.44C195.429 23.6427 195.189 23.9307 195.018 24.304C194.858 24.6667 194.778 25.0987 194.778 25.6V30H193.482ZM207.654 32.88V22.224H208.918V24.064H208.758C208.928 23.456 209.264 22.976 209.766 22.624C210.278 22.2613 210.886 22.08 211.59 22.08C212.283 22.08 212.886 22.2453 213.398 22.576C213.92 22.896 214.32 23.36 214.598 23.968C214.886 24.5653 215.03 25.28 215.03 26.112C215.03 26.9333 214.886 27.648 214.598 28.256C214.32 28.8533 213.926 29.3173 213.414 29.648C212.902 29.9787 212.294 30.144 211.59 30.144C210.886 30.144 210.283 29.968 209.782 29.616C209.28 29.2533 208.939 28.7733 208.758 28.176H208.95V32.88H207.654ZM211.318 29.104C212.054 29.104 212.635 28.848 213.062 28.336C213.499 27.8133 213.718 27.072 213.718 26.112C213.718 25.1413 213.499 24.4 213.062 23.888C212.635 23.376 212.054 23.12 211.318 23.12C210.592 23.12 210.011 23.376 209.574 23.888C209.136 24.4 208.918 25.1413 208.918 26.112C208.918 27.072 209.136 27.8133 209.574 28.336C210.011 28.848 210.592 29.104 211.318 29.104ZM217.482 30V22.224H218.746V24.064H218.586C218.767 23.4347 219.082 22.96 219.53 22.64C219.978 22.3093 220.57 22.1173 221.306 22.064L221.77 22.016L221.866 23.136L221.05 23.232C220.324 23.296 219.764 23.5307 219.37 23.936C218.986 24.3307 218.794 24.8747 218.794 25.568V30H217.482ZM226.854 30.144C226.097 30.144 225.441 29.9787 224.886 29.648C224.332 29.3173 223.9 28.8533 223.59 28.256C223.292 27.648 223.142 26.9333 223.142 26.112C223.142 25.2907 223.292 24.5813 223.59 23.984C223.9 23.376 224.332 22.9067 224.886 22.576C225.441 22.2453 226.097 22.08 226.854 22.08C227.612 22.08 228.268 22.2453 228.822 22.576C229.377 22.9067 229.804 23.376 230.102 23.984C230.412 24.5813 230.566 25.2907 230.566 26.112C230.566 26.9333 230.412 27.648 230.102 28.256C229.804 28.8533 229.377 29.3173 228.822 29.648C228.268 29.9787 227.612 30.144 226.854 30.144ZM226.854 29.104C227.59 29.104 228.172 28.848 228.598 28.336C229.036 27.8133 229.254 27.0667 229.254 26.096C229.254 25.136 229.036 24.4 228.598 23.888C228.172 23.376 227.59 23.12 226.854 23.12C226.129 23.12 225.548 23.376 225.11 23.888C224.673 24.4 224.454 25.136 224.454 26.096C224.454 27.0667 224.673 27.8133 225.11 28.336C225.548 28.848 226.129 29.104 226.854 29.104ZM235.192 30L231.848 22.224H233.256L236.04 29.04H235.608L238.44 22.224H239.767L236.408 30H235.192ZM245.033 30.144C244.211 30.144 243.502 29.984 242.905 29.664C242.318 29.3333 241.859 28.8693 241.529 28.272C241.209 27.6747 241.049 26.96 241.049 26.128C241.049 25.3173 241.209 24.6133 241.529 24.016C241.849 23.408 242.286 22.9333 242.841 22.592C243.406 22.2507 244.057 22.08 244.793 22.08C245.497 22.08 246.099 22.2347 246.601 22.544C247.102 22.8533 247.486 23.2907 247.753 23.856C248.03 24.4213 248.169 25.0987 248.169 25.888V26.384H242.041V25.536H247.305L247.049 25.744C247.049 24.8907 246.857 24.2293 246.473 23.76C246.099 23.28 245.55 23.04 244.825 23.04C244.281 23.04 243.817 23.168 243.433 23.424C243.059 23.6693 242.777 24.016 242.585 24.464C242.393 24.9013 242.297 25.4133 242.297 26V26.096C242.297 26.7467 242.398 27.296 242.601 27.744C242.814 28.192 243.129 28.5333 243.545 28.768C243.961 28.992 244.457 29.104 245.033 29.104C245.491 29.104 245.934 29.0347 246.361 28.896C246.798 28.7467 247.209 28.5067 247.593 28.176L248.041 29.088C247.689 29.408 247.241 29.664 246.697 29.856C246.153 30.048 245.598 30.144 245.033 30.144ZM250.576 30V22.224H251.84V23.952H251.664C251.792 23.5573 251.979 23.2213 252.224 22.944C252.48 22.656 252.779 22.4427 253.12 22.304C253.472 22.1547 253.856 22.08 254.272 22.08C254.933 22.08 255.467 22.24 255.872 22.56C256.288 22.8693 256.565 23.3547 256.704 24.016H256.464C256.656 23.4187 256.997 22.9493 257.488 22.608C257.989 22.256 258.571 22.08 259.232 22.08C259.819 22.08 260.299 22.192 260.672 22.416C261.056 22.64 261.344 22.9813 261.536 23.44C261.728 23.888 261.824 24.4587 261.824 25.152V30H260.528V25.216C260.528 24.5013 260.405 23.9787 260.16 23.648C259.915 23.3067 259.499 23.136 258.912 23.136C258.496 23.136 258.128 23.2373 257.808 23.44C257.499 23.6427 257.259 23.9307 257.088 24.304C256.928 24.6667 256.848 25.0987 256.848 25.6V30H255.552V25.216C255.552 24.5013 255.424 23.9787 255.168 23.648C254.923 23.3067 254.512 23.136 253.936 23.136C253.509 23.136 253.141 23.2373 252.832 23.44C252.523 23.6427 252.283 23.9307 252.112 24.304C251.952 24.6667 251.872 25.0987 251.872 25.6V30H250.576ZM268.251 30.144C267.43 30.144 266.721 29.984 266.123 29.664C265.537 29.3333 265.078 28.8693 264.747 28.272C264.427 27.6747 264.267 26.96 264.267 26.128C264.267 25.3173 264.427 24.6133 264.747 24.016C265.067 23.408 265.505 22.9333 266.059 22.592C266.625 22.2507 267.275 22.08 268.011 22.08C268.715 22.08 269.318 22.2347 269.819 22.544C270.321 22.8533 270.705 23.2907 270.971 23.856C271.249 24.4213 271.387 25.0987 271.387 25.888V26.384H265.259V25.536H270.523L270.267 25.744C270.267 24.8907 270.075 24.2293 269.691 23.76C269.318 23.28 268.769 23.04 268.043 23.04C267.499 23.04 267.035 23.168 266.651 23.424C266.278 23.6693 265.995 24.016 265.803 24.464C265.611 24.9013 265.515 25.4133 265.515 26V26.096C265.515 26.7467 265.617 27.296 265.819 27.744C266.033 28.192 266.347 28.5333 266.763 28.768C267.179 28.992 267.675 29.104 268.251 29.104C268.71 29.104 269.153 29.0347 269.579 28.896C270.017 28.7467 270.427 28.5067 270.811 28.176L271.259 29.088C270.907 29.408 270.459 29.664 269.915 29.856C269.371 30.048 268.817 30.144 268.251 30.144ZM273.763 30V22.224H275.027V23.952H274.851C275.075 23.3333 275.438 22.8693 275.939 22.56C276.451 22.24 277.038 22.08 277.699 22.08C278.318 22.08 278.83 22.192 279.235 22.416C279.651 22.6293 279.96 22.9653 280.163 23.424C280.366 23.8827 280.467 24.4587 280.467 25.152V30H279.171V25.232C279.171 24.752 279.107 24.3573 278.979 24.048C278.862 23.7387 278.67 23.5093 278.403 23.36C278.147 23.2107 277.811 23.136 277.395 23.136C276.926 23.136 276.515 23.2373 276.163 23.44C275.811 23.6427 275.539 23.9253 275.347 24.288C275.155 24.6507 275.059 25.0773 275.059 25.568V30H273.763ZM286.477 30.144C285.559 30.144 284.871 29.8987 284.413 29.408C283.954 28.9173 283.725 28.2187 283.725 27.312V23.232H282.205V22.224H283.725V19.84H285.021V22.224H287.485V23.232H285.021V27.184C285.021 27.792 285.149 28.256 285.405 28.576C285.661 28.8853 286.077 29.04 286.653 29.04C286.823 29.04 286.994 29.0187 287.165 28.976C287.335 28.9333 287.49 28.8907 287.629 28.848L287.853 29.84C287.714 29.9147 287.511 29.984 287.245 30.048C286.978 30.112 286.722 30.144 286.477 30.144ZM291.178 27.056V26.592C291.178 26.2293 291.22 25.888 291.306 25.568C291.402 25.2373 291.546 24.9013 291.738 24.56C291.94 24.2187 292.212 23.8507 292.554 23.456C292.82 23.136 293.034 22.8533 293.194 22.608C293.354 22.3627 293.466 22.128 293.53 21.904C293.604 21.6693 293.642 21.4347 293.642 21.2C293.642 20.8907 293.567 20.6293 293.418 20.416C293.279 20.2027 293.076 20.0373 292.81 19.92C292.543 19.8027 292.218 19.744 291.834 19.744C291.247 19.744 290.703 19.8507 290.202 20.064C289.7 20.2773 289.226 20.5973 288.778 21.024L288.298 20C288.575 19.712 288.906 19.4667 289.29 19.264C289.674 19.0507 290.084 18.8853 290.522 18.768C290.97 18.64 291.428 18.576 291.898 18.576C292.506 18.576 293.039 18.6827 293.498 18.896C293.967 19.0987 294.33 19.392 294.586 19.776C294.842 20.1493 294.97 20.592 294.97 21.104C294.97 21.4347 294.922 21.7547 294.826 22.064C294.73 22.3627 294.575 22.6667 294.362 22.976C294.159 23.2853 293.871 23.6373 293.498 24.032C293.167 24.3733 292.9 24.6933 292.698 24.992C292.495 25.2907 292.34 25.5733 292.234 25.84C292.138 26.1067 292.074 26.3787 292.042 26.656L292.01 27.056H291.178ZM290.778 30V28.368H292.41V30H290.778Z" fill="#75777A"/>
</svg>
