<svg width="301" height="48" viewBox="0 0 301 48" fill="none" xmlns="http://www.w3.org/2000/svg">
<mask id="path-1-inside-1_137_804" fill="white">
<path d="M0 8C0 3.58172 3.58172 0 8 0H292.5C296.918 0 300.5 3.58172 300.5 8V40C300.5 44.4183 296.918 48 292.5 48H8C3.58172 48 0 44.4183 0 40V8Z"/>
</mask>
<path d="M0 8C0 3.58172 3.58172 0 8 0H292.5C296.918 0 300.5 3.58172 300.5 8V40C300.5 44.4183 296.918 48 292.5 48H8C3.58172 48 0 44.4183 0 40V8Z" fill="#2AACE2"/>
<path d="M0 0H300.5H0ZM300.5 40C300.5 46.6274 295.127 52 288.5 52H12C5.37258 52 0 46.6274 0 40C0 42.2091 3.58172 44 8 44H292.5C296.918 44 300.5 42.2091 300.5 40ZM0 48V0V48ZM300.5 0V48V0Z" fill="#008AC4" mask="url(#path-1-inside-1_137_804)"/>
<path d="M128.822 29.144C128.086 29.144 127.377 29.0587 126.694 28.888C126.022 28.7173 125.435 28.4613 124.934 28.12C124.731 27.9813 124.609 27.816 124.566 27.624C124.523 27.4213 124.539 27.24 124.614 27.08C124.699 26.9093 124.822 26.792 124.982 26.728C125.153 26.664 125.345 26.7013 125.558 26.84C126.038 27.1493 126.545 27.3787 127.078 27.528C127.611 27.6667 128.193 27.736 128.822 27.736C129.729 27.736 130.395 27.576 130.822 27.256C131.259 26.9253 131.478 26.4987 131.478 25.976C131.478 25.5493 131.323 25.2133 131.014 24.968C130.705 24.712 130.187 24.5093 129.462 24.36L127.75 24.008C126.737 23.7947 125.979 23.4427 125.478 22.952C124.987 22.4613 124.742 21.8 124.742 20.968C124.742 20.296 124.918 19.704 125.27 19.192C125.633 18.68 126.134 18.2853 126.774 18.008C127.414 17.72 128.15 17.576 128.982 17.576C129.643 17.576 130.262 17.6613 130.838 17.832C131.425 18.0027 131.947 18.264 132.406 18.616C132.587 18.744 132.694 18.8987 132.726 19.08C132.758 19.2613 132.731 19.432 132.646 19.592C132.561 19.7413 132.433 19.8427 132.262 19.896C132.091 19.9493 131.894 19.9067 131.67 19.768C131.254 19.4907 130.827 19.2933 130.39 19.176C129.953 19.048 129.478 18.984 128.966 18.984C128.177 18.984 127.547 19.16 127.078 19.512C126.619 19.864 126.39 20.3333 126.39 20.92C126.39 21.368 126.534 21.7253 126.822 21.992C127.11 22.2587 127.59 22.4613 128.262 22.6L129.958 22.952C131.025 23.176 131.819 23.5227 132.342 23.992C132.865 24.4507 133.126 25.0747 133.126 25.864C133.126 26.5253 132.95 27.1013 132.598 27.592C132.246 28.0827 131.75 28.4667 131.11 28.744C130.47 29.0107 129.707 29.144 128.822 29.144ZM137.623 29.144C135.735 29.144 134.791 28.0933 134.791 25.992V21.896C134.791 21.352 135.058 21.08 135.591 21.08C136.135 21.08 136.407 21.352 136.407 21.896V26.008C136.407 26.6373 136.535 27.1013 136.791 27.4C137.047 27.6987 137.452 27.848 138.007 27.848C138.615 27.848 139.106 27.6453 139.479 27.24C139.863 26.8347 140.055 26.2907 140.055 25.608V21.896C140.055 21.352 140.327 21.08 140.871 21.08C141.404 21.08 141.671 21.352 141.671 21.896V28.296C141.671 28.84 141.41 29.112 140.887 29.112C140.364 29.112 140.103 28.84 140.103 28.296V27.752C139.847 28.2107 139.506 28.5573 139.079 28.792C138.652 29.0267 138.167 29.144 137.623 29.144ZM148.141 29.144C147.554 29.144 147.031 29.016 146.573 28.76C146.114 28.4933 145.767 28.136 145.533 27.688V28.296C145.533 28.84 145.271 29.112 144.749 29.112C144.215 29.112 143.949 28.84 143.949 28.296V18.424C143.949 17.88 144.215 17.608 144.749 17.608C145.293 17.608 145.565 17.88 145.565 18.424V22.456C145.799 22.0293 146.141 21.688 146.589 21.432C147.047 21.176 147.565 21.048 148.141 21.048C148.834 21.048 149.437 21.2133 149.949 21.544C150.471 21.8747 150.871 22.344 151.149 22.952C151.437 23.5493 151.581 24.264 151.581 25.096C151.581 25.928 151.437 26.648 151.149 27.256C150.871 27.864 150.471 28.3333 149.949 28.664C149.437 28.984 148.834 29.144 148.141 29.144ZM147.741 27.896C148.413 27.896 148.946 27.656 149.341 27.176C149.746 26.696 149.949 26.0027 149.949 25.096C149.949 24.1893 149.746 23.5013 149.341 23.032C148.946 22.552 148.413 22.312 147.741 22.312C147.069 22.312 146.53 22.552 146.125 23.032C145.73 23.5013 145.533 24.1893 145.533 25.096C145.533 26.0027 145.73 26.696 146.125 27.176C146.53 27.656 147.069 27.896 147.741 27.896ZM154.234 29.112C153.7 29.112 153.434 28.84 153.434 28.296V21.896C153.434 21.352 153.695 21.08 154.218 21.08C154.74 21.08 155.002 21.352 155.002 21.896V22.456C155.236 22.008 155.562 21.6613 155.978 21.416C156.394 21.1707 156.879 21.048 157.434 21.048C158.628 21.048 159.402 21.5707 159.754 22.616C159.999 22.1253 160.351 21.7413 160.81 21.464C161.268 21.1867 161.791 21.048 162.378 21.048C164.127 21.048 165.002 22.0933 165.002 24.184V28.296C165.002 28.84 164.73 29.112 164.186 29.112C163.652 29.112 163.386 28.84 163.386 28.296V24.264C163.386 23.6027 163.268 23.1173 163.034 22.808C162.81 22.4987 162.436 22.344 161.914 22.344C161.327 22.344 160.863 22.552 160.522 22.968C160.18 23.3733 160.01 23.928 160.01 24.632V28.296C160.01 28.84 159.743 29.112 159.21 29.112C158.666 29.112 158.394 28.84 158.394 28.296V24.264C158.394 23.6027 158.282 23.1173 158.058 22.808C157.834 22.4987 157.46 22.344 156.938 22.344C156.351 22.344 155.887 22.552 155.546 22.968C155.215 23.3733 155.05 23.928 155.05 24.632V28.296C155.05 28.84 154.778 29.112 154.234 29.112ZM168.061 19.448C167.741 19.448 167.49 19.368 167.309 19.208C167.138 19.048 167.053 18.824 167.053 18.536C167.053 17.928 167.389 17.624 168.061 17.624C168.733 17.624 169.069 17.928 169.069 18.536C169.069 19.144 168.733 19.448 168.061 19.448ZM168.061 29.096C167.528 29.096 167.261 28.8027 167.261 28.216V21.976C167.261 21.4 167.528 21.112 168.061 21.112C168.605 21.112 168.877 21.4 168.877 21.976V28.216C168.877 28.8027 168.605 29.096 168.061 29.096ZM174.48 29.144C173.498 29.144 172.768 28.8933 172.288 28.392C171.808 27.8907 171.568 27.1653 171.568 26.216V22.44H170.608C170.16 22.44 169.936 22.232 169.936 21.816C169.936 21.4 170.16 21.192 170.608 21.192H171.568V19.544C171.568 19 171.84 18.728 172.384 18.728C172.917 18.728 173.184 19 173.184 19.544V21.192H175.056C175.504 21.192 175.728 21.4 175.728 21.816C175.728 22.232 175.504 22.44 175.056 22.44H173.184V26.088C173.184 26.6533 173.301 27.08 173.536 27.368C173.781 27.656 174.176 27.8 174.72 27.8C174.912 27.8 175.077 27.784 175.216 27.752C175.354 27.7093 175.477 27.6827 175.584 27.672C175.701 27.672 175.797 27.7147 175.872 27.8C175.946 27.8747 175.984 28.024 175.984 28.248C175.984 28.4187 175.952 28.5733 175.888 28.712C175.834 28.84 175.733 28.9253 175.584 28.968C175.456 29.0213 175.28 29.064 175.056 29.096C174.842 29.128 174.65 29.144 174.48 29.144Z" fill="#181818"/>
</svg>
