<svg width="32" height="32" viewBox="0 0 32 32" fill="none" xmlns="http://www.w3.org/2000/svg">
<path d="M22.6667 17.3332L17.3334 29.3332C16.2725 29.3332 15.2551 28.9117 14.5049 28.1616C13.7548 27.4114 13.3334 26.394 13.3334 25.3332V19.9998H5.78671C5.40016 20.0042 5.01729 19.9245 4.66461 19.7662C4.31193 19.6079 3.99789 19.3749 3.74423 19.0831C3.49057 18.7914 3.30337 18.4481 3.19559 18.0768C3.08781 17.7056 3.06203 17.3154 3.12004 16.9332L4.96004 4.93316C5.05647 4.29729 5.37946 3.71769 5.8695 3.30116C6.35954 2.88462 6.9836 2.65923 7.62671 2.6665H22.6667M22.6667 17.3332V2.6665M22.6667 17.3332H26.2267C26.9813 17.3465 27.7146 17.0823 28.2873 16.5907C28.8599 16.0992 29.2322 15.4144 29.3334 14.6665V5.33316C29.2322 4.58524 28.8599 3.9005 28.2873 3.40892C27.7146 2.91734 26.9813 2.65315 26.2267 2.6665H22.6667" stroke="#909092" stroke-width="3" stroke-linecap="round" stroke-linejoin="round"/>
</svg>
