<svg width="32" height="32" viewBox="0 0 32 32" fill="none" xmlns="http://www.w3.org/2000/svg">
<path d="M9.33329 14.667L14.6666 2.66699C15.7275 2.66699 16.7449 3.08842 17.4951 3.83857C18.2452 4.58871 18.6666 5.60613 18.6666 6.66699V12.0003H26.2133C26.5998 11.9959 26.9827 12.0757 27.3354 12.2339C27.6881 12.3922 28.0021 12.6253 28.2558 12.917C28.5094 13.2087 28.6966 13.5521 28.8044 13.9233C28.9122 14.2946 28.938 14.6848 28.88 15.067L27.04 27.067C26.9435 27.7029 26.6205 28.2825 26.1305 28.699C25.6405 29.1155 25.0164 29.3409 24.3733 29.3337H9.33329M9.33329 14.667V29.3337M9.33329 14.667H5.33329C4.62605 14.667 3.94777 14.9479 3.44767 15.448C2.94758 15.9481 2.66663 16.6264 2.66663 17.3337V26.667C2.66663 27.3742 2.94758 28.0525 3.44767 28.5526C3.94777 29.0527 4.62605 29.3337 5.33329 29.3337H9.33329" stroke="#909092" stroke-width="3" stroke-linecap="round" stroke-linejoin="round"/>
</svg>
